<svg width="1500" height="1000" xmlns="http://www.w3.org/2000/svg" version="1.1">
<rect x="0" y="0" width="1500" height="1000" stroke="red" fill-opacity="0.0" stroke-opacity="1.0"/>
  <circle cx="571.4150402675841" cy="881.1908866585547" r="25" fill-opacity="0.0" stroke="black"/><circle cx="136.06242756066126" cy="499.63598964403434" r="25" fill-opacity="0.0" stroke="black"/><circle cx="1085.5843508453704" cy="583.7703812898584" r="25" fill-opacity="0.0" stroke="black"/><circle cx="540.2032854721209" cy="735.4962957403167" r="25" fill-opacity="0.0" stroke="black"/><circle cx="1207.6438618170635" cy="783.7669220708865" r="25" fill-opacity="0.0" stroke="black"/><circle cx="225.91904321946967" cy="557.7681126000787" r="25" fill-opacity="0.0" stroke="black"/><circle cx="1136.4229118965495" cy="747.3310017117182" r="25" fill-opacity="0.0" stroke="black"/><circle cx="195.47814751065238" cy="907.4767713440989" r="25" fill-opacity="0.0" stroke="black"/><circle cx="1416.7283041983906" cy="244.21312940281402" r="25" fill-opacity="0.0" stroke="black"/><circle cx="1264.4421977420948" cy="386.65029904026693" r="25" fill-opacity="0.0" stroke="black"/><circle cx="46.32797480698226" cy="140.5740673437954" r="25" fill-opacity="0.0" stroke="black"/><circle cx="399.9186030412999" cy="848.6398350999258" r="25" fill-opacity="0.0" stroke="black"/><circle cx="690.6391950398315" cy="830.5277463835121" r="25" fill-opacity="0.0" stroke="black"/><circle cx="286.2930740151193" cy="315.7466952143017" r="25" fill-opacity="0.0" stroke="black"/><circle cx="1115.3594932857757" cy="351.0088280633875" r="25" fill-opacity="0.0" stroke="black"/><circle cx="1272.4936083708" cy="544.7523932237153" r="25" fill-opacity="0.0" stroke="black"/><circle cx="103.94222535256915" cy="906.3986068213339" r="25" fill-opacity="0.0" stroke="black"/><circle cx="179.372296688345" cy="54.79836702384957" r="25" fill-opacity="0.0" stroke="black"/><circle cx="244.36516373659163" cy="399.2996534205909" r="25" fill-opacity="0.0" stroke="black"/><circle cx="730.4972948360438" cy="526.5214000019199" r="25" fill-opacity="0.0" stroke="black"/><circle cx="806.390226646309" cy="57.268539906872036" r="25" fill-opacity="0.0" stroke="black"/><circle cx="460.0722447739015" cy="766.4330442307008" r="25" fill-opacity="0.0" stroke="black"/><circle cx="569.7652910188846" cy="343.2967103686446" r="25" fill-opacity="0.0" stroke="black"/><circle cx="1277.3953693108242" cy="850.5135595885391" r="25" fill-opacity="0.0" stroke="black"/><circle cx="805.3033140852397" cy="302.410051812484" r="25" fill-opacity="0.0" stroke="black"/><circle cx="618.4738658660762" cy="712.794424787813" r="25" fill-opacity="0.0" stroke="black"/><circle cx="304.6114400429855" cy="587.3249928972608" r="25" fill-opacity="0.0" stroke="black"/><circle cx="942.5034642528142" cy="736.0701706767362" r="25" fill-opacity="0.0" stroke="black"/><circle cx="417.42629794897914" cy="365.58999447207356" r="25" fill-opacity="0.0" stroke="black"/><circle cx="649.3906878855588" cy="899.073794099948" r="25" fill-opacity="0.0" stroke="black"/><circle cx="434.5187390567909" cy="275.69703938239854" r="25" fill-opacity="0.0" stroke="black"/><circle cx="656.221088796661" cy="172.52202898523737" r="25" fill-opacity="0.0" stroke="black"/><circle cx="1033.7228679089035" cy="522.8574385959569" r="25" fill-opacity="0.0" stroke="black"/><circle cx="1027.2216838640002" cy="225.96410868314845" r="25" fill-opacity="0.0" stroke="black"/><circle cx="928.4924643270222" cy="829.7775391713731" r="25" fill-opacity="0.0" stroke="black"/><circle cx="1195.896789147129" cy="503.43571292346564" r="25" fill-opacity="0.0" stroke="black"/><circle cx="1122.1406307497605" cy="271.2967450728236" r="25" fill-opacity="0.0" stroke="black"/><circle cx="1336.8090628929651" cy="776.5184798959187" r="25" fill-opacity="0.0" stroke="black"/><circle cx="132.72883068060645" cy="191.54370579767436" r="25" fill-opacity="0.0" stroke="black"/><circle cx="156.27910155622746" cy="267.9988216610676" r="25" fill-opacity="0.0" stroke="black"/><circle cx="52.24945439953315" cy="615.1014052379911" r="25" fill-opacity="0.0" stroke="black"/><circle cx="799.2441629886019" cy="136.94873678288383" r="25" fill-opacity="0.0" stroke="black"/><circle cx="1362.9699702725056" cy="621.9817132040622" r="25" fill-opacity="0.0" stroke="black"/><circle cx="1280.0600192284326" cy="465.1110131080148" r="25" fill-opacity="0.0" stroke="black"/><circle cx="766.2835436672727" cy="378.02341242205324" r="25" fill-opacity="0.0" stroke="black"/><circle cx="1420.6099913742744" cy="566.5053401486105" r="25" fill-opacity="0.0" stroke="black"/><circle cx="969.3167768418604" cy="354.6488471206482" r="25" fill-opacity="0.0" stroke="black"/><circle cx="385.2953480322726" cy="599.6889878597057" r="25" fill-opacity="0.0" stroke="black"/><circle cx="380.20882858996015" cy="771.1058116581017" r="25" fill-opacity="0.0" stroke="black"/><circle cx="517.8181546775514" cy="821.7991881220678" r="25" fill-opacity="0.0" stroke="black"/><circle cx="241.68439218425584" cy="165.45720582391402" r="25" fill-opacity="0.0" stroke="black"/><circle cx="1233.7354059545837" cy="63.79426774748458" r="25" fill-opacity="0.0" stroke="black"/><circle cx="657.6759746713878" cy="374.62489290200233" r="25" fill-opacity="0.0" stroke="black"/><circle cx="876.8535701327879" cy="484.34795908832655" r="25" fill-opacity="0.0" stroke="black"/><circle cx="358.83978427209667" cy="188.16436562377731" r="25" fill-opacity="0.0" stroke="black"/><circle cx="69.11330949446133" cy="298.94270038436593" r="25" fill-opacity="0.0" stroke="black"/><circle cx="123.47725412882478" cy="112.03248462226657" r="25" fill-opacity="0.0" stroke="black"/><circle cx="1180.2778091463858" cy="581.8961963768346" r="25" fill-opacity="0.0" stroke="black"/><circle cx="339.51465063450706" cy="911.6143077542384" r="25" fill-opacity="0.0" stroke="black"/><circle cx="162.24468884808638" cy="757.419705009639" r="25" fill-opacity="0.0" stroke="black"/><circle cx="50.14972394479527" cy="847.1840242230022" r="25" fill-opacity="0.0" stroke="black"/><circle cx="57.496787927424066" cy="219.79059095775267" r="25" fill-opacity="0.0" stroke="black"/><circle cx="1071.470122623773" cy="62.69884237386601" r="25" fill-opacity="0.0" stroke="black"/><circle cx="1011.8416654140419" cy="442.4597865272248" r="25" fill-opacity="0.0" stroke="black"/><circle cx="578.4347651649368" cy="580.1407470952628" r="25" fill-opacity="0.0" stroke="black"/><circle cx="771.5379017543959" cy="457.8506741882712" r="25" fill-opacity="0.0" stroke="black"/><circle cx="1421.7091510148036" cy="746.7839288047222" r="25" fill-opacity="0.0" stroke="black"/><circle cx="480.36473004691413" cy="663.7313522892504" r="25" fill-opacity="0.0" stroke="black"/><circle cx="658.3937754347023" cy="582.7013479387249" r="25" fill-opacity="0.0" stroke="black"/><circle cx="668.3993735002801" cy="251.58965435540767" r="25" fill-opacity="0.0" stroke="black"/><circle cx="82.30164206874564" cy="754.4015480163498" r="25" fill-opacity="0.0" stroke="black"/><circle cx="1104.9083026616966" cy="430.3232190308479" r="25" fill-opacity="0.0" stroke="black"/><circle cx="477.50266104624325" cy="199.30942348498758" r="25" fill-opacity="0.0" stroke="black"/><circle cx="1188.167565539793" cy="316.4680178270066" r="25" fill-opacity="0.0" stroke="black"/><circle cx="1146.5468935911656" cy="90.32995637800424" r="25" fill-opacity="0.0" stroke="black"/><circle cx="337.58582327670564" cy="377.13931588802797" r="25" fill-opacity="0.0" stroke="black"/><circle cx="734.8013103333938" cy="606.4055376676579" r="25" fill-opacity="0.0" stroke="black"/><circle cx="484.86000891429387" cy="583.8577492159916" r="25" fill-opacity="0.0" stroke="black"/><circle cx="842.6510599841284" cy="621.76276672515" r="25" fill-opacity="0.0" stroke="black"/><circle cx="1435.8446615576736" cy="896.1654107660155" r="25" fill-opacity="0.0" stroke="black"/><circle cx="999.775370581464" cy="791.9264930179212" r="25" fill-opacity="0.0" stroke="black"/><circle cx="1013.7618670750776" cy="118.10423237814692" r="25" fill-opacity="0.0" stroke="black"/><circle cx="834.4829567369612" cy="927.9628158273342" r="25" fill-opacity="0.0" stroke="black"/><circle cx="257.4241643417374" cy="72.3456162617592" r="25" fill-opacity="0.0" stroke="black"/><circle cx="1424.9116198803079" cy="323.7934871831739" r="25" fill-opacity="0.0" stroke="black"/><circle cx="1210.9039201267306" cy="894.9982444294943" r="25" fill-opacity="0.0" stroke="black"/><circle cx="867.1065064439272" cy="762.8152403749988" r="25" fill-opacity="0.0" stroke="black"/><circle cx="282.3296964821097" cy="234.36264275406396" r="25" fill-opacity="0.0" stroke="black"/><circle cx="557.9235640332414" cy="436.686019888989" r="25" fill-opacity="0.0" stroke="black"/><circle cx="1336.2761370726857" cy="285.3060574258769" r="25" fill-opacity="0.0" stroke="black"/><circle cx="254.01931624480602" cy="796.1084094073348" r="25" fill-opacity="0.0" stroke="black"/><circle cx="490.44345708430217" cy="332.90216077500946" r="25" fill-opacity="0.0" stroke="black"/><circle cx="527.3176109825098" cy="261.9071132414575" r="25" fill-opacity="0.0" stroke="black"/><circle cx="48.965836365632654" cy="376.364140092777" r="25" fill-opacity="0.0" stroke="black"/><circle cx="828.5321583640572" cy="211.39477984017006" r="25" fill-opacity="0.0" stroke="black"/><circle cx="623.7102559392192" cy="510.6107557965705" r="25" fill-opacity="0.0" stroke="black"/><circle cx="1274.2825286564166" cy="624.7323892490448" r="25" fill-opacity="0.0" stroke="black"/><circle cx="1149.3645057572521" cy="655.6821548890839" r="25" fill-opacity="0.0" stroke="black"/><circle cx="1320.6899934012047" cy="689.8963917040909" r="25" fill-opacity="0.0" stroke="black"/><circle cx="477.22264559522495" cy="438.3947631707291" r="25" fill-opacity="0.0" stroke="black"/><circle cx="999.2881506342665" cy="679.7186011106619" r="25" fill-opacity="0.0" stroke="black"/><circle cx="268.49483399071823" cy="874.7878818635465" r="25" fill-opacity="0.0" stroke="black"/><circle cx="899.200457725204" cy="565.175085953434" r="25" fill-opacity="0.0" stroke="black"/><circle cx="1355.197831374662" cy="363.0361641075389" r="25" fill-opacity="0.0" stroke="black"/><circle cx="191.52176894085918" cy="646.200180815979" r="25" fill-opacity="0.0" stroke="black"/><circle cx="1115.5829781321452" cy="509.6078411438441" r="25" fill-opacity="0.0" stroke="black"/><circle cx="1138.1510260581308" cy="861.7263883850367" r="25" fill-opacity="0.0" stroke="black"/><circle cx="754.1668579768798" cy="240.88718730929472" r="25" fill-opacity="0.0" stroke="black"/><circle cx="1078.2794522034017" cy="692.3824976837531" r="25" fill-opacity="0.0" stroke="black"/><circle cx="472.721301730898" cy="54.70070828351673" r="25" fill-opacity="0.0" stroke="black"/><circle cx="376.2626361382956" cy="520.2005603004666" r="25" fill-opacity="0.0" stroke="black"/><circle cx="354.8834796440888" cy="268.066478572625" r="25" fill-opacity="0.0" stroke="black"/><circle cx="917.6886703752651" cy="45.32170258427156" r="25" fill-opacity="0.0" stroke="black"/><circle cx="954.2085073432131" cy="258.660837179198" r="25" fill-opacity="0.0" stroke="black"/><circle cx="961.9193414415831" cy="179.03331029616953" r="25" fill-opacity="0.0" stroke="black"/><circle cx="722.2067350875384" cy="115.37943678523796" r="25" fill-opacity="0.0" stroke="black"/><circle cx="334.5311792364929" cy="661.5193943477241" r="25" fill-opacity="0.0" stroke="black"/><circle cx="114.00089328476695" cy="665.9616037787287" r="25" fill-opacity="0.0" stroke="black"/><circle cx="810.4595692616023" cy="528.9779562686649" r="25" fill-opacity="0.0" stroke="black"/><circle cx="1359.0534597367134" cy="180.1194900996428" r="25" fill-opacity="0.0" stroke="black"/><circle cx="1089.332576970261" cy="175.5435081557583" r="25" fill-opacity="0.0" stroke="black"/><circle cx="650.1318695896198" cy="80.66324800454163" r="25" fill-opacity="0.0" stroke="black"/><circle cx="1439.840029728575" cy="668.8655661610776" r="25" fill-opacity="0.0" stroke="black"/><circle cx="406.9491078610335" cy="695.5141529691784" r="25" fill-opacity="0.0" stroke="black"/><circle cx="719.6193076715833" cy="313.043037854507" r="25" fill-opacity="0.0" stroke="black"/><circle cx="875.7061027002208" cy="113.42063070660195" r="25" fill-opacity="0.0" stroke="black"/><circle cx="148.6879710302545" cy="578.6334304386412" r="25" fill-opacity="0.0" stroke="black"/><circle cx="1295.4678894223057" cy="131.57183054955206" r="25" fill-opacity="0.0" stroke="black"/><circle cx="166.99699725681373" cy="419.65074222579676" r="25" fill-opacity="0.0" stroke="black"/><circle cx="1007.2724462413875" cy="600.1180293560689" r="25" fill-opacity="0.0" stroke="black"/><circle cx="1168.201294577348" cy="205.88714908139463" r="25" fill-opacity="0.0" stroke="black"/><circle cx="1182.976425030632" cy="412.8484294816456" r="25" fill-opacity="0.0" stroke="black"/><circle cx="988.4551288723192" cy="884.6137226029625" r="25" fill-opacity="0.0" stroke="black"/><circle cx="1077.9145612493821" cy="809.0807018823003" r="25" fill-opacity="0.0" stroke="black"/><circle cx="62.75369443849681" cy="59.94938469018516" r="25" fill-opacity="0.0" stroke="black"/><circle cx="1216.1286567672707" cy="141.83273507645677" r="25" fill-opacity="0.0" stroke="black"/><circle cx="925.5927505363857" cy="648.5900289555939" r="25" fill-opacity="0.0" stroke="black"/><circle cx="1401.1274113960123" cy="824.0910565114498" r="25" fill-opacity="0.0" stroke="black"/><circle cx="524.0057673393968" cy="949.2656254183066" r="25" fill-opacity="0.0" stroke="black"/><circle cx="384.95888738754485" cy="47.86301353756423" r="25" fill-opacity="0.0" stroke="black"/><circle cx="787.4256289228483" cy="769.9537106222459" r="25" fill-opacity="0.0" stroke="black"/><circle cx="692.3135430184011" cy="446.7375745814822" r="25" fill-opacity="0.0" stroke="black"/><circle cx="1254.4540439515702" cy="271.67847909567996" r="25" fill-opacity="0.0" stroke="black"/><circle cx="407.4592370350296" cy="124.63367372582192" r="25" fill-opacity="0.0" stroke="black"/><circle cx="618.3497029413803" cy="792.7943284350558" r="25" fill-opacity="0.0" stroke="black"/><circle cx="509.24540787626705" cy="125.8764743157964" r="25" fill-opacity="0.0" stroke="black"/><circle cx="230.66811399332147" cy="715.9681080392638" r="25" fill-opacity="0.0" stroke="black"/><circle cx="57.56810366688983" cy="535.2784012230403" r="25" fill-opacity="0.0" stroke="black"/><circle cx="134.24434169404918" cy="832.3595512815216" r="25" fill-opacity="0.0" stroke="black"/><circle cx="307.8687852922888" cy="736.9456281736555" r="25" fill-opacity="0.0" stroke="black"/><circle cx="1349.189716161866" cy="521.9992165289942" r="25" fill-opacity="0.0" stroke="black"/><circle cx="929.2421098756138" cy="423.88771674995706" r="25" fill-opacity="0.0" stroke="black"/><circle cx="1349.4881593789032" cy="885.192510267588" r="25" fill-opacity="0.0" stroke="black"/><circle cx="1360.7703436660718" cy="442.84184753147866" r="25" fill-opacity="0.0" stroke="black"/><circle cx="846.2531054677588" cy="375.8167893372816" r="25" fill-opacity="0.0" stroke="black"/><circle cx="552.6725579413705" cy="57.49295296609175" r="25" fill-opacity="0.0" stroke="black"/><circle cx="894.7755716882725" cy="312.21199178333046" r="25" fill-opacity="0.0" stroke="black"/><circle cx="61.50503957344449" cy="455.37533159697597" r="25" fill-opacity="0.0" stroke="black"/><circle cx="397.3571453036876" cy="443.0317733262553" r="25" fill-opacity="0.0" stroke="black"/><circle cx="1034.2986439650606" cy="307.9866895924889" r="25" fill-opacity="0.0" stroke="black"/><circle cx="1063.8697824242495" cy="911.3088538002863" r="25" fill-opacity="0.0" stroke="black"/><circle cx="1432.6938260082234" cy="407.81310664947995" r="25" fill-opacity="0.0" stroke="black"/><circle cx="693.3314306667262" cy="684.574839530115" r="25" fill-opacity="0.0" stroke="black"/><circle cx="911.9655465462212" cy="908.0518069013663" r="25" fill-opacity="0.0" stroke="black"/><circle cx="560.1610070009352" cy="658.0257248673826" r="25" fill-opacity="0.0" stroke="black"/><circle cx="1308.4226570407222" cy="953.8483513716984" r="25" fill-opacity="0.0" stroke="black"/><circle cx="741.8991010437469" cy="923.1009915448662" r="25" fill-opacity="0.0" stroke="black"/><circle cx="459.2018233168316" cy="902.3566834229872" r="25" fill-opacity="0.0" stroke="black"/><circle cx="803.6618477385683" cy="691.6186278140426" r="25" fill-opacity="0.0" stroke="black"/><circle cx="848.7501068229353" cy="849.2452928199104" r="25" fill-opacity="0.0" stroke="black"/><circle cx="1243.942593814121" cy="712.4759545125358" r="25" fill-opacity="0.0" stroke="black"/><circle cx="317.2577883249074" cy="454.5135428308445" r="25" fill-opacity="0.0" stroke="black"/><circle cx="768.7641442072926" cy="847.7466986623713" r="25" fill-opacity="0.0" stroke="black"/><circle cx="1446.1955463574316" cy="59.87281255159953" r="25" fill-opacity="0.0" stroke="black"/><circle cx="241.17361248170337" cy="479.23596557337555" r="25" fill-opacity="0.0" stroke="black"/><circle cx="324.5326321141575" cy="115.89390616203036" r="25" fill-opacity="0.0" stroke="black"/><circle cx="534.6088067452151" cy="513.2132836098383" r="25" fill-opacity="0.0" stroke="black"/><circle cx="1157.8358914806242" cy="954.8629613804334" r="25" fill-opacity="0.0" stroke="black"/><circle cx="571.005784803302" cy="176.72581887234466" r="25" fill-opacity="0.0" stroke="black"/><circle cx="190.1434828354523" cy="340.4778095166888" r="25" fill-opacity="0.0" stroke="black"/><circle cx="956.8832143313116" cy="500.59384414053045" r="25" fill-opacity="0.0" stroke="black"/><circle cx="1378.5121625584616" cy="102.52207464980394" r="25" fill-opacity="0.0" stroke="black"/></svg>