<?xml version="1.0" encoding="utf-8"?>
<!-- Generator: Adobe Illustrator 26.1.0, SVG Export Plug-In . SVG Version: 6.00 Build 0)  -->
<svg version="1.1" id="Layer_1" xmlns="http://www.w3.org/2000/svg" xmlns:xlink="http://www.w3.org/1999/xlink" x="0px" y="0px"
	 viewBox="0 0 566.9 1700.8" style="enable-background:new 0 0 566.9 1700.8;" xml:space="preserve">
<style type="text/css">
	.st0{fill:#FFFFFF;stroke:#010101;stroke-miterlimit:10;}
</style>
<circle class="st0" cx="158.4" cy="1620.2" r="70.9"/>
<circle class="st0" cx="324.9" cy="1620.2" r="70.9"/>
<ellipse transform="matrix(0.7071 -0.7071 0.7071 0.7071 -1001.7437 821.9987)" class="st0" cx="491.4" cy="1620.2" rx="70.9" ry="70.9"/>
<circle class="st0" cx="76.4" cy="1498.2" r="70.9"/>
<circle class="st0" cx="242.9" cy="1498.2" r="70.9"/>
<ellipse transform="matrix(0.7071 -0.7071 0.7071 0.7071 -939.494 728.2829)" class="st0" cx="409.4" cy="1498.2" rx="70.9" ry="70.9"/>
<circle class="st0" cx="158.4" cy="1376.2" r="70.9"/>
<circle class="st0" cx="324.9" cy="1376.2" r="70.9"/>
<ellipse transform="matrix(0.7071 -0.7071 0.7071 0.7071 -829.2097 750.5327)" class="st0" cx="491.4" cy="1376.2" rx="70.9" ry="70.9"/>
<circle class="st0" cx="76.4" cy="1254.2" r="70.9"/>
<circle class="st0" cx="242.9" cy="1254.2" r="70.9"/>
<ellipse transform="matrix(0.7071 -0.7071 0.7071 0.7071 -766.9599 656.817)" class="st0" cx="409.4" cy="1254.2" rx="70.9" ry="70.9"/>
<circle class="st0" cx="158.4" cy="1132.4" r="70.9"/>
<circle class="st0" cx="324.9" cy="1132.4" r="70.9"/>
<ellipse transform="matrix(0.7071 -0.7071 0.7071 0.7071 -656.7982 679.1176)" class="st0" cx="491.4" cy="1132.4" rx="70.9" ry="70.9"/>
<circle class="st0" cx="76.4" cy="1010.4" r="70.9"/>
<circle class="st0" cx="242.9" cy="1010.4" r="70.9"/>
<ellipse transform="matrix(0.7071 -0.7071 0.7071 0.7071 -594.5485 585.4018)" class="st0" cx="409.4" cy="1010.4" rx="70.9" ry="70.9"/>
<circle class="st0" cx="158.4" cy="888.4" r="70.9"/>
<circle class="st0" cx="324.9" cy="888.4" r="70.9"/>
<ellipse transform="matrix(0.7071 -0.7071 0.7071 0.7071 -484.2642 607.6516)" class="st0" cx="491.4" cy="888.4" rx="70.9" ry="70.9"/>
<circle class="st0" cx="76.4" cy="766.4" r="70.9"/>
<circle class="st0" cx="242.9" cy="766.4" r="70.9"/>
<ellipse transform="matrix(0.7071 -0.7071 0.7071 0.7071 -422.0144 513.9359)" class="st0" cx="409.4" cy="766.4" rx="70.9" ry="70.9"/>
<circle class="st0" cx="158.4" cy="642.9" r="70.9"/>
<circle class="st0" cx="324.9" cy="642.9" r="70.9"/>
<ellipse transform="matrix(0.7071 -0.7071 0.7071 0.7071 -310.6893 535.7546)" class="st0" cx="491.4" cy="642.9" rx="70.9" ry="70.9"/>
<circle class="st0" cx="76.4" cy="520.9" r="70.9"/>
<circle class="st0" cx="242.9" cy="520.9" r="70.9"/>
<ellipse transform="matrix(0.7071 -0.7071 0.7071 0.7071 -248.4396 442.0388)" class="st0" cx="409.4" cy="520.9" rx="70.9" ry="70.9"/>
<circle class="st0" cx="158.4" cy="398.9" r="70.9"/>
<circle class="st0" cx="324.9" cy="398.9" r="70.9"/>
<ellipse transform="matrix(0.7071 -0.7071 0.7071 0.7071 -138.1553 464.2886)" class="st0" cx="491.4" cy="398.9" rx="70.9" ry="70.9"/>
<circle class="st0" cx="76.4" cy="276.9" r="70.9"/>
<circle class="st0" cx="242.9" cy="276.9" r="70.9"/>
<ellipse transform="matrix(0.7071 -0.7071 0.7071 0.7071 -75.9055 370.5729)" class="st0" cx="409.4" cy="276.9" rx="70.9" ry="70.9"/>
</svg>
