<?xml version="1.0" encoding="utf-8"?>
<!-- Generator: Adobe Illustrator 26.1.0, SVG Export Plug-In . SVG Version: 6.00 Build 0)  -->
<svg version="1.1" id="Layer_1" xmlns="http://www.w3.org/2000/svg" xmlns:xlink="http://www.w3.org/1999/xlink" x="0px" y="0px"
	 viewBox="0 0 850.4 1417.3" style="enable-background:new 0 0 850.4 1417.3;" xml:space="preserve">
<style type="text/css">
	.st0{fill:#FFFFFF;stroke:#000000;stroke-miterlimit:10;}
</style>
<circle class="st0" cx="93" cy="86.7" r="70.9"/>
<circle class="st0" cx="259.5" cy="88.7" r="70.9"/>
<circle class="st0" cx="426" cy="88.7" r="70.9"/>
<circle class="st0" cx="592.5" cy="88.7" r="70.9"/>
<circle class="st0" cx="759" cy="91" r="70.9"/>
<circle class="st0" cx="175.5" cy="210.7" r="70.9"/>
<circle class="st0" cx="342" cy="210.7" r="70.9"/>
<circle class="st0" cx="508.5" cy="210.7" r="70.9"/>
<circle class="st0" cx="675" cy="213" r="70.9"/>
<circle class="st0" cx="93" cy="331.9" r="70.9"/>
<circle class="st0" cx="259.5" cy="334" r="70.9"/>
<circle class="st0" cx="426" cy="334" r="70.9"/>
<circle class="st0" cx="592.5" cy="334" r="70.9"/>
<circle class="st0" cx="759" cy="336.3" r="70.9"/>
<circle class="st0" cx="175.5" cy="456" r="70.9"/>
<circle class="st0" cx="342" cy="456" r="70.9"/>
<circle class="st0" cx="508.5" cy="456" r="70.9"/>
<circle class="st0" cx="675" cy="458.3" r="70.9"/>
<circle class="st0" cx="93" cy="579.3" r="70.9"/>
<circle class="st0" cx="259.5" cy="581.3" r="70.9"/>
<circle class="st0" cx="426" cy="581.3" r="70.9"/>
<circle class="st0" cx="592.5" cy="581.3" r="70.9"/>
<circle class="st0" cx="759" cy="583.6" r="70.9"/>
<circle class="st0" cx="175.5" cy="703.3" r="70.9"/>
<circle class="st0" cx="342" cy="703.3" r="70.9"/>
<circle class="st0" cx="508.5" cy="703.3" r="70.9"/>
<circle class="st0" cx="675" cy="705.6" r="70.9"/>
<circle class="st0" cx="93" cy="824.3" r="70.9"/>
<circle class="st0" cx="259.5" cy="826.3" r="70.9"/>
<circle class="st0" cx="426" cy="826.3" r="70.9"/>
<circle class="st0" cx="592.5" cy="826.3" r="70.9"/>
<circle class="st0" cx="759" cy="828.6" r="70.9"/>
<circle class="st0" cx="175.5" cy="948.3" r="70.9"/>
<circle class="st0" cx="342" cy="948.3" r="70.9"/>
<circle class="st0" cx="508.5" cy="948.3" r="70.9"/>
<circle class="st0" cx="675" cy="950.6" r="70.9"/>
</svg>
