<?xml version="1.0" encoding="utf-8"?>
<!-- Generator: Adobe Illustrator 26.1.0, SVG Export Plug-In . SVG Version: 6.00 Build 0)  -->
<svg version="1.1" id="Layer_1" xmlns="http://www.w3.org/2000/svg" xmlns:xlink="http://www.w3.org/1999/xlink" x="0px" y="0px"
	 viewBox="0 0 566.9 1700.8" style="enable-background:new 0 0 566.9 1700.8;" xml:space="preserve">
<style type="text/css">
	.st0{fill:#FFFFFF;stroke:#010101;stroke-miterlimit:10;}
</style>
<circle class="st0" cx="100.4" cy="1620.2" r="70.9"/>
<circle class="st0" cx="285.9" cy="1620.2" r="70.9"/>
<ellipse transform="matrix(0.7071 -0.7071 0.7071 0.7071 -1007.6016 807.8565)" class="st0" cx="471.4" cy="1620.2" rx="70.9" ry="70.9"/>
<circle class="st0" cx="194.4" cy="1504.2" r="70.9"/>
<circle class="st0" cx="379.9" cy="1504.2" r="70.9"/>
<circle class="st0" cx="100.4" cy="1386.2" r="70.9"/>
<circle class="st0" cx="285.9" cy="1386.2" r="70.9"/>
<ellipse transform="matrix(0.7071 -0.7071 0.7071 0.7071 -842.1386 739.3195)" class="st0" cx="471.4" cy="1386.2" rx="70.9" ry="70.9"/>
<circle class="st0" cx="194.4" cy="1270.2" r="70.9"/>
<circle class="st0" cx="379.9" cy="1270.2" r="70.9"/>
<circle class="st0" cx="100.4" cy="1150.2" r="70.9"/>
<circle class="st0" cx="285.9" cy="1150.2" r="70.9"/>
<ellipse transform="matrix(0.7071 -0.7071 0.7071 0.7071 -675.2614 670.1967)" class="st0" cx="471.4" cy="1150.2" rx="70.9" ry="70.9"/>
<circle class="st0" cx="194.4" cy="1034.2" r="70.9"/>
<circle class="st0" cx="379.9" cy="1034.2" r="70.9"/>
<circle class="st0" cx="100.4" cy="916.2" r="70.9"/>
<circle class="st0" cx="285.9" cy="916.2" r="70.9"/>
<ellipse transform="matrix(0.7071 -0.7071 0.7071 0.7071 -509.7984 601.6597)" class="st0" cx="471.4" cy="916.2" rx="70.9" ry="70.9"/>
<circle class="st0" cx="194.4" cy="800.2" r="70.9"/>
<circle class="st0" cx="379.9" cy="800.2" r="70.9"/>
<circle class="st0" cx="100.4" cy="678.1" r="70.9"/>
<circle class="st0" cx="285.9" cy="678.1" r="70.9"/>
<ellipse transform="matrix(0.7071 -0.7071 0.7071 0.7071 -341.4018 531.9075)" class="st0" cx="471.4" cy="678.1" rx="70.9" ry="70.9"/>
<circle class="st0" cx="194.4" cy="562.1" r="70.9"/>
<circle class="st0" cx="379.9" cy="562.1" r="70.9"/>
<circle class="st0" cx="100.4" cy="444.1" r="70.9"/>
<circle class="st0" cx="285.9" cy="444.1" r="70.9"/>
<ellipse transform="matrix(0.7071 -0.7071 0.7071 0.7071 -175.9388 463.3705)" class="st0" cx="471.4" cy="444.1" rx="70.9" ry="70.9"/>
<circle class="st0" cx="194.4" cy="328.1" r="70.9"/>
<circle class="st0" cx="379.9" cy="328.1" r="70.9"/>
<circle class="st0" cx="100.4" cy="208.1" r="70.9"/>
<circle class="st0" cx="285.9" cy="208.1" r="70.9"/>
<ellipse transform="matrix(0.7071 -0.7071 0.7071 0.7071 -9.0616 394.2477)" class="st0" cx="471.4" cy="208.1" rx="70.9" ry="70.9"/>
</svg>
