<?xml version="1.0" encoding="utf-8"?>
<!-- Generator: Adobe Illustrator 26.2.1, SVG Export Plug-In . SVG Version: 6.00 Build 0)  -->
<svg version="1.1" id="Layer_1" xmlns="http://www.w3.org/2000/svg" xmlns:xlink="http://www.w3.org/1999/xlink" x="0px" y="0px"
	 viewBox="0 0 793.7 2834.6" style="enable-background:new 0 0 793.7 2834.6;" xml:space="preserve">
<style type="text/css">
	.st0{fill:#FFFFFF;stroke:#010101;stroke-miterlimit:10;}
	.st1{fill:#FFFFFF;stroke:#010101;stroke-width:1;stroke-miterlimit:9.9999;}
</style>
<g>
	<circle class="st0" cx="74.7" cy="2758.6" r="70.9"/>
	<circle class="st0" cx="235.6" cy="2758.6" r="70.9"/>
	
		<ellipse transform="matrix(0.7071 -0.7071 0.7071 0.7071 -1834.458 1088.3484)" class="st1" cx="396.5" cy="2758.6" rx="70.9" ry="70.9"/>
	
		<ellipse transform="matrix(0.7071 -0.7071 0.7071 0.7071 -1787.3246 1202.1383)" class="st1" cx="557.4" cy="2758.6" rx="70.9" ry="70.9"/>
	
		<ellipse transform="matrix(0.7071 -0.7071 0.7071 0.7071 -1740.1913 1315.9282)" class="st1" cx="718.4" cy="2758.6" rx="70.9" ry="70.9"/>
</g>
<g>
	<circle class="st0" cx="155.5" cy="2636.7" r="70.9"/>
	<circle class="st0" cx="316.3" cy="2636.7" r="70.9"/>
	<circle class="st0" cx="477.1" cy="2636.7" r="70.9"/>
	<circle class="st0" cx="637.9" cy="2636.7" r="70.9"/>
</g>
<g>
	<circle class="st0" cx="74.7" cy="2514.8" r="70.9"/>
	<circle class="st0" cx="235.6" cy="2514.8" r="70.9"/>
	
		<ellipse transform="matrix(0.7071 -0.7071 0.7071 0.7071 -1662.0897 1016.951)" class="st1" cx="396.5" cy="2514.8" rx="70.9" ry="70.9"/>
	
		<ellipse transform="matrix(0.7071 -0.7071 0.7071 0.7071 -1614.9564 1130.7411)" class="st1" cx="557.4" cy="2514.8" rx="70.9" ry="70.9"/>
	
		<ellipse transform="matrix(0.7071 -0.7071 0.7071 0.7071 -1567.823 1244.531)" class="st1" cx="718.4" cy="2514.8" rx="70.9" ry="70.9"/>
</g>
<g>
	<circle class="st0" cx="155.5" cy="2392.9" r="70.9"/>
	<circle class="st0" cx="316.3" cy="2392.9" r="70.9"/>
	<circle class="st0" cx="477.1" cy="2392.9" r="70.9"/>
	<circle class="st0" cx="637.9" cy="2392.9" r="70.9"/>
</g>
<g>
	<circle class="st0" cx="74.7" cy="2271.1" r="70.9"/>
	<circle class="st0" cx="235.6" cy="2271.1" r="70.9"/>
	
		<ellipse transform="matrix(0.7071 -0.7071 0.7071 0.7071 -1489.7214 945.5538)" class="st1" cx="396.5" cy="2271" rx="70.9" ry="70.9"/>
	
		<ellipse transform="matrix(0.7071 -0.7071 0.7071 0.7071 -1442.5881 1059.3438)" class="st1" cx="557.4" cy="2271" rx="70.9" ry="70.9"/>
	
		<ellipse transform="matrix(0.7071 -0.7071 0.7071 0.7071 -1395.4547 1173.1337)" class="st1" cx="718.4" cy="2271" rx="70.9" ry="70.9"/>
</g>
<g>
	<circle class="st0" cx="155.5" cy="2149.2" r="70.9"/>
	<circle class="st0" cx="316.3" cy="2149.2" r="70.9"/>
	<circle class="st0" cx="477.1" cy="2149.2" r="70.9"/>
	<circle class="st0" cx="637.9" cy="2149.2" r="70.9"/>
</g>
<g>
	<circle class="st0" cx="74.7" cy="2027.3" r="70.9"/>
	<circle class="st0" cx="235.6" cy="2027.3" r="70.9"/>
	
		<ellipse transform="matrix(0.7071 -0.7071 0.7071 0.7071 -1317.3531 874.1566)" class="st1" cx="396.5" cy="2027.3" rx="70.9" ry="70.9"/>
	
		<ellipse transform="matrix(0.7071 -0.7071 0.7071 0.7071 -1270.2198 987.9465)" class="st1" cx="557.4" cy="2027.3" rx="70.9" ry="70.9"/>
	
		<ellipse transform="matrix(0.7071 -0.7071 0.7071 0.7071 -1223.0865 1101.7365)" class="st1" cx="718.4" cy="2027.3" rx="70.9" ry="70.9"/>
</g>
<g>
	<circle class="st0" cx="155.5" cy="1905.4" r="70.9"/>
	<circle class="st0" cx="316.3" cy="1905.4" r="70.9"/>
	<circle class="st0" cx="477.1" cy="1905.4" r="70.9"/>
	<circle class="st0" cx="637.9" cy="1905.4" r="70.9"/>
</g>
<g>
	<circle class="st0" cx="74.7" cy="1783.5" r="70.9"/>
	<circle class="st0" cx="235.6" cy="1783.5" r="70.9"/>
	
		<ellipse transform="matrix(0.7071 -0.7071 0.7071 0.7071 -1144.9849 802.7593)" class="st1" cx="396.5" cy="1783.5" rx="70.9" ry="70.9"/>
	
		<ellipse transform="matrix(0.7071 -0.7071 0.7071 0.7071 -1097.8516 916.5492)" class="st1" cx="557.4" cy="1783.5" rx="70.9" ry="70.9"/>
	
		<ellipse transform="matrix(0.7071 -0.7071 0.7071 0.7071 -1050.7183 1030.3391)" class="st1" cx="718.4" cy="1783.5" rx="70.9" ry="70.9"/>
</g>
<g>
	<circle class="st0" cx="155.5" cy="1661.6" r="70.9"/>
	<circle class="st0" cx="316.3" cy="1661.6" r="70.9"/>
	<circle class="st0" cx="477.1" cy="1661.6" r="70.9"/>
	<circle class="st0" cx="637.9" cy="1661.6" r="70.9"/>
</g>
<g>
	<circle class="st0" cx="74.7" cy="1539.8" r="70.9"/>
	<circle class="st0" cx="235.6" cy="1539.8" r="70.9"/>
	
		<ellipse transform="matrix(0.7071 -0.7071 0.7071 0.7071 -972.6166 731.362)" class="st1" cx="396.5" cy="1539.7" rx="70.9" ry="70.9"/>
	
		<ellipse transform="matrix(0.7071 -0.7071 0.7071 0.7071 -925.4833 845.1519)" class="st1" cx="557.4" cy="1539.7" rx="70.9" ry="70.9"/>
	
		<ellipse transform="matrix(0.7071 -0.7071 0.7071 0.7071 -878.35 958.9419)" class="st1" cx="718.4" cy="1539.7" rx="70.9" ry="70.9"/>
</g>
<g>
	<circle class="st0" cx="155.5" cy="1417.9" r="70.9"/>
	<circle class="st0" cx="316.3" cy="1417.9" r="70.9"/>
	<circle class="st0" cx="477.1" cy="1417.9" r="70.9"/>
	<circle class="st0" cx="637.9" cy="1417.9" r="70.9"/>
</g>
<g>
	<circle class="st0" cx="74.7" cy="1296" r="70.9"/>
	<circle class="st0" cx="235.6" cy="1296" r="70.9"/>
	
		<ellipse transform="matrix(0.7071 -0.7071 0.7071 0.7071 -800.2484 659.9647)" class="st1" cx="396.5" cy="1296" rx="70.9" ry="70.9"/>
	
		<ellipse transform="matrix(0.7071 -0.7071 0.7071 0.7071 -753.1151 773.7546)" class="st1" cx="557.4" cy="1296" rx="70.9" ry="70.9"/>
	
		<ellipse transform="matrix(0.7071 -0.7071 0.7071 0.7071 -705.9817 887.5446)" class="st1" cx="718.4" cy="1296" rx="70.9" ry="70.9"/>
</g>
<g>
	<circle class="st0" cx="155.5" cy="1174.1" r="70.9"/>
	<circle class="st0" cx="316.3" cy="1174.1" r="70.9"/>
	<circle class="st0" cx="477.1" cy="1174.1" r="70.9"/>
	<circle class="st0" cx="637.9" cy="1174.1" r="70.9"/>
</g>
<g>
	<circle class="st0" cx="74.7" cy="1052.2" r="70.9"/>
	<circle class="st0" cx="235.6" cy="1052.2" r="70.9"/>
	
		<ellipse transform="matrix(0.7071 -0.7071 0.7071 0.7071 -627.8801 588.5674)" class="st1" cx="396.5" cy="1052.2" rx="70.9" ry="70.9"/>
	
		<ellipse transform="matrix(0.7071 -0.7071 0.7071 0.7071 -580.7468 702.3574)" class="st1" cx="557.4" cy="1052.2" rx="70.9" ry="70.9"/>
	
		<ellipse transform="matrix(0.7071 -0.7071 0.7071 0.7071 -533.6134 816.1473)" class="st1" cx="718.4" cy="1052.2" rx="70.9" ry="70.9"/>
</g>
<g>
	<circle class="st0" cx="155.5" cy="930.3" r="70.9"/>
	<circle class="st0" cx="316.3" cy="930.3" r="70.9"/>
	<circle class="st0" cx="477.1" cy="930.3" r="70.9"/>
	<circle class="st0" cx="637.9" cy="930.3" r="70.9"/>
</g>
<g>
	<circle class="st0" cx="74.7" cy="808.5" r="70.9"/>
	<circle class="st0" cx="235.6" cy="808.5" r="70.9"/>
	
		<ellipse transform="matrix(0.7071 -0.7071 0.7071 0.7071 -455.5118 517.1702)" class="st1" cx="396.5" cy="808.4" rx="70.9" ry="70.9"/>
	
		<ellipse transform="matrix(0.7071 -0.7071 0.7071 0.7071 -408.3785 630.9601)" class="st1" cx="557.4" cy="808.4" rx="70.9" ry="70.9"/>
	
		<ellipse transform="matrix(0.7071 -0.7071 0.7071 0.7071 -361.2451 744.7501)" class="st1" cx="718.4" cy="808.4" rx="70.9" ry="70.9"/>
</g>
<g>
	<circle class="st0" cx="155.5" cy="686.6" r="70.9"/>
	<circle class="st0" cx="316.3" cy="686.6" r="70.9"/>
	<circle class="st0" cx="477.1" cy="686.6" r="70.9"/>
	<circle class="st0" cx="637.9" cy="686.6" r="70.9"/>
</g>
<g>
	<circle class="st0" cx="74.7" cy="564.7" r="70.9"/>
	<circle class="st0" cx="235.6" cy="564.7" r="70.9"/>
	
		<ellipse transform="matrix(0.7071 -0.7071 0.7071 0.7071 -283.1436 445.7729)" class="st1" cx="396.5" cy="564.7" rx="70.9" ry="70.9"/>
	
		<ellipse transform="matrix(0.7071 -0.7071 0.7071 0.7071 -236.0102 559.5629)" class="st1" cx="557.4" cy="564.7" rx="70.9" ry="70.9"/>
	
		<ellipse transform="matrix(0.7071 -0.7071 0.7071 0.7071 -188.8769 673.3528)" class="st1" cx="718.4" cy="564.7" rx="70.9" ry="70.9"/>
</g>
<g>
	<circle class="st0" cx="155.5" cy="442.8" r="70.9"/>
	<circle class="st0" cx="316.3" cy="442.8" r="70.9"/>
	<circle class="st0" cx="477.1" cy="442.8" r="70.9"/>
	<circle class="st0" cx="637.9" cy="442.8" r="70.9"/>
</g>
<g>
	<circle class="st0" cx="74.7" cy="320.9" r="70.9"/>
	<circle class="st0" cx="235.6" cy="320.9" r="70.9"/>
	
		<ellipse transform="matrix(0.7071 -0.7071 0.7071 0.7071 -110.7753 374.3756)" class="st1" cx="396.5" cy="320.9" rx="70.9" ry="70.9"/>
	
		<ellipse transform="matrix(0.7071 -0.7071 0.7071 0.7071 -63.642 488.1656)" class="st1" cx="557.4" cy="320.9" rx="70.9" ry="70.9"/>
	
		<ellipse transform="matrix(0.7071 -0.7071 0.7071 0.7071 -16.5086 601.9555)" class="st1" cx="718.4" cy="320.9" rx="70.9" ry="70.9"/>
</g>
<g>
	<circle class="st0" cx="155.5" cy="199" r="70.9"/>
	<circle class="st0" cx="316.3" cy="199" r="70.9"/>
	<circle class="st0" cx="477.1" cy="199" r="70.9"/>
	<circle class="st0" cx="637.9" cy="199" r="70.9"/>
</g>
<g>
	<circle class="st0" cx="74.7" cy="77.2" r="70.9"/>
	<circle class="st0" cx="235.6" cy="77.2" r="70.9"/>
	
		<ellipse transform="matrix(0.7071 -0.7071 0.7071 0.7071 61.593 302.9783)" class="st1" cx="396.5" cy="77.1" rx="70.9" ry="70.9"/>
	
		<ellipse transform="matrix(0.7071 -0.7071 0.7071 0.7071 108.7263 416.7683)" class="st1" cx="557.4" cy="77.1" rx="70.9" ry="70.9"/>
	
		<ellipse transform="matrix(0.7071 -0.7071 0.7071 0.7071 155.8596 530.5582)" class="st1" cx="718.4" cy="77.1" rx="70.9" ry="70.9"/>
</g>
</svg>
