# WaveFront *.obj file (generated by Autodesk ATF)

mtllib kl9-room.mtl

g Body1

v 0.000000 -0.073966 0.053156
v 0.000000 -0.073966 -1.876844
v -0.830000 -0.073966 -1.876844
v -0.830000 -0.073966 0.053156
v 0.000000 2.446034 0.053156
v -0.830000 2.446034 0.053156
v 0.000000 2.446034 -1.876844
v -0.830000 2.446034 -1.876844
v 0.000000 2.476034 0.083156
v 0.000000 2.476034 -1.906844
v -0.830000 2.476034 -1.906844
v -0.830000 2.476034 0.083156
v 0.000000 -0.103966 0.083156
v -0.830000 -0.103966 0.083156
v 0.000000 -0.103966 -1.906844
v -0.830000 -0.103966 -1.906844
vt -0.000000 0.000000 0.000000
vt 193.000000 0.000000 0.000000
vt 0.000000 83.000000 0.000000
vt 193.000000 83.000000 0.000000
vt -0.000000 0.000000 0.000000
vt 252.000000 -0.000000 0.000000
vt 0.000000 83.000000 0.000000
vt 252.000000 83.000000 0.000000
vt 0.000000 0.000000 0.000000
vt 193.000000 0.000000 0.000000
vt 0.000000 83.000000 0.000000
vt 193.000000 83.000000 0.000000
vt 0.000000 0.000000 0.000000
vt 252.000000 0.000000 0.000000
vt 0.000000 83.000000 0.000000
vt 252.000000 83.000000 0.000000
vt 0.000000 0.000000 0.000000
vt 199.000000 0.000000 0.000000
vt 0.000000 83.000000 0.000000
vt 199.000000 83.000000 0.000000
vt 0.000000 0.000000 0.000000
vt 258.000000 0.000000 0.000000
vt -0.000000 83.000000 0.000000
vt 258.000000 83.000000 0.000000
vt 0.000000 0.000000 0.000000
vt 199.000000 0.000000 0.000000
vt 0.000000 83.000000 0.000000
vt 199.000000 83.000000 0.000000
vt 0.000000 0.000000 0.000000
vt 258.000000 0.000000 0.000000
vt 0.000000 83.000000 0.000000
vt 258.000000 83.000000 0.000000
vt 126.000000 96.500000 0.000000
vt 126.000000 -96.500000 0.000000
vt 129.000000 -99.500000 0.000000
vt -126.000000 -96.500000 0.000000
vt -129.000000 -99.500000 0.000000
vt -126.000000 96.500000 0.000000
vt -129.000000 99.500000 0.000000
vt 129.000000 99.500000 0.000000
vt -96.500000 126.000000 0.000000
vt -99.500000 -129.000000 0.000000
vt -96.500000 -126.000000 0.000000
vt 99.500000 -129.000000 0.000000
vt 96.500000 -126.000000 0.000000
vt 96.500000 126.000000 0.000000
vt 99.500000 129.000000 0.000000
vt -99.500000 129.000000 0.000000
vn 0.000000 100.000000 0.000000
vn 0.000000 100.000000 0.000000
vn 0.000000 100.000000 0.000000
vn 0.000000 100.000000 0.000000
vn 0.000000 0.000000 -100.000000
vn 0.000000 0.000000 -100.000000
vn 0.000000 0.000000 -100.000000
vn 0.000000 0.000000 -100.000000
vn 0.000000 -100.000000 0.000000
vn 0.000000 -100.000000 0.000000
vn 0.000000 -100.000000 0.000000
vn 0.000000 -100.000000 0.000000
vn 0.000000 0.000000 100.000000
vn 0.000000 0.000000 100.000000
vn 0.000000 0.000000 100.000000
vn 0.000000 0.000000 100.000000
vn 0.000000 100.000000 0.000000
vn 0.000000 100.000000 0.000000
vn 0.000000 100.000000 0.000000
vn 0.000000 100.000000 0.000000
vn 0.000000 -0.000000 100.000000
vn 0.000000 -0.000000 100.000000
vn 0.000000 -0.000000 100.000000
vn 0.000000 -0.000000 100.000000
vn 0.000000 -100.000000 0.000000
vn 0.000000 -100.000000 0.000000
vn 0.000000 -100.000000 0.000000
vn 0.000000 -100.000000 0.000000
vn 0.000000 0.000000 -100.000000
vn 0.000000 0.000000 -100.000000
vn 0.000000 0.000000 -100.000000
vn 0.000000 0.000000 -100.000000
vn 100.000000 0.000000 0.000000
vn 100.000000 0.000000 0.000000
vn 100.000000 0.000000 0.000000
vn 100.000000 0.000000 0.000000
vn 100.000000 0.000000 0.000000
vn 100.000000 0.000000 0.000000
vn 100.000000 0.000000 0.000000
vn 100.000000 0.000000 0.000000
vn -100.000000 0.000000 0.000000
vn -100.000000 0.000000 0.000000
vn -100.000000 0.000000 0.000000
vn -100.000000 0.000000 0.000000
vn -100.000000 0.000000 0.000000
vn -100.000000 0.000000 0.000000
vn -100.000000 0.000000 0.000000
vn -100.000000 0.000000 0.000000
usemtl Steel_-_Satin
f 1/1/1 2/2/2 4/3/3
f 4/3/3 2/2/2 3/4/4
f 5/5/5 1/6/6 6/7/7
f 6/7/7 1/6/6 4/8/8
f 7/9/9 5/10/10 8/11/11
f 8/11/11 5/10/10 6/12/12
f 2/13/13 7/14/14 3/15/15
f 3/15/15 7/14/14 8/16/16
f 9/17/17 10/18/18 12/19/19
f 12/19/19 10/18/18 11/20/20
f 13/21/21 9/22/22 14/23/23
f 14/23/23 9/22/22 12/24/24
f 15/25/25 13/26/26 16/27/27
f 16/27/27 13/26/26 14/28/28
f 10/29/29 15/30/30 11/31/31
f 11/31/31 15/30/30 16/32/32
f 5/33/33 7/34/34 10/35/35
f 10/35/35 7/34/34 2/36/36
f 10/35/35 2/36/36 15/37/37
f 15/37/37 2/36/36 1/38/38
f 15/37/37 1/38/38 13/39/39
f 13/39/39 1/38/38 5/33/33
f 13/39/39 5/33/33 9/40/40
f 9/40/40 5/33/33 10/35/35
f 8/41/41 16/42/42 3/43/43
f 3/43/43 16/42/42 14/44/44
f 3/43/43 14/44/44 4/45/45
f 4/45/45 14/44/44 6/46/46
f 6/46/46 14/44/44 12/47/47
f 6/46/46 12/47/47 11/48/48
f 16/42/42 8/41/41 11/48/48
f 11/48/48 8/41/41 6/46/46
g Body2

v 0.000000 -0.989945 0.253156
v 0.000000 -0.989945 -2.111844
v 0.010000 -0.989945 -2.111844
v 0.010000 -0.989945 0.253156
v 0.000000 3.362013 0.253156
v 0.010000 3.362013 0.253156
v 0.000000 3.362013 -2.111844
v 0.010000 3.362013 -2.111844
vt -0.000000 0.000000 0.000000
vt 236.500000 0.000000 0.000000
vt 0.000000 1.000000 0.000000
vt 236.500000 1.000000 0.000000
vt -0.000000 0.000000 0.000000
vt 435.195858 0.000000 0.000000
vt -0.000000 1.000000 0.000000
vt 435.195858 1.000000 0.000000
vt 0.000000 0.000000 0.000000
vt 236.500000 0.000000 0.000000
vt 0.000000 1.000000 0.000000
vt 236.500000 1.000000 0.000000
vt 0.000000 0.000000 0.000000
vt 435.195858 0.000000 0.000000
vt 0.000000 1.000000 0.000000
vt 435.195858 1.000000 0.000000
vt 118.250000 217.597929 0.000000
vt -118.250000 217.597929 0.000000
vt 118.250000 -217.597929 0.000000
vt -118.250000 -217.597929 0.000000
vt -217.597929 -118.250000 0.000000
vt 217.597929 -118.250000 0.000000
vt -217.597929 118.250000 0.000000
vt 217.597929 118.250000 0.000000
vn 0.000000 -100.000000 0.000000
vn 0.000000 -100.000000 0.000000
vn 0.000000 -100.000000 0.000000
vn 0.000000 -100.000000 0.000000
vn 0.000000 0.000000 100.000000
vn 0.000000 0.000000 100.000000
vn 0.000000 0.000000 100.000000
vn 0.000000 0.000000 100.000000
vn 0.000000 100.000000 0.000000
vn 0.000000 100.000000 0.000000
vn 0.000000 100.000000 0.000000
vn 0.000000 100.000000 0.000000
vn 0.000000 0.000000 -100.000000
vn 0.000000 0.000000 -100.000000
vn 0.000000 0.000000 -100.000000
vn 0.000000 0.000000 -100.000000
vn 100.000000 0.000000 0.000000
vn 100.000000 0.000000 0.000000
vn 100.000000 0.000000 0.000000
vn 100.000000 0.000000 0.000000
vn -100.000000 0.000000 0.000000
vn -100.000000 0.000000 0.000000
vn -100.000000 0.000000 0.000000
vn -100.000000 0.000000 0.000000
f 17/49/49 18/50/50 20/51/51
f 20/51/51 18/50/50 19/52/52
f 21/53/53 17/54/54 22/55/55
f 22/55/55 17/54/54 20/56/56
f 23/57/57 21/58/58 24/59/59
f 24/59/59 21/58/58 22/60/60
f 18/61/61 23/62/62 19/63/63
f 19/63/63 23/62/62 24/64/64
f 24/65/65 22/66/66 19/67/67
f 19/67/67 22/66/66 20/68/68
f 23/69/69 18/70/70 21/71/71
f 21/71/71 18/70/70 17/72/72
g Body3

v -0.500000 2.446034 0.053156
v -0.340000 2.446034 0.053156
v -0.340000 2.446034 0.013156
v -0.500000 2.446034 0.013156
v -0.500000 -0.073966 0.053156
v -0.500000 -0.073966 0.013156
v -0.340000 -0.073966 0.053156
v -0.340000 -0.073966 0.013156
vt 0.000000 0.000000 0.000000
vt 16.000000 0.000000 0.000000
vt 0.000000 4.000000 0.000000
vt 16.000000 4.000000 0.000000
vt 0.000000 0.000000 0.000000
vt 252.000000 0.000000 0.000000
vt 0.000000 4.000000 0.000000
vt 252.000000 4.000000 0.000000
vt 0.000000 0.000000 0.000000
vt 16.000000 0.000000 0.000000
vt 0.000000 4.000000 0.000000
vt 16.000000 4.000000 0.000000
vt 0.000000 0.000000 0.000000
vt 252.000000 0.000000 0.000000
vt 0.000000 4.000000 0.000000
vt 252.000000 4.000000 0.000000
vt -8.000000 -126.000000 0.000000
vt 8.000000 -126.000000 0.000000
vt -8.000000 126.000000 0.000000
vt 8.000000 126.000000 0.000000
vt -8.000000 -126.000000 0.000000
vt 8.000000 -126.000000 0.000000
vt -8.000000 126.000000 0.000000
vt 8.000000 126.000000 0.000000
vn 0.000000 100.000000 0.000000
vn 0.000000 100.000000 0.000000
vn 0.000000 100.000000 0.000000
vn 0.000000 100.000000 0.000000
vn -100.000000 0.000000 0.000000
vn -100.000000 0.000000 0.000000
vn -100.000000 0.000000 0.000000
vn -100.000000 0.000000 0.000000
vn 0.000000 -100.000000 0.000000
vn 0.000000 -100.000000 0.000000
vn 0.000000 -100.000000 0.000000
vn 0.000000 -100.000000 0.000000
vn 100.000000 0.000000 0.000000
vn 100.000000 0.000000 0.000000
vn 100.000000 0.000000 0.000000
vn 100.000000 0.000000 0.000000
vn 0.000000 0.000000 -100.000000
vn 0.000000 0.000000 -100.000000
vn 0.000000 0.000000 -100.000000
vn 0.000000 0.000000 -100.000000
vn 0.000000 0.000000 100.000000
vn 0.000000 0.000000 100.000000
vn 0.000000 0.000000 100.000000
vn 0.000000 0.000000 100.000000
f 25/73/73 26/74/74 28/75/75
f 28/75/75 26/74/74 27/76/76
f 29/77/77 25/78/78 30/79/79
f 30/79/79 25/78/78 28/80/80
f 31/81/81 29/82/82 32/83/83
f 32/83/83 29/82/82 30/84/84
f 26/85/85 31/86/86 27/87/87
f 27/87/87 31/86/86 32/88/88
f 32/89/89 30/90/90 27/91/91
f 27/91/91 30/90/90 28/92/92
f 26/93/93 25/94/94 31/95/95
f 31/95/95 25/94/94 29/96/96
# 32 vertices
# 96 texture params
# 96 normals
# 56 facets

# 3 groups
