<?xml version="1.0" encoding="utf-8"?>
<!-- Generator: Adobe Illustrator 25.2.0, SVG Export Plug-In . SVG Version: 6.00 Build 0)  -->
<svg version="1.1" id="Layer_1" xmlns="http://www.w3.org/2000/svg" xmlns:xlink="http://www.w3.org/1999/xlink" x="0mm" y="0mm"
	 viewBox="0mm 0mm 2048mm 2048mm" style="enable-background:new 0 0 2048 2048;" xml:space="preserve">
<style type="text/css">
	.st0{fill:#0F7225;}
	.st1{fill:#ED9078;}
	.st2{fill:#CF0018;}
	.st3{fill:#E34B0E;}
	.st4{fill:#BA6017;}
	.st5{fill:#6C3115;}
</style>
<g id="top">
	<polygon class="st0" points="1376.9,1016.8 1376.6,1013 1376.6,1009.2 1376.6,1005.4 1376.2,1001.9 1375.9,998.2 1375.5,994.4 
		1375.2,990.9 1374.8,987.1 1374.5,983.3 1374.2,979.9 1373.8,976.1 1373.1,972.3 1372.4,968.9 1372.1,965.1 1371.4,961.6 
		1370.7,957.8 1370,954.4 1369.3,950.6 1368.3,947.1 1367.6,943.4 1366.6,939.9 1365.9,936.1 1364.9,932.7 1363.8,929.2 
		1362.8,925.4 1361.7,922 1360.7,918.5 1359.7,915.1 1358.6,911.3 1357.3,907.9 1355.9,904.4 1354.9,901 1353.5,897.5 1352.1,894.1 
		1350.7,890.6 1349.3,887.2 1348,883.7 1346.2,880.6 1344.9,877.2 1343.5,873.7 1341.8,870.3 1340,867.2 1338.3,863.7 1336.6,860.6 
		1334.9,857.2 1333.1,854.1 1331.4,850.6 1329.7,847.5 1327.6,844.4 1325.9,841.3 1323.8,837.9 1322.1,834.8 1320,831.7 1318,828.6 
		1315.9,825.5 1313.8,822.7 1311.8,819.6 1309.4,816.5 1307.3,813.4 1305.2,810.7 1302.8,807.6 1300.7,804.8 1298.3,802.1 
		1295.9,798.9 1293.5,796.2 1291.1,793.4 1288.7,790.7 1286.3,787.9 1283.9,785.2 1281.1,782.4 1278.7,779.6 1276.3,777.2 
		1273.5,774.5 1270.8,771.7 1268.4,769.3 1265.6,766.9 1262.8,764.1 1260.1,761.7 1257.3,759.3 1254.6,756.9 1251.8,754.5 
		1249.1,752.1 1245.9,749.7 1243.2,747.3 1240.4,745.2 1237.3,742.8 1234.6,740.7 1231.5,738.6 1228.4,736.2 1225.3,734.2 
		1222.5,732.1 1219.4,730 1216.3,728 1213.2,725.9 1210.1,724.2 1206.7,722.1 1203.6,720.4 1200.5,718.3 1024,1024 1376.9,1024 
		1376.9,1020.2 	"/>
	<polygon class="st0" points="1197.4,716.6 1193.9,714.9 1190.8,713.1 1187.4,711.4 1184.3,709.7 1180.8,708 1177.7,706.2 
		1174.3,704.5 1170.8,703.1 1167.4,701.8 1164.3,700 1160.8,698.7 1157.4,697.3 1153.9,695.9 1150.5,694.5 1147,693.1 1143.6,692.1 
		1140.1,690.7 1136.7,689.4 1132.9,688.3 1129.5,687.3 1126,686.3 1122.6,685.2 1118.8,684.2 1115.3,683.1 1111.9,682.1 
		1108.1,681.4 1104.6,680.4 1100.9,679.7 1097.4,678.7 1093.6,678 1090.2,677.3 1086.4,676.6 1082.9,675.9 1079.1,675.6 
		1075.7,674.9 1071.9,674.2 1068.1,673.8 1064.7,673.5 1060.9,673.2 1057.1,672.8 1053.6,672.5 1049.8,672.1 1046.1,671.8 
		1042.6,671.4 1038.8,671.4 1035,671.4 1031.2,671.1 1027.8,671.1 1024,671.1 1020.2,671.1 1016.8,671.1 1013,671.4 1009.2,671.4 
		1005.4,671.4 1001.9,671.8 998.2,672.1 994.4,672.5 990.9,672.8 987.1,673.2 983.3,673.5 979.9,673.8 976.1,674.2 972.3,674.9 
		968.9,675.6 965.1,675.9 961.6,676.6 957.8,677.3 954.4,678 950.6,678.7 947.1,679.7 943.4,680.4 939.9,681.4 936.1,682.1 
		932.7,683.1 929.2,684.2 925.4,685.2 922,686.3 918.5,687.3 915.1,688.3 911.3,689.4 907.9,690.7 904.4,692.1 901,693.1 
		897.5,694.5 894.1,695.9 890.6,697.3 887.2,698.7 883.7,700 880.6,701.8 877.2,703.1 873.7,704.5 870.3,706.2 867.2,708 
		863.7,709.7 860.6,711.4 857.2,713.1 854.1,714.9 850.6,716.6 847.5,718.3 1024,1024 1200.5,718.3 	"/>
	<polygon class="st0" points="844.4,720.4 841.3,722.1 837.9,724.2 834.8,725.9 831.7,728 828.6,730 825.5,732.1 822.7,734.2 
		819.6,736.2 816.5,738.6 813.4,740.7 810.7,742.8 807.6,745.2 804.8,747.3 802.1,749.7 798.9,752.1 796.2,754.5 793.4,756.9 
		790.7,759.3 787.9,761.7 785.2,764.1 782.4,766.9 779.6,769.3 777.2,771.7 774.5,774.5 771.7,777.2 769.3,779.6 766.9,782.4 
		764.1,785.2 761.7,787.9 759.3,790.7 756.9,793.4 754.5,796.2 752.1,798.9 749.7,802.1 747.3,804.8 745.2,807.6 742.8,810.7 
		740.7,813.4 738.6,816.5 736.2,819.6 734.2,822.7 732.1,825.5 730,828.6 728,831.7 725.9,834.8 724.2,837.9 722.1,841.3 
		720.4,844.4 718.3,847.5 716.6,850.6 714.9,854.1 713.1,857.2 711.4,860.6 709.7,863.7 708,867.2 706.2,870.3 704.5,873.7 
		703.1,877.2 701.8,880.6 700,883.7 698.7,887.2 697.3,890.6 695.9,894.1 694.5,897.5 693.1,901 692.1,904.4 690.7,907.9 
		689.4,911.3 688.3,915.1 687.3,918.5 686.3,922 685.2,925.4 684.2,929.2 683.1,932.7 682.1,936.1 681.4,939.9 680.4,943.4 
		679.7,947.1 678.7,950.6 678,954.4 677.3,957.8 676.6,961.6 675.9,965.1 675.6,968.9 674.9,972.3 674.2,976.1 673.8,979.9 
		673.5,983.3 673.2,987.1 672.8,990.9 672.5,994.4 672.1,998.2 671.8,1001.9 671.4,1005.4 671.4,1009.2 671.4,1013 671.1,1016.8 
		671.1,1020.2 671.1,1024 1024,1024 847.5,718.3 	"/>
	<polygon class="st1" points="1729.8,1009.2 1729.5,1001.9 1729.1,994.4 1728.8,987.1 1728.4,979.5 1727.8,972.3 1727.4,965.1 
		1726.7,957.5 1726,950.2 1725,943 1724.3,935.4 1723.3,928.2 1722.2,921 1721.2,913.7 1719.8,906.1 1718.8,898.9 1717.4,891.7 
		1716,884.4 1714.3,877.2 1369.3,950.6 1370,954.4 1370.7,957.8 1371.4,961.6 1372.1,965.1 1372.4,968.9 1373.1,972.3 1373.8,976.1 
		1374.2,979.9 1374.5,983.3 1374.8,987.1 1375.2,990.9 1375.5,994.4 1375.9,998.2 1376.2,1001.9 1376.6,1005.4 1376.6,1009.2 
		1376.6,1013 1376.9,1016.8 1376.9,1020.2 1376.9,1024 1729.8,1024 1729.8,1016.8 	"/>
	<polygon class="st2" points="1662.6,723.5 1659.5,716.9 1656.1,710 1653,703.5 1649.5,696.9 1646.1,690.4 1642.6,683.8 
		1638.8,677.6 1635.4,671.1 1631.6,664.5 1627.8,658.3 1624,652.1 1619.9,645.9 1616.1,639.7 1612,633.5 1607.8,627.3 1603.7,621.1 
		1599.2,615.3 1595.1,609.1 1590.6,603.2 1586.1,597.3 1581.6,591.5 1577.2,585.6 1572.7,579.8 1567.8,574.2 1563,568.4 
		1558.2,562.9 1553.4,557.4 1548.5,551.8 1543.7,546.3 1538.6,540.8 1533.4,535.3 1528.2,530.1 1523,525 1517.9,519.8 1512.7,514.6 
		1507.2,509.4 1501.7,504.3 1496.2,499.5 1490.6,494.6 1485.1,489.8 1479.6,485 1473.8,480.2 1468.2,475.3 1462.4,470.8 
		1456.5,466.4 1450.7,461.9 1444.8,457.4 1438.9,452.9 1432.7,448.8 1426.9,444.3 1420.7,440.2 1414.5,436 1408.3,431.9 
		1402.1,428.1 1395.9,424 1389.7,420.2 1383.5,416.4 1376.9,412.6 1370.4,409.2 1364.2,405.4 1357.6,401.9 1351.1,398.5 1344.5,395 
		1338,391.9 1331.1,388.5 1324.5,385.4 1318,382.3 1311.1,379.2 1304.2,376.1 1297.6,373.3 1290.8,370.6 1283.9,367.8 1277,365 
		1270.1,362.3 1263.2,359.9 1256.3,357.5 1249.1,355.1 1242.2,352.6 1132.9,688.3 1136.7,689.4 1140.1,690.7 1143.6,692.1 
		1147,693.1 1150.5,694.5 1153.9,695.9 1157.4,697.3 1160.8,698.7 1164.3,700 1167.4,701.8 1170.8,703.1 1174.3,704.5 1177.7,706.2 
		1180.8,708 1184.3,709.7 1187.4,711.4 1190.8,713.1 1193.9,714.9 1197.4,716.6 1200.5,718.3 1203.6,720.4 1206.7,722.1 
		1210.1,724.2 1213.2,725.9 1216.3,728 1219.4,730 1222.5,732.1 1225.3,734.2 1228.4,736.2 1231.5,738.6 1234.6,740.7 1237.3,742.8 
		1240.4,745.2 1243.2,747.3 1245.9,749.7 1249.1,752.1 1251.8,754.5 1254.6,756.9 1257.3,759.3 1260.1,761.7 1262.8,764.1 
		1265.6,766.9 1268.4,769.3 1270.8,771.7 1273.5,774.5 1276.3,777.2 1278.7,779.6 1281.1,782.4 1283.9,785.2 1286.3,787.9 
		1288.7,790.7 1291.1,793.4 1293.5,796.2 1295.9,798.9 1298.3,802.1 1300.7,804.8 1302.8,807.6 1305.2,810.7 1307.3,813.4 
		1309.4,816.5 1311.8,819.6 1313.8,822.7 1315.9,825.5 1318,828.6 1320,831.7 1322.1,834.8 1323.8,837.9 1325.9,841.3 1327.6,844.4 
		1329.7,847.5 1331.4,850.6 1333.1,854.1 1334.9,857.2 1336.6,860.6 1338.3,863.7 1340,867.2 1341.8,870.3 1343.5,873.7 
		1344.9,877.2 1346.2,880.6 1348,883.7 1349.3,887.2 1350.7,890.6 1352.1,894.1 1353.5,897.5 1354.9,901 1355.9,904.4 1357.3,907.9 
		1358.6,911.3 1359.7,915.1 1360.7,918.5 1361.7,922 1362.8,925.4 1363.8,929.2 1364.9,932.7 1365.9,936.1 1366.6,939.9 
		1367.6,943.4 1368.3,947.1 1369.3,950.6 1714.3,877.2 1712.9,869.9 1711.2,862.7 1709.5,855.5 1707.8,848.6 1705.7,841.3 
		1704,834.1 1701.9,827.2 1699.8,820 1697.4,813.1 1695.4,805.8 1692.9,798.9 1690.5,791.7 1688.1,784.8 1685.7,777.9 1683,771 
		1680.2,764.1 1677.4,757.2 1674.7,750.4 1671.9,743.8 1668.8,736.9 1665.7,730 	"/>
	<polygon class="st1" points="1234.9,350.6 1228,348.2 1220.8,346.1 1213.9,344 1206.7,342.3 1199.4,340.2 1192.5,338.5 
		1185.3,336.8 1178.1,335.1 1170.8,333.7 1163.6,332 1156.3,330.6 1149.1,329.2 1141.9,328.2 1134.3,326.8 1127,325.8 1119.8,324.7 
		1112.6,323.7 1105,323 1097.8,322 1090.5,321.3 1082.9,320.6 1075.7,320.2 1068.5,319.6 1060.9,319.2 1053.6,318.9 1046.1,318.5 
		1038.8,318.2 1031.2,318.2 1024,318.2 1016.8,318.2 1009.2,318.2 1001.9,318.5 994.4,318.9 987.1,319.2 979.5,319.6 972.3,320.2 
		965.1,320.6 957.5,321.3 950.2,322 943,323 935.4,323.7 928.2,324.7 921,325.8 913.7,326.8 906.1,328.2 898.9,329.2 891.7,330.6 
		884.4,332 877.2,333.7 869.9,335.1 862.7,336.8 855.5,338.5 848.6,340.2 841.3,342.3 834.1,344 827.2,346.1 820,348.2 813.1,350.6 
		805.8,352.6 798.9,355.1 791.7,357.5 784.8,359.9 777.9,362.3 771,365 764.1,367.8 757.2,370.6 750.4,373.3 743.8,376.1 
		736.9,379.2 730,382.3 723.5,385.4 716.9,388.5 710,391.9 703.5,395 696.9,398.5 690.4,401.9 683.8,405.4 677.6,409.2 671.1,412.6 
		664.5,416.4 658.3,420.2 652.1,424 645.9,428.1 639.7,431.9 633.5,436 627.3,440.2 621.1,444.3 615.3,448.8 609.1,452.9 
		603.2,457.4 597.3,461.9 591.5,466.4 585.6,470.8 579.8,475.3 574.2,480.2 568.4,485 562.9,489.8 557.4,494.6 551.8,499.5 
		787.9,761.7 790.7,759.3 793.4,756.9 796.2,754.5 798.9,752.1 802.1,749.7 804.8,747.3 807.6,745.2 810.7,742.8 813.4,740.7 
		816.5,738.6 819.6,736.2 822.7,734.2 825.5,732.1 828.6,730 831.7,728 834.8,725.9 837.9,724.2 841.3,722.1 844.4,720.4 
		847.5,718.3 850.6,716.6 854.1,714.9 857.2,713.1 860.6,711.4 863.7,709.7 867.2,708 870.3,706.2 873.7,704.5 877.2,703.1 
		880.6,701.8 883.7,700 887.2,698.7 890.6,697.3 894.1,695.9 897.5,694.5 901,693.1 904.4,692.1 907.9,690.7 911.3,689.4 
		915.1,688.3 918.5,687.3 922,686.3 925.4,685.2 929.2,684.2 932.7,683.1 936.1,682.1 939.9,681.4 943.4,680.4 947.1,679.7 
		950.6,678.7 954.4,678 957.8,677.3 961.6,676.6 965.1,675.9 968.9,675.6 972.3,674.9 976.1,674.2 979.9,673.8 983.3,673.5 
		987.1,673.2 990.9,672.8 994.4,672.5 998.2,672.1 1001.9,671.8 1005.4,671.4 1009.2,671.4 1013,671.4 1016.8,671.1 1020.2,671.1 
		1024,671.1 1027.8,671.1 1031.2,671.1 1035,671.4 1038.8,671.4 1042.6,671.4 1046.1,671.8 1049.8,672.1 1053.6,672.5 1057.1,672.8 
		1060.9,673.2 1064.7,673.5 1068.1,673.8 1071.9,674.2 1075.7,674.9 1079.1,675.6 1082.9,675.9 1086.4,676.6 1090.2,677.3 
		1093.6,678 1097.4,678.7 1100.9,679.7 1104.6,680.4 1108.1,681.4 1111.9,682.1 1115.3,683.1 1118.8,684.2 1122.6,685.2 1126,686.3 
		1129.5,687.3 1132.9,688.3 1242.2,352.6 	"/>
	<polygon class="st2" points="671.1,1016.8 671.4,1013 671.4,1009.2 671.4,1005.4 671.8,1001.9 672.1,998.2 672.5,994.4 
		672.8,990.9 673.2,987.1 673.5,983.3 673.8,979.9 674.2,976.1 674.9,972.3 675.6,968.9 675.9,965.1 676.6,961.6 677.3,957.8 
		678,954.4 678.7,950.6 679.7,947.1 680.4,943.4 681.4,939.9 682.1,936.1 683.1,932.7 684.2,929.2 685.2,925.4 686.3,922 
		687.3,918.5 688.3,915.1 689.4,911.3 690.7,907.9 692.1,904.4 693.1,901 694.5,897.5 695.9,894.1 697.3,890.6 698.7,887.2 
		700,883.7 701.8,880.6 703.1,877.2 704.5,873.7 706.2,870.3 708,867.2 709.7,863.7 711.4,860.6 713.1,857.2 714.9,854.1 
		716.6,850.6 718.3,847.5 720.4,844.4 722.1,841.3 724.2,837.9 725.9,834.8 728,831.7 730,828.6 732.1,825.5 734.2,822.7 
		736.2,819.6 738.6,816.5 740.7,813.4 742.8,810.7 745.2,807.6 747.3,804.8 749.7,802.1 752.1,798.9 754.5,796.2 756.9,793.4 
		759.3,790.7 761.7,787.9 764.1,785.2 766.9,782.4 769.3,779.6 771.7,777.2 774.5,774.5 777.2,771.7 779.6,769.3 782.4,766.9 
		785.2,764.1 787.9,761.7 551.8,499.5 546.3,504.3 540.8,509.4 535.3,514.6 530.1,519.8 525,525 519.8,530.1 514.6,535.3 
		509.4,540.8 504.3,546.3 499.5,551.8 494.6,557.4 489.8,562.9 485,568.4 480.2,574.2 475.3,579.8 470.8,585.6 466.4,591.5 
		461.9,597.3 457.4,603.2 452.9,609.1 448.8,615.3 444.3,621.1 440.2,627.3 436,633.5 431.9,639.7 428.1,645.9 424,652.1 
		420.2,658.3 416.4,664.5 412.6,671.1 409.2,677.6 405.4,683.8 401.9,690.4 398.5,696.9 395,703.5 391.9,710 388.5,716.9 
		385.4,723.5 382.3,730 379.2,736.9 376.1,743.8 373.3,750.4 370.6,757.2 367.8,764.1 365,771 362.3,777.9 359.9,784.8 357.5,791.7 
		355.1,798.9 352.6,805.8 350.6,813.1 348.2,820 346.1,827.2 344,834.1 342.3,841.3 340.2,848.6 338.5,855.5 336.8,862.7 
		335.1,869.9 333.7,877.2 332,884.4 330.6,891.7 329.2,898.9 328.2,906.1 326.8,913.7 325.8,921 324.7,928.2 323.7,935.4 323,943 
		322,950.2 321.3,957.5 320.6,965.1 320.2,972.3 319.6,979.5 319.2,987.1 318.9,994.4 318.5,1001.9 318.2,1009.2 318.2,1016.8 
		318.2,1024 671.1,1024 671.1,1020.2 	"/>
	<polygon class="st2" points="2082.4,1001.9 2082.1,990.9 2081.7,979.5 2081.4,968.5 2080.7,957.5 2080,946.5 2078.9,935.4 
		2077.9,924.4 2076.9,913.4 2075.8,902.3 2074.5,891.3 2073.1,880.3 2071.4,869.3 2069.6,858.2 2067.9,847.5 2065.9,836.5 
		2064.1,825.5 2061.7,814.8 2059.6,803.8 2057.2,793.1 2054.8,782.4 2052.1,771.4 2049.3,760.7 2046.6,750 2043.8,739.3 
		2040.7,728.6 2037.6,718 2034.1,707.3 2031,696.9 2027.6,686.3 2023.8,675.9 2020,665.2 2016.2,654.9 2012.4,644.5 2008.3,634.2 
		2004.2,623.9 2000,613.9 1995.5,603.5 1991.1,593.5 1668.8,736.9 1671.9,743.8 1674.7,750.4 1677.4,757.2 1680.2,764.1 1683,771 
		1685.7,777.9 1688.1,784.8 1690.5,791.7 1692.9,798.9 1695.4,805.8 1697.4,813.1 1699.8,820 1701.9,827.2 1704,834.1 1705.7,841.3 
		1707.8,848.6 1709.5,855.5 1711.2,862.7 1712.9,869.9 1714.3,877.2 1716,884.4 1717.4,891.7 1718.8,898.9 1719.8,906.1 
		1721.2,913.7 1722.2,921 1723.3,928.2 1724.3,935.4 1725,943 1726,950.2 1726.7,957.5 1727.4,965.1 1727.8,972.3 1728.4,979.5 
		1728.8,987.1 1729.1,994.4 1729.5,1001.9 1729.8,1009.2 1729.8,1016.8 1729.8,1024 2082.7,1024 2082.7,1013 	"/>
	<polygon class="st0" points="1867.3,384 1860.4,375 1853.9,366.4 1846.7,357.8 1839.8,349.2 1832.5,340.6 1825.3,332.3 
		1818.1,323.7 1810.8,315.4 1803.2,307.5 1795.7,299.2 1788.1,291.3 1780.5,283.4 1772.6,275.4 1764.6,267.5 1756.7,259.9 
		1748.8,252.3 1740.5,244.8 1732.6,237.2 1724.3,229.9 1715.7,222.7 1707.4,215.5 1698.8,208.2 1690.2,201.3 1681.6,194.1 
		1673,187.6 1664,180.7 1655.4,174.1 1646.4,167.6 1637.5,161 1628.2,154.5 1619.2,148.3 1609.9,142.1 1600.6,136.2 1591.3,130 
		1582,124.1 1572.3,118.3 1563,112.8 1553.4,107.3 1543.7,101.7 1534.1,96.2 1524.4,91.1 1514.4,85.9 1504.8,80.7 1494.8,75.5 
		1484.8,70.7 1474.8,65.9 1464.8,61.4 1454.5,56.9 1444.5,52.5 1434.1,48 1424.1,43.8 1413.8,39.7 1403.5,35.6 1393.1,31.8 
		1382.8,28 1372.1,24.2 1361.7,20.4 1351.1,17 1340.7,13.9 1330,10.4 1319.4,7.3 1308.7,4.2 1298,1.4 1287.3,-1.3 1276.6,-4.1 
		1265.6,-6.8 1254.9,-9.2 1244.2,-11.6 1233.2,-13.7 1222.5,-16.1 1211.5,-17.9 1200.5,-19.9 1189.8,-21.6 1178.7,-23.4 
		1167.7,-25.1 1156.7,-26.5 1145.7,-27.8 1134.6,-28.9 1097.8,322 1105,323 1112.6,323.7 1119.8,324.7 1127,325.8 1134.3,326.8 
		1141.9,328.2 1149.1,329.2 1156.3,330.6 1163.6,332 1170.8,333.7 1178.1,335.1 1185.3,336.8 1192.5,338.5 1199.4,340.2 
		1206.7,342.3 1213.9,344 1220.8,346.1 1228,348.2 1234.9,350.6 1242.2,352.6 1249.1,355.1 1256.3,357.5 1263.2,359.9 1270.1,362.3 
		1277,365 1283.9,367.8 1290.8,370.6 1297.6,373.3 1304.2,376.1 1311.1,379.2 1318,382.3 1324.5,385.4 1331.1,388.5 1338,391.9 
		1344.5,395 1351.1,398.5 1357.6,401.9 1364.2,405.4 1370.4,409.2 1376.9,412.6 1383.5,416.4 1389.7,420.2 1395.9,424 1402.1,428.1 
		1408.3,431.9 1414.5,436 1420.7,440.2 1426.9,444.3 1432.7,448.8 1438.9,452.9 1444.8,457.4 1450.7,461.9 1456.5,466.4 
		1462.4,470.8 1468.2,475.3 1473.8,480.2 1479.6,485 1485.1,489.8 1490.6,494.6 1496.2,499.5 1501.7,504.3 1507.2,509.4 
		1512.7,514.6 1517.9,519.8 1523,525 1528.2,530.1 1533.4,535.3 1538.6,540.8 1543.7,546.3 1548.5,551.8 1553.4,557.4 1558.2,562.9 
		1563,568.4 1567.8,574.2 1572.7,579.8 1577.2,585.6 1581.6,591.5 1586.1,597.3 1590.6,603.2 1595.1,609.1 1599.2,615.3 
		1603.7,621.1 1607.8,627.3 1612,633.5 1616.1,639.7 1619.9,645.9 1624,652.1 1627.8,658.3 1631.6,664.5 1635.4,671.1 1638.8,677.6 
		1642.6,683.8 1646.1,690.4 1649.5,696.9 1653,703.5 1656.1,710 1659.5,716.9 1662.6,723.5 1665.7,730 1668.8,736.9 1991.1,593.5 
		1986.6,583.2 1982.1,573.2 1977.3,563.2 1972.5,553.2 1967.3,543.2 1962.1,533.6 1956.9,523.6 1951.8,513.9 1946.3,504.3 
		1940.7,494.6 1935.2,485 1929.7,475.7 1923.9,466 1918,456.7 1911.8,447.4 1905.9,438.1 1899.7,428.8 1893.5,419.8 1887,410.5 
		1880.4,401.6 1873.9,392.6 	"/>
	<polygon class="st2" points="562.9,489.8 568.4,485 574.2,480.2 579.8,475.3 585.6,470.8 591.5,466.4 597.3,461.9 603.2,457.4 
		609.1,452.9 615.3,448.8 621.1,444.3 627.3,440.2 633.5,436 639.7,431.9 645.9,428.1 652.1,424 658.3,420.2 664.5,416.4 
		671.1,412.6 677.6,409.2 683.8,405.4 690.4,401.9 696.9,398.5 703.5,395 710,391.9 716.9,388.5 723.5,385.4 730,382.3 736.9,379.2 
		743.8,376.1 750.4,373.3 757.2,370.6 764.1,367.8 771,365 777.9,362.3 784.8,359.9 791.7,357.5 798.9,355.1 805.8,352.6 
		813.1,350.6 820,348.2 827.2,346.1 834.1,344 841.3,342.3 848.6,340.2 855.5,338.5 862.7,336.8 869.9,335.1 877.2,333.7 884.4,332 
		891.7,330.6 898.9,329.2 906.1,328.2 913.7,326.8 921,325.8 928.2,324.7 935.4,323.7 943,323 950.2,322 957.5,321.3 965.1,320.6 
		972.3,320.2 979.5,319.6 987.1,319.2 994.4,318.9 1001.9,318.5 1009.2,318.2 1016.8,318.2 1024,318.2 1031.2,318.2 1038.8,318.2 
		1046.1,318.5 1053.6,318.9 1060.9,319.2 1068.5,319.6 1075.7,320.2 1082.9,320.6 1090.5,321.3 1097.8,322 1134.6,-28.9 
		1123.6,-29.9 1112.6,-30.9 1101.5,-32 1090.5,-32.7 1079.5,-33.4 1068.5,-33.7 1057.1,-34.1 1046.1,-34.4 1035,-34.7 1024,-34.7 
		1013,-34.7 1001.9,-34.4 990.9,-34.1 979.5,-33.7 968.5,-33.4 957.5,-32.7 946.5,-32 935.4,-30.9 924.4,-29.9 913.4,-28.9 
		902.3,-27.8 891.3,-26.5 880.3,-25.1 869.3,-23.4 858.2,-21.6 847.5,-19.9 836.5,-17.9 825.5,-16.1 814.8,-13.7 803.8,-11.6 
		793.1,-9.2 782.4,-6.8 771.4,-4.1 760.7,-1.3 750,1.4 739.3,4.2 728.6,7.3 718,10.4 707.3,13.9 696.9,17 686.3,20.4 675.9,24.2 
		665.2,28 654.9,31.8 644.5,35.6 634.2,39.7 623.9,43.8 613.9,48 603.5,52.5 593.5,56.9 583.2,61.4 573.2,65.9 563.2,70.7 
		553.2,75.5 543.2,80.7 533.6,85.9 523.6,91.1 513.9,96.2 504.3,101.7 494.6,107.3 485,112.8 475.7,118.3 466,124.1 456.7,130 
		447.4,136.2 438.1,142.1 428.8,148.3 419.8,154.5 410.5,161 401.6,167.6 392.6,174.1 384,180.7 375,187.6 366.4,194.1 357.8,201.3 
		349.2,208.2 340.6,215.5 332.3,222.7 323.7,229.9 315.4,237.2 307.5,244.8 299.2,252.3 291.3,259.9 283.4,267.5 275.4,275.4 
		267.5,283.4 259.9,291.3 252.3,299.2 244.8,307.5 237.2,315.4 229.9,323.7 222.7,332.3 215.5,340.6 208.2,349.2 201.3,357.8 
		194.1,366.4 187.6,375 180.7,384 174.1,392.6 167.6,401.6 452.9,609.1 457.4,603.2 461.9,597.3 466.4,591.5 470.8,585.6 
		475.3,579.8 480.2,574.2 485,568.4 489.8,562.9 494.6,557.4 499.5,551.8 504.3,546.3 509.4,540.8 514.6,535.3 519.8,530.1 525,525 
		530.1,519.8 535.3,514.6 540.8,509.4 546.3,504.3 551.8,499.5 557.4,494.6 	"/>
	<polygon class="st0" points="318.2,1009.2 318.5,1001.9 318.9,994.4 319.2,987.1 319.6,979.5 320.2,972.3 320.6,965.1 321.3,957.5 
		322,950.2 323,943 323.7,935.4 324.7,928.2 325.8,921 326.8,913.7 328.2,906.1 329.2,898.9 330.6,891.7 332,884.4 333.7,877.2 
		335.1,869.9 336.8,862.7 338.5,855.5 340.2,848.6 342.3,841.3 344,834.1 346.1,827.2 348.2,820 350.6,813.1 352.6,805.8 
		355.1,798.9 357.5,791.7 359.9,784.8 362.3,777.9 365,771 367.8,764.1 370.6,757.2 373.3,750.4 376.1,743.8 379.2,736.9 382.3,730 
		385.4,723.5 388.5,716.9 391.9,710 395,703.5 398.5,696.9 401.9,690.4 405.4,683.8 409.2,677.6 412.6,671.1 416.4,664.5 
		420.2,658.3 424,652.1 428.1,645.9 431.9,639.7 436,633.5 440.2,627.3 444.3,621.1 448.8,615.3 452.9,609.1 167.6,401.6 161,410.5 
		154.5,419.8 148.3,428.8 142.1,438.1 136.2,447.4 130,456.7 124.1,466 118.3,475.7 112.8,485 107.3,494.6 101.7,504.3 96.2,513.9 
		91.1,523.6 85.9,533.6 80.7,543.2 75.5,553.2 70.7,563.2 65.9,573.2 61.4,583.2 56.9,593.5 52.5,603.5 48,613.9 43.8,623.9 
		39.7,634.2 35.6,644.5 31.8,654.9 28,665.2 24.2,675.9 20.4,686.3 17,696.9 13.9,707.3 10.4,718 7.3,728.6 4.2,739.3 1.4,750 
		-1.3,760.7 -4.1,771.4 -6.8,782.4 -9.2,793.1 -11.6,803.8 -13.7,814.8 -16.1,825.5 -17.9,836.5 -19.9,847.5 -21.6,858.2 
		-23.4,869.3 -25.1,880.3 -26.5,891.3 -27.8,902.3 -28.9,913.4 -29.9,924.4 -30.9,935.4 -32,946.5 -32.7,957.5 -33.4,968.5 
		-33.7,979.5 -34.1,990.9 -34.4,1001.9 -34.7,1013 -34.7,1024 318.2,1024 318.2,1016.8 	"/>
	<polygon class="st3" points="1946.3,-44.7 1935.2,-54.4 1923.9,-63.7 1912.5,-73 1900.8,-82.3 1889.1,-91.3 1877.3,-100.6 
		1865.6,-109.2 1853.9,-118.1 1841.8,-126.8 1829.8,-135 1817.4,-143.6 1805.3,-151.9 1792.9,-159.8 1780.5,-167.8 1767.7,-175.7 
		1755.3,-183.6 1742.6,-191.2 1729.8,-198.4 1717.1,-205.7 1704,-212.9 1691.2,-220.2 1678.1,-227.1 1665,-233.9 1651.6,-240.5 
		1638.5,-247 1625.1,-253.2 1611.6,-259.4 1598.2,-265.7 1584.7,-271.5 1570.9,-277.4 1557.5,-282.9 1543.7,-288.4 1529.9,-293.9 
		1516.1,-299.1 1502,-304.3 1488.2,-309.1 1474.1,-313.9 1460.3,-318.7 1446.2,-323.2 1432.1,-327.3 1417.9,-331.5 1403.5,-335.6 
		1389.3,-339.4 1375.2,-343.2 1360.7,-347 1346.2,-350.4 1332.1,-353.5 1317.6,-356.6 1303.2,-359.7 1288.7,-362.5 1273.9,-365.3 
		1259.4,-368 1244.9,-370.4 1230.1,-372.5 1215.6,-374.6 1200.8,-376.6 1186.3,-378.3 1171.5,-380.1 1156.7,-381.4 1142.2,-382.8 
		1127.4,-383.9 1112.6,-384.9 1097.8,-385.6 1083.3,-386.3 1068.5,-387 1053.6,-387.3 1038.8,-387.7 1024,-387.7 1009.2,-387.7 
		994.4,-387.3 979.5,-387 964.7,-386.3 950.2,-385.6 935.4,-384.9 920.6,-383.9 905.8,-382.8 891.3,-381.4 876.5,-380.1 
		913.4,-28.9 924.4,-29.9 935.4,-30.9 946.5,-32 957.5,-32.7 968.5,-33.4 979.5,-33.7 990.9,-34.1 1001.9,-34.4 1013,-34.7 
		1024,-34.7 1035,-34.7 1046.1,-34.4 1057.1,-34.1 1068.5,-33.7 1079.5,-33.4 1090.5,-32.7 1101.5,-32 1112.6,-30.9 1123.6,-29.9 
		1134.6,-28.9 1145.7,-27.8 1156.7,-26.5 1167.7,-25.1 1178.7,-23.4 1189.8,-21.6 1200.5,-19.9 1211.5,-17.9 1222.5,-16.1 
		1233.2,-13.7 1244.2,-11.6 1254.9,-9.2 1265.6,-6.8 1276.6,-4.1 1287.3,-1.3 1298,1.4 1308.7,4.2 1319.4,7.3 1330,10.4 
		1340.7,13.9 1351.1,17 1361.7,20.4 1372.1,24.2 1382.8,28 1393.1,31.8 1403.5,35.6 1413.8,39.7 1424.1,43.8 1434.1,48 1444.5,52.5 
		1454.5,56.9 1464.8,61.4 1474.8,65.9 1484.8,70.7 1494.8,75.5 1504.8,80.7 1514.4,85.9 1524.4,91.1 1534.1,96.2 1543.7,101.7 
		1553.4,107.3 1563,112.8 1572.3,118.3 1582,124.1 1591.3,130 1600.6,136.2 1609.9,142.1 1619.2,148.3 1628.2,154.5 1637.5,161 
		1646.4,167.6 1655.4,174.1 1664,180.7 1673,187.6 1681.6,194.1 1690.2,201.3 1698.8,208.2 1707.4,215.5 1715.7,222.7 1724.3,229.9 
		1732.6,237.2 1740.5,244.8 1748.8,252.3 1756.7,259.9 1764.6,267.5 1772.6,275.4 1780.5,283.4 1788.1,291.3 1795.7,299.2 
		1803.2,307.5 1810.8,315.4 1818.1,323.7 1825.3,332.3 1832.5,340.6 1839.8,349.2 1846.7,357.8 1853.9,366.4 1860.4,375 1867.3,384 
		1873.9,392.6 1880.4,401.6 2166.1,194.1 2157.2,182.4 2148.6,170.7 2139.3,158.9 2130.3,147.2 2121,135.5 2111.7,124.1 
		2102.4,112.8 2092.7,101.7 2082.7,90.4 2073.1,79.3 2063.1,68.7 2053.1,57.6 2042.8,46.9 2032.4,36.3 2022.1,25.9 2011.7,15.6 
		2001.1,5.2 1990.4,-5.1 1979.3,-15.1 1968.7,-25.1 1957.6,-34.7 	"/>
	<polygon class="st1" points="180.7,384 187.6,375 194.1,366.4 201.3,357.8 208.2,349.2 215.5,340.6 222.7,332.3 229.9,323.7 
		237.2,315.4 244.8,307.5 252.3,299.2 259.9,291.3 267.5,283.4 275.4,275.4 283.4,267.5 291.3,259.9 299.2,252.3 307.5,244.8 
		315.4,237.2 323.7,229.9 332.3,222.7 340.6,215.5 349.2,208.2 357.8,201.3 366.4,194.1 375,187.6 384,180.7 392.6,174.1 
		401.6,167.6 410.5,161 419.8,154.5 428.8,148.3 438.1,142.1 447.4,136.2 456.7,130 466,124.1 475.7,118.3 485,112.8 494.6,107.3 
		504.3,101.7 513.9,96.2 523.6,91.1 533.6,85.9 543.2,80.7 553.2,75.5 563.2,70.7 573.2,65.9 583.2,61.4 593.5,56.9 603.5,52.5 
		613.9,48 623.9,43.8 634.2,39.7 644.5,35.6 654.9,31.8 665.2,28 675.9,24.2 686.3,20.4 696.9,17 707.3,13.9 718,10.4 728.6,7.3 
		739.3,4.2 750,1.4 760.7,-1.3 771.4,-4.1 782.4,-6.8 793.1,-9.2 803.8,-11.6 814.8,-13.7 825.5,-16.1 836.5,-17.9 847.5,-19.9 
		858.2,-21.6 869.3,-23.4 880.3,-25.1 891.3,-26.5 902.3,-27.8 913.4,-28.9 876.5,-380.1 861.7,-378.3 847.2,-376.6 832.4,-374.6 
		817.9,-372.5 803.1,-370.4 788.6,-368 774.1,-365.3 759.3,-362.5 744.8,-359.7 730.4,-356.6 715.9,-353.5 701.8,-350.4 687.3,-347 
		672.8,-343.2 658.7,-339.4 644.5,-335.6 630.1,-331.5 615.9,-327.3 601.8,-323.2 587.7,-318.7 573.9,-313.9 559.8,-309.1 
		546,-304.3 531.9,-299.1 518.1,-293.9 504.3,-288.4 490.5,-282.9 477.1,-277.4 463.3,-271.5 449.8,-265.7 436.4,-259.4 
		422.9,-253.2 409.5,-247 396.4,-240.5 383,-233.9 369.9,-227.1 356.8,-220.2 344,-212.9 330.9,-205.7 318.2,-198.4 305.4,-191.2 
		292.7,-183.6 280.3,-175.7 267.5,-167.8 255.1,-159.8 242.7,-151.9 230.6,-143.6 218.2,-135 206.2,-126.8 194.1,-118.1 
		182.4,-109.2 170.7,-100.6 158.9,-91.3 147.2,-82.3 135.5,-73 124.1,-63.7 112.8,-54.4 101.7,-44.7 90.4,-34.7 79.3,-25.1 
		68.7,-15.1 57.6,-5.1 46.9,5.2 36.3,15.6 25.9,25.9 15.6,36.3 5.2,46.9 -5.1,57.6 -15.1,68.7 -25.1,79.3 -34.7,90.4 -44.7,101.7 
		-54.4,112.8 -63.7,124.1 -73,135.5 -82.3,147.2 -91.3,158.9 -100.6,170.7 -109.2,182.4 -118.1,194.1 -126.8,206.2 -135,218.2 
		-143.6,230.6 -151.9,242.7 -159.8,255.1 -167.8,267.5 -175.7,280.3 -183.6,292.7 -191.2,305.4 -198.4,318.2 -205.7,330.9 
		-212.9,344 -220.2,356.8 -227.1,369.9 -233.9,383 -240.5,396.4 -247,409.5 -253.2,422.9 -259.4,436.4 -265.7,449.8 56.9,593.5 
		61.4,583.2 65.9,573.2 70.7,563.2 75.5,553.2 80.7,543.2 85.9,533.6 91.1,523.6 96.2,513.9 101.7,504.3 107.3,494.6 112.8,485 
		118.3,475.7 124.1,466 130,456.7 136.2,447.4 142.1,438.1 148.3,428.8 154.5,419.8 161,410.5 167.6,401.6 174.1,392.6 	"/>
	<polygon class="st3" points="-34.4,1001.9 -34.1,990.9 -33.7,979.5 -33.4,968.5 -32.7,957.5 -32,946.5 -30.9,935.4 -29.9,924.4 
		-28.9,913.4 -27.8,902.3 -26.5,891.3 -25.1,880.3 -23.4,869.3 -21.6,858.2 -19.9,847.5 -17.9,836.5 -16.1,825.5 -13.7,814.8 
		-11.6,803.8 -9.2,793.1 -6.8,782.4 -4.1,771.4 -1.3,760.7 1.4,750 4.2,739.3 7.3,728.6 10.4,718 13.9,707.3 17,696.9 20.4,686.3 
		24.2,675.9 28,665.2 31.8,654.9 35.6,644.5 39.7,634.2 43.8,623.9 48,613.9 52.5,603.5 56.9,593.5 -265.7,449.8 -271.5,463.3 
		-277.4,477.1 -282.9,490.5 -288.4,504.3 -293.9,518.1 -299.1,531.9 -304.3,546 -309.1,559.8 -313.9,573.9 -318.7,587.7 
		-323.2,601.8 -327.3,615.9 -331.5,630.1 -335.6,644.5 -339.4,658.7 -343.2,672.8 -347,687.3 -350.4,701.8 -353.5,715.9 
		-356.6,730.4 -359.7,744.8 -362.5,759.3 -365.3,774.1 -368,788.6 -370.4,803.1 -372.5,817.9 -374.6,832.4 -376.6,847.2 
		-378.3,861.7 -380.1,876.5 -381.4,891.3 -382.8,905.8 -383.9,920.6 -384.9,935.4 -385.6,950.2 -386.3,964.7 -387,979.5 
		-387.3,994.4 -387.7,1009.2 -387.7,1024 -34.7,1024 -34.7,1013 	"/>
	<polygon class="st1" points="2435.3,994.4 2435,979.5 2434.3,964.7 2433.6,950.2 2432.9,935.4 2431.9,920.6 2430.8,905.8 
		2429.5,891.3 2428.1,876.5 2426.3,861.7 2424.6,847.2 2422.6,832.4 2420.5,817.9 2418.4,803.1 2416,788.6 2413.3,774.1 
		2410.5,759.3 2407.7,744.8 2404.6,730.4 2401.5,715.9 2398.4,701.8 2395,687.3 2391.2,672.8 2387.4,658.7 2383.6,644.5 
		2379.5,630.1 2375.3,615.9 2371.2,601.8 2366.7,587.7 2361.9,573.9 2357.1,559.8 2352.3,546 2347.1,531.9 2341.9,518.1 
		2336.4,504.3 2330.9,490.5 2325.4,477.1 2319.5,463.3 2313.7,449.8 2307.4,436.4 2301.2,422.9 2295,409.5 2288.5,396.4 2281.9,383 
		2275.1,369.9 2268.2,356.8 2260.9,344 2253.7,330.9 2246.4,318.2 2239.2,305.4 2231.6,292.7 2223.7,280.3 2215.8,267.5 
		2207.8,255.1 2199.9,242.7 2191.6,230.6 2183,218.2 2174.8,206.2 2166.1,194.1 1880.4,401.6 1887,410.5 1893.5,419.8 1899.7,428.8 
		1905.9,438.1 1911.8,447.4 1918,456.7 1923.9,466 1929.7,475.7 1935.2,485 1940.7,494.6 1946.3,504.3 1951.8,513.9 1956.9,523.6 
		1962.1,533.6 1967.3,543.2 1972.5,553.2 1977.3,563.2 1982.1,573.2 1986.6,583.2 1991.1,593.5 1995.5,603.5 2000,613.9 
		2004.2,623.9 2008.3,634.2 2012.4,644.5 2016.2,654.9 2020,665.2 2023.8,675.9 2027.6,686.3 2031,696.9 2034.1,707.3 2037.6,718 
		2040.7,728.6 2043.8,739.3 2046.6,750 2049.3,760.7 2052.1,771.4 2054.8,782.4 2057.2,793.1 2059.6,803.8 2061.7,814.8 
		2064.1,825.5 2065.9,836.5 2067.9,847.5 2069.6,858.2 2071.4,869.3 2073.1,880.3 2074.5,891.3 2075.8,902.3 2076.9,913.4 
		2077.9,924.4 2078.9,935.4 2080,946.5 2080.7,957.5 2081.4,968.5 2081.7,979.5 2082.1,990.9 2082.4,1001.9 2082.7,1013 
		2082.7,1024 2435.7,1024 2435.7,1009.2 	"/>
	<polygon class="st0" points="-253.2,422.9 -247,409.5 -240.5,396.4 -233.9,383 -227.1,369.9 -220.2,356.8 -212.9,344 -205.7,330.9 
		-198.4,318.2 -191.2,305.4 -183.6,292.7 -175.7,280.3 -167.8,267.5 -159.8,255.1 -151.9,242.7 -143.6,230.6 -135,218.2 
		-126.8,206.2 -118.1,194.1 -109.2,182.4 -100.6,170.7 -91.3,158.9 -82.3,147.2 -73,135.5 -63.7,124.1 -54.4,112.8 -44.7,101.7 
		-34.7,90.4 -25.1,79.3 -15.1,68.7 -5.1,57.6 5.2,46.9 15.6,36.3 25.9,25.9 36.3,15.6 46.9,5.2 57.6,-5.1 68.7,-15.1 79.3,-25.1 
		90.4,-34.7 101.7,-44.7 112.8,-54.4 124.1,-63.7 135.5,-73 147.2,-82.3 158.9,-91.3 170.7,-100.6 182.4,-109.2 194.1,-118.1 
		206.2,-126.8 218.2,-135 230.6,-143.6 242.7,-151.9 255.1,-159.8 267.5,-167.8 280.3,-175.7 292.7,-183.6 305.4,-191.2 
		318.2,-198.4 330.9,-205.7 344,-212.9 356.8,-220.2 369.9,-227.1 383,-233.9 396.4,-240.5 409.5,-247 422.9,-253.2 436.4,-259.4 
		449.8,-265.7 463.3,-271.5 477.1,-277.4 490.5,-282.9 504.3,-288.4 518.1,-293.9 531.9,-299.1 546,-304.3 559.8,-309.1 
		573.9,-313.9 587.7,-318.7 478.8,-654.1 461.2,-648.5 443.6,-642.3 426.4,-636.1 408.8,-629.9 391.6,-623.4 374.3,-616.5 
		357.1,-609.6 340.2,-602.7 323.3,-595.5 306.5,-587.9 289.6,-580.3 272.7,-572.7 256.1,-564.8 239.3,-556.5 223.1,-548.3 
		206.5,-539.6 190.3,-531 173.8,-522.4 157.9,-513.4 141.7,-504.1 125.9,-494.8 110,-485.2 94.2,-475.5 78.6,-465.9 62.8,-455.9 
		47.6,-445.9 32.1,-435.6 17,-424.9 1.8,-414.2 -13,-403.5 -28.2,-392.5 -43,-381.4 -57.5,-370.4 -72,-359 -86.4,-347.3 
		-100.9,-335.6 -115,-323.9 -129.2,-311.8 -143,-299.8 -156.7,-287.4 -170.5,-275 -184,-262.2 -197.4,-249.5 -210.5,-236.7 
		-223.6,-223.6 -236.7,-210.5 -249.5,-197.4 -262.2,-184 -275,-170.5 -287.4,-156.7 -299.8,-143 -311.8,-129.2 -323.9,-115 
		-335.6,-100.9 -347.3,-86.4 -359,-72 -370.4,-57.5 -381.4,-43 -392.5,-28.2 -403.5,-13 -414.2,1.8 -424.9,17 -435.6,32.1 
		-445.9,47.6 -455.9,62.8 -465.9,78.6 -475.5,94.2 -485.2,110 -494.8,125.9 -504.1,141.7 -513.4,157.9 -522.4,173.8 -531,190.3 
		-539.6,206.5 -548.3,223.1 -556.5,239.3 -564.8,256.1 -572.7,272.7 -580.3,289.6 -587.9,306.5 -595.5,323.3 -602.7,340.2 
		-609.6,357.1 -616.5,374.3 -623.4,391.6 -629.9,408.8 -636.1,426.4 -642.3,443.6 -648.5,461.2 -654.1,478.8 -659.9,496.4 
		-665.1,513.9 -670.6,531.9 -675.4,549.4 -680.6,567.3 -685.1,585.3 -689.6,603.2 -694,621.1 -698.2,639 -702,657 -356.6,730.4 
		-353.5,715.9 -350.4,701.8 -347,687.3 -343.2,672.8 -339.4,658.7 -335.6,644.5 -331.5,630.1 -327.3,615.9 -323.2,601.8 
		-318.7,587.7 -313.9,573.9 -309.1,559.8 -304.3,546 -299.1,531.9 -293.9,518.1 -288.4,504.3 -282.9,490.5 -277.4,477.1 
		-271.5,463.3 -265.7,449.8 -259.4,436.4 	"/>
	<polygon class="st4" points="-387.3,994.4 -387,979.5 -386.3,964.7 -385.6,950.2 -384.9,935.4 -383.9,920.6 -382.8,905.8 
		-381.4,891.3 -380.1,876.5 -378.3,861.7 -376.6,847.2 -374.6,832.4 -372.5,817.9 -370.4,803.1 -368,788.6 -365.3,774.1 
		-362.5,759.3 -359.7,744.8 -356.6,730.4 -702,657 -705.8,675.2 -709.2,693.5 -712.7,711.4 -715.8,729.7 -718.9,747.9 -721.6,766.2 
		-724.4,784.5 -726.8,802.7 -728.8,821.4 -730.9,839.6 -732.6,857.9 -734.4,876.5 -735.7,894.8 -737.1,913.4 -738.2,931.6 
		-739.2,950.2 -739.5,968.5 -740.2,987.1 -740.6,1005.4 -740.6,1024 -387.7,1024 -387.7,1009.2 	"/>
	<polygon class="st0" points="2788.2,987.1 2787.5,968.5 2787.2,950.2 2786.2,931.6 2785.1,913.4 2783.7,894.8 2782.4,876.5 
		2780.6,857.9 2778.9,839.6 2776.8,821.4 2774.8,802.7 2772.4,784.5 2769.6,766.2 2766.9,747.9 2763.8,729.7 2760.7,711.4 
		2757.2,693.5 2753.8,675.2 2750,657 2746.2,639 2742,621.1 2737.6,603.2 2733.1,585.3 2728.6,567.3 2723.4,549.4 2718.6,531.9 
		2713.1,513.9 2707.9,496.4 2702.1,478.8 2696.5,461.2 2690.3,443.6 2684.1,426.4 2677.9,408.8 2671.4,391.6 2664.5,374.3 
		2657.6,357.1 2650.7,340.2 2643.5,323.3 2635.9,306.5 2628.3,289.6 2620.7,272.7 2612.8,256.1 2604.5,239.3 2596.3,223.1 
		2587.6,206.5 2579,190.3 2570.4,173.8 2561.4,157.9 2552.1,141.7 2542.8,125.9 2533.2,110 2523.5,94.2 2513.9,78.6 2503.9,62.8 
		2493.9,47.6 2483.6,32.1 2472.9,17 2462.2,1.8 2451.5,-13 2440.5,-28.2 2429.5,-43 2418.4,-57.5 2407,-72 2395.3,-86.4 
		2383.6,-100.9 2371.9,-115 2359.8,-129.2 2347.8,-143 2335.4,-156.7 2323,-170.5 2310.2,-184 2297.5,-197.4 2284.7,-210.5 
		2271.6,-223.6 2258.5,-236.7 2245.4,-249.5 2232,-262.2 2218.5,-275 2204.7,-287.4 1968.7,-25.1 1979.3,-15.1 1990.4,-5.1 
		2001.1,5.2 2011.7,15.6 2022.1,25.9 2032.4,36.3 2042.8,46.9 2053.1,57.6 2063.1,68.7 2073.1,79.3 2082.7,90.4 2092.7,101.7 
		2102.4,112.8 2111.7,124.1 2121,135.5 2130.3,147.2 2139.3,158.9 2148.6,170.7 2157.2,182.4 2166.1,194.1 2174.8,206.2 2183,218.2 
		2191.6,230.6 2199.9,242.7 2207.8,255.1 2215.8,267.5 2223.7,280.3 2231.6,292.7 2239.2,305.4 2246.4,318.2 2253.7,330.9 
		2260.9,344 2268.2,356.8 2275.1,369.9 2281.9,383 2288.5,396.4 2295,409.5 2301.2,422.9 2307.4,436.4 2313.7,449.8 2319.5,463.3 
		2325.4,477.1 2330.9,490.5 2336.4,504.3 2341.9,518.1 2347.1,531.9 2352.3,546 2357.1,559.8 2361.9,573.9 2366.7,587.7 
		2371.2,601.8 2375.3,615.9 2379.5,630.1 2383.6,644.5 2387.4,658.7 2391.2,672.8 2395,687.3 2398.4,701.8 2401.5,715.9 
		2404.6,730.4 2407.7,744.8 2410.5,759.3 2413.3,774.1 2416,788.6 2418.4,803.1 2420.5,817.9 2422.6,832.4 2424.6,847.2 
		2426.3,861.7 2428.1,876.5 2429.5,891.3 2430.8,905.8 2431.9,920.6 2432.9,935.4 2433.6,950.2 2434.3,964.7 2435,979.5 
		2435.3,994.4 2435.7,1009.2 2435.7,1024 2788.6,1024 2788.6,1005.4 	"/>
	<polygon class="st4" points="1874.2,-522.4 1857.7,-531 1841.5,-539.6 1824.9,-548.3 1808.7,-556.5 1791.9,-564.8 1775.3,-572.7 
		1758.4,-580.3 1741.5,-587.9 1724.7,-595.5 1707.8,-602.7 1690.9,-609.6 1673.7,-616.5 1656.4,-623.4 1639.2,-629.9 1621.6,-636.1 
		1604.4,-642.3 1586.8,-648.5 1569.2,-654.1 1551.6,-659.9 1534.1,-665.1 1516.1,-670.6 1498.6,-675.4 1480.7,-680.6 1462.7,-685.1 
		1444.8,-689.6 1426.9,-694 1409,-698.2 1391,-702 1372.8,-705.8 1354.5,-709.2 1336.6,-712.7 1318.3,-715.8 1300.1,-718.9 
		1281.8,-721.6 1263.5,-724.4 1245.3,-726.8 1226.6,-728.8 1208.4,-730.9 1190.1,-732.6 1171.5,-734.4 1153.2,-735.7 1134.6,-737.1 
		1116.4,-738.2 1097.8,-739.2 1079.5,-739.5 1060.9,-740.2 1042.6,-740.6 1024,-740.6 1005.4,-740.6 987.1,-740.2 968.5,-739.5 
		950.2,-739.2 931.6,-738.2 913.4,-737.1 894.8,-735.7 876.5,-734.4 857.9,-732.6 839.6,-730.9 821.4,-728.8 802.7,-726.8 
		784.5,-724.4 766.2,-721.6 747.9,-718.9 729.7,-715.8 711.4,-712.7 693.5,-709.2 675.2,-705.8 657,-702 639,-698.2 621.1,-694 
		603.2,-689.6 585.3,-685.1 567.3,-680.6 549.4,-675.4 531.9,-670.6 513.9,-665.1 496.4,-659.9 478.8,-654.1 587.7,-318.7 
		601.8,-323.2 615.9,-327.3 630.1,-331.5 644.5,-335.6 658.7,-339.4 672.8,-343.2 687.3,-347 701.8,-350.4 715.9,-353.5 
		730.4,-356.6 744.8,-359.7 759.3,-362.5 774.1,-365.3 788.6,-368 803.1,-370.4 817.9,-372.5 832.4,-374.6 847.2,-376.6 
		861.7,-378.3 876.5,-380.1 891.3,-381.4 905.8,-382.8 920.6,-383.9 935.4,-384.9 950.2,-385.6 964.7,-386.3 979.5,-387 
		994.4,-387.3 1009.2,-387.7 1024,-387.7 1038.8,-387.7 1053.6,-387.3 1068.5,-387 1083.3,-386.3 1097.8,-385.6 1112.6,-384.9 
		1127.4,-383.9 1142.2,-382.8 1156.7,-381.4 1171.5,-380.1 1186.3,-378.3 1200.8,-376.6 1215.6,-374.6 1230.1,-372.5 1244.9,-370.4 
		1259.4,-368 1273.9,-365.3 1288.7,-362.5 1303.2,-359.7 1317.6,-356.6 1332.1,-353.5 1346.2,-350.4 1360.7,-347 1375.2,-343.2 
		1389.3,-339.4 1403.5,-335.6 1417.9,-331.5 1432.1,-327.3 1446.2,-323.2 1460.3,-318.7 1474.1,-313.9 1488.2,-309.1 1502,-304.3 
		1516.1,-299.1 1529.9,-293.9 1543.7,-288.4 1557.5,-282.9 1570.9,-277.4 1584.7,-271.5 1598.2,-265.7 1611.6,-259.4 1625.1,-253.2 
		1638.5,-247 1651.6,-240.5 1665,-233.9 1678.1,-227.1 1691.2,-220.2 1704,-212.9 1717.1,-205.7 1729.8,-198.4 1742.6,-191.2 
		1755.3,-183.6 1767.7,-175.7 1780.5,-167.8 1792.9,-159.8 1805.3,-151.9 1817.4,-143.6 1829.8,-135 1841.8,-126.8 1853.9,-118.1 
		1865.6,-109.2 1877.3,-100.6 1889.1,-91.3 1900.8,-82.3 1912.5,-73 1923.9,-63.7 1935.2,-54.4 1946.3,-44.7 1957.6,-34.7 
		1968.7,-25.1 2204.7,-287.4 2191,-299.8 2177.2,-311.8 2163,-323.9 2148.9,-335.6 2134.4,-347.3 2120,-359 2105.5,-370.4 
		2091,-381.4 2076.2,-392.5 2061,-403.5 2046.2,-414.2 2031,-424.9 2015.9,-435.6 2000.4,-445.9 1985.2,-455.9 1969.4,-465.9 
		1953.8,-475.5 1938,-485.2 1922.1,-494.8 1906.3,-504.1 1890.1,-513.4 	"/>
	<polygon class="st4" points="3141.1,979.5 3140.4,957.5 3139.8,935.4 3138.7,913 3137.3,891 3136,868.9 3133.9,846.9 3132.2,824.8 
		3129.8,802.7 3127.4,780.7 3124.9,758.6 3121.8,736.6 3118.7,714.5 3115.3,692.8 3111.8,670.7 3108,649 3103.9,627.3 3099.8,605.6 
		3095.3,583.9 3090.5,562.2 3085.6,540.5 3080.5,518.8 3075,497.4 3069.5,476 3063.6,454.7 3057.4,433.3 3051.2,411.9 3044.6,390.9 
		3037.7,369.5 3030.9,348.5 3023.6,327.5 3016.4,306.8 3008.8,285.8 3000.9,265.1 2992.9,244.4 2984.7,224.1 2976.1,203.4 
		2967.4,183.1 2958.5,162.7 2949.2,142.4 2939.9,122.4 2930.6,102.4 2920.6,82.4 2910.6,62.8 2900.6,43.1 2890.2,23.5 2879.6,3.9 
		2868.9,-15.4 2857.8,-34.7 2846.5,-54 2835.1,-73 2823.7,-92 2812,-110.6 2799.9,-129.2 2787.5,-147.8 2775.5,-166 2762.7,-184.3 
		2750,-202.6 2737.2,-220.5 2724.1,-238.4 2710.7,-256.3 2697.2,-273.9 2683.5,-291.2 2669.7,-308.7 2655.5,-325.6 2641.4,-342.9 
		2626.9,-359.7 2612.5,-376.3 2597.6,-392.8 2582.8,-409.4 2567.7,-425.6 2552.1,-441.8 2537,-457.6 2521.1,-473.1 2505.6,-489 
		2489.8,-504.1 2473.6,-519.7 2457.4,-534.8 2440.8,-549.6 2424.3,-564.5 2407.7,-578.9 2390.9,-593.4 2373.6,-607.5 2356.7,-621.7 
		2339.2,-635.5 2321.9,-649.2 2304.3,-662.7 2286.4,-676.1 2268.5,-689.2 2250.6,-702 2232.3,-714.7 2214,-727.5 2195.8,-739.5 
		2177.2,-751.9 2158.6,-764 2140,-775.7 2121,-787.1 2102,-798.5 2082.7,-809.8 1906.3,-504.1 1922.1,-494.8 1938,-485.2 
		1953.8,-475.5 1969.4,-465.9 1985.2,-455.9 2000.4,-445.9 2015.9,-435.6 2031,-424.9 2046.2,-414.2 2061,-403.5 2076.2,-392.5 
		2091,-381.4 2105.5,-370.4 2120,-359 2134.4,-347.3 2148.9,-335.6 2163,-323.9 2177.2,-311.8 2191,-299.8 2204.7,-287.4 
		2218.5,-275 2232,-262.2 2245.4,-249.5 2258.5,-236.7 2271.6,-223.6 2284.7,-210.5 2297.5,-197.4 2310.2,-184 2323,-170.5 
		2335.4,-156.7 2347.8,-143 2359.8,-129.2 2371.9,-115 2383.6,-100.9 2395.3,-86.4 2407,-72 2418.4,-57.5 2429.5,-43 2440.5,-28.2 
		2451.5,-13 2462.2,1.8 2472.9,17 2483.6,32.1 2493.9,47.6 2503.9,62.8 2513.9,78.6 2523.5,94.2 2533.2,110 2542.8,125.9 
		2552.1,141.7 2561.4,157.9 2570.4,173.8 2579,190.3 2587.6,206.5 2596.3,223.1 2604.5,239.3 2612.8,256.1 2620.7,272.7 
		2628.3,289.6 2635.9,306.5 2643.5,323.3 2650.7,340.2 2657.6,357.1 2664.5,374.3 2671.4,391.6 2677.9,408.8 2684.1,426.4 
		2690.3,443.6 2696.5,461.2 2702.1,478.8 2707.9,496.4 2713.1,513.9 2718.6,531.9 2723.4,549.4 2728.6,567.3 2733.1,585.3 
		2737.6,603.2 2742,621.1 2746.2,639 2750,657 2753.8,675.2 2757.2,693.5 2760.7,711.4 2763.8,729.7 2766.9,747.9 2769.6,766.2 
		2772.4,784.5 2774.8,802.7 2776.8,821.4 2778.9,839.6 2780.6,857.9 2782.4,876.5 2783.7,894.8 2785.1,913.4 2786.2,931.6 
		2787.2,950.2 2787.5,968.5 2788.2,987.1 2788.6,1005.4 2788.6,1024 3141.5,1024 3141.5,1001.9 	"/>
	<polygon class="st2" points="2044.1,-831.6 2024.5,-842.2 2004.9,-852.6 1985.2,-862.6 1965.6,-872.6 1945.6,-882.6 1925.6,-891.9 
		1905.6,-901.2 1885.3,-910.5 1864.9,-919.4 1844.6,-928.1 1823.9,-936.7 1803.6,-944.9 1782.9,-952.9 1762.2,-960.8 1741.2,-968.4 
		1720.5,-975.6 1699.5,-982.9 1678.5,-989.7 1657.1,-996.6 1636.1,-1003.2 1614.7,-1009.4 1593.3,-1015.6 1572,-1021.5 
		1550.6,-1027 1529.2,-1032.5 1507.5,-1037.6 1485.8,-1042.5 1464.1,-1047.3 1442.4,-1051.8 1420.7,-1055.9 1399,-1060.1 
		1377.3,-1063.8 1355.2,-1067.3 1333.5,-1070.7 1311.4,-1073.8 1289.4,-1076.9 1267.3,-1079.3 1245.3,-1081.8 1223.2,-1084.2 
		1201.1,-1085.9 1179.1,-1088 1157,-1089.3 1135,-1090.7 1112.6,-1091.8 1090.5,-1092.4 1068.5,-1093.1 1046.1,-1093.5 
		1024,-1093.5 1001.9,-1093.5 979.5,-1093.1 957.5,-1092.4 935.4,-1091.8 913,-1090.7 891,-1089.3 868.9,-1088 846.9,-1085.9 
		824.8,-1084.2 802.7,-1081.8 780.7,-1079.3 758.6,-1076.9 736.6,-1073.8 714.5,-1070.7 692.8,-1067.3 670.7,-1063.8 649,-1060.1 
		627.3,-1055.9 605.6,-1051.8 583.9,-1047.3 562.2,-1042.5 540.5,-1037.6 518.8,-1032.5 497.4,-1027 476,-1021.5 454.7,-1015.6 
		433.3,-1009.4 411.9,-1003.2 390.9,-996.6 369.5,-989.7 348.5,-982.9 327.5,-975.6 306.8,-968.4 285.8,-960.8 265.1,-952.9 
		244.4,-944.9 224.1,-936.7 203.4,-928.1 183.1,-919.4 162.7,-910.5 142.4,-901.2 122.4,-891.9 102.4,-882.6 82.4,-872.6 
		62.8,-862.6 43.1,-852.6 23.5,-842.2 3.9,-831.6 -15.4,-820.9 -34.7,-809.8 141.7,-504.1 157.9,-513.4 173.8,-522.4 190.3,-531 
		206.5,-539.6 223.1,-548.3 239.3,-556.5 256.1,-564.8 272.7,-572.7 289.6,-580.3 306.5,-587.9 323.3,-595.5 340.2,-602.7 
		357.1,-609.6 374.3,-616.5 391.6,-623.4 408.8,-629.9 426.4,-636.1 443.6,-642.3 461.2,-648.5 478.8,-654.1 496.4,-659.9 
		513.9,-665.1 531.9,-670.6 549.4,-675.4 567.3,-680.6 585.3,-685.1 603.2,-689.6 621.1,-694 639,-698.2 657,-702 675.2,-705.8 
		693.5,-709.2 711.4,-712.7 729.7,-715.8 747.9,-718.9 766.2,-721.6 784.5,-724.4 802.7,-726.8 821.4,-728.8 839.6,-730.9 
		857.9,-732.6 876.5,-734.4 894.8,-735.7 913.4,-737.1 931.6,-738.2 950.2,-739.2 968.5,-739.5 987.1,-740.2 1005.4,-740.6 
		1024,-740.6 1042.6,-740.6 1060.9,-740.2 1079.5,-739.5 1097.8,-739.2 1116.4,-738.2 1134.6,-737.1 1153.2,-735.7 1171.5,-734.4 
		1190.1,-732.6 1208.4,-730.9 1226.6,-728.8 1245.3,-726.8 1263.5,-724.4 1281.8,-721.6 1300.1,-718.9 1318.3,-715.8 1336.6,-712.7 
		1354.5,-709.2 1372.8,-705.8 1391,-702 1409,-698.2 1426.9,-694 1444.8,-689.6 1462.7,-685.1 1480.7,-680.6 1498.6,-675.4 
		1516.1,-670.6 1534.1,-665.1 1551.6,-659.9 1569.2,-654.1 1586.8,-648.5 1604.4,-642.3 1621.6,-636.1 1639.2,-629.9 1656.4,-623.4 
		1673.7,-616.5 1690.9,-609.6 1707.8,-602.7 1724.7,-595.5 1741.5,-587.9 1758.4,-580.3 1775.3,-572.7 1791.9,-564.8 1808.7,-556.5 
		1824.9,-548.3 1841.5,-539.6 1857.7,-531 1874.2,-522.4 1890.1,-513.4 1906.3,-504.1 2082.7,-809.8 2063.4,-820.9 	"/>
	<polygon class="st4" points="-740.2,987.1 -739.5,968.5 -739.2,950.2 -738.2,931.6 -737.1,913.4 -735.7,894.8 -734.4,876.5 
		-732.6,857.9 -730.9,839.6 -728.8,821.4 -726.8,802.7 -724.4,784.5 -721.6,766.2 -718.9,747.9 -715.8,729.7 -712.7,711.4 
		-709.2,693.5 -705.8,675.2 -702,657 -698.2,639 -694,621.1 -689.6,603.2 -685.1,585.3 -680.6,567.3 -675.4,549.4 -670.6,531.9 
		-665.1,513.9 -659.9,496.4 -654.1,478.8 -648.5,461.2 -642.3,443.6 -636.1,426.4 -629.9,408.8 -623.4,391.6 -616.5,374.3 
		-609.6,357.1 -602.7,340.2 -595.5,323.3 -587.9,306.5 -580.3,289.6 -572.7,272.7 -564.8,256.1 -556.5,239.3 -548.3,223.1 
		-539.6,206.5 -531,190.3 -522.4,173.8 -513.4,157.9 -504.1,141.7 -494.8,125.9 -485.2,110 -475.5,94.2 -465.9,78.6 -455.9,62.8 
		-445.9,47.6 -435.6,32.1 -424.9,17 -414.2,1.8 -403.5,-13 -392.5,-28.2 -381.4,-43 -370.4,-57.5 -359,-72 -347.3,-86.4 
		-335.6,-100.9 -323.9,-115 -311.8,-129.2 -299.8,-143 -287.4,-156.7 -275,-170.5 -262.2,-184 -249.5,-197.4 -236.7,-210.5 
		-223.6,-223.6 -210.5,-236.7 -197.4,-249.5 -184,-262.2 -170.5,-275 -156.7,-287.4 -143,-299.8 -129.2,-311.8 -115,-323.9 
		-100.9,-335.6 -86.4,-347.3 -72,-359 -57.5,-370.4 -43,-381.4 -28.2,-392.5 -13,-403.5 1.8,-414.2 17,-424.9 32.1,-435.6 
		47.6,-445.9 62.8,-455.9 78.6,-465.9 94.2,-475.5 110,-485.2 125.9,-494.8 141.7,-504.1 -34.7,-809.8 -54,-798.5 -73,-787.1 
		-92,-775.7 -110.6,-764 -129.2,-751.9 -147.8,-739.5 -166,-727.5 -184.3,-714.7 -202.6,-702 -220.5,-689.2 -238.4,-676.1 
		-256.3,-662.7 -273.9,-649.2 -291.2,-635.5 -308.7,-621.7 -325.6,-607.5 -342.9,-593.4 -359.7,-578.9 -376.3,-564.5 -392.8,-549.6 
		-409.4,-534.8 -425.6,-519.7 -441.8,-504.1 -457.6,-489 -473.1,-473.1 -489,-457.6 -504.1,-441.8 -519.7,-425.6 -534.8,-409.4 
		-549.6,-392.8 -564.5,-376.3 -578.9,-359.7 -593.4,-342.9 -607.5,-325.6 -621.7,-308.7 -635.5,-291.2 -649.2,-273.9 -662.7,-256.3 
		-676.1,-238.4 -689.2,-220.5 -702,-202.6 -714.7,-184.3 -727.5,-166 -739.5,-147.8 -751.9,-129.2 -764,-110.6 -775.7,-92 
		-787.1,-73 -798.5,-54 -809.8,-34.7 -820.9,-15.4 -831.6,3.9 -842.2,23.5 -852.6,43.1 -862.6,62.8 -872.6,82.4 -882.6,102.4 
		-891.9,122.4 -901.2,142.4 -910.5,162.7 -919.4,183.1 -928.1,203.4 -936.7,224.1 -944.9,244.4 -952.9,265.1 -960.8,285.8 
		-968.4,306.8 -975.6,327.5 -982.9,348.5 -989.7,369.5 -996.6,390.9 -1003.2,411.9 -1009.4,433.3 -1015.6,454.7 -1021.5,476 
		-1027,497.4 -1032.5,518.8 -1037.6,540.5 -1042.5,562.2 -1047.3,583.9 -1051.8,605.6 -1055.9,627.3 -1060.1,649 -1063.8,670.7 
		-1067.3,692.8 -1070.7,714.5 -1073.8,736.6 -1076.9,758.6 -1079.3,780.7 -1081.8,802.7 -1084.2,824.8 -1085.9,846.9 -1088,868.9 
		-1089.3,891 -1090.7,913 -1091.8,935.4 -1092.4,957.5 -1093.1,979.5 -1093.5,1001.9 -1093.5,1024 -740.6,1024 -740.6,1005.4 	"/>
	<polygon class="st5" points="3493.7,972.3 3493,946.5 3492.3,920.6 3490.9,894.8 3489.6,868.9 3487.8,843.1 3485.8,817.2 
		3483.4,791.4 3481,765.9 3477.9,740 3474.7,714.5 3471.6,688.7 3467.9,663.2 3464.1,637.7 3459.9,612.2 3455.4,586.6 3450.6,561.1 
		3445.8,535.6 3440.3,510.5 3095.3,583.9 3099.8,605.6 3103.9,627.3 3108,649 3111.8,670.7 3115.3,692.8 3118.7,714.5 3121.8,736.6 
		3124.9,758.6 3127.4,780.7 3129.8,802.7 3132.2,824.8 3133.9,846.9 3136,868.9 3137.3,891 3138.7,913 3139.8,935.4 3140.4,957.5 
		3141.1,979.5 3141.5,1001.9 3141.5,1024 3494.4,1024 3494.4,998.2 	"/>
	<polygon class="st0" points="3259.3,-27.8 3248,-51.3 3236.6,-74.4 3225.2,-97.5 3213.2,-120.6 3201.1,-143.3 3188.7,-166 
		3176.3,-188.8 3163.5,-211.2 3150.4,-233.6 3137,-255.7 3123.6,-277.7 3109.8,-299.8 3096,-321.5 3081.5,-343.2 3067.4,-364.6 
		3052.6,-385.9 3037.7,-407 3022.6,-428 3007.4,-449 2991.9,-469.7 2976.1,-490 2960.2,-510.3 2944,-530.7 2927.5,-550.7 
		2910.9,-570.7 2894,-590.3 2877.1,-609.6 2859.9,-628.9 2842.3,-648.2 2824.8,-667.2 2807.2,-685.8 2788.9,-704.4 2771,-723 
		2752.4,-740.9 2733.8,-759.2 2715.2,-776.8 2696.2,-794.3 2676.9,-811.9 2657.6,-829.1 2638.3,-846 2618.7,-862.9 2598.7,-879.5 
		2578.7,-896 2558.3,-912.2 2538,-928.1 2517.7,-943.9 2497,-959.4 2476,-974.6 2455,-989.7 2433.9,-1004.6 2412.6,-1019.4 
		2391.2,-1033.5 2369.5,-1048 2347.8,-1061.8 2325.7,-1075.6 2303.7,-1089 2281.6,-1102.4 2259.2,-1115.5 2236.8,-1128.3 
		2214,-1140.7 2191.3,-1153.1 2168.6,-1165.2 2145.5,-1177.2 2122.4,-1188.6 2099.3,-1200 2075.8,-1211.3 2052.4,-1222 
		2028.6,-1232.7 2005.2,-1243.1 1981.4,-1253.4 1957.3,-1263.4 1933.5,-1273 1909.4,-1282.3 1885.3,-1291.3 1860.8,-1300.3 
		1836.3,-1308.9 1811.9,-1317.5 1787.4,-1325.4 1678.5,-989.7 1699.5,-982.9 1720.5,-975.6 1741.2,-968.4 1762.2,-960.8 
		1782.9,-952.9 1803.6,-944.9 1823.9,-936.7 1844.6,-928.1 1864.9,-919.4 1885.3,-910.5 1905.6,-901.2 1925.6,-891.9 1945.6,-882.6 
		1965.6,-872.6 1985.2,-862.6 2004.9,-852.6 2024.5,-842.2 2044.1,-831.6 2063.4,-820.9 2082.7,-809.8 2102,-798.5 2121,-787.1 
		2140,-775.7 2158.6,-764 2177.2,-751.9 2195.8,-739.5 2214,-727.5 2232.3,-714.7 2250.6,-702 2268.5,-689.2 2286.4,-676.1 
		2304.3,-662.7 2321.9,-649.2 2339.2,-635.5 2356.7,-621.7 2373.6,-607.5 2390.9,-593.4 2407.7,-578.9 2424.3,-564.5 2440.8,-549.6 
		2457.4,-534.8 2473.6,-519.7 2489.8,-504.1 2505.6,-489 2521.1,-473.1 2537,-457.6 2552.1,-441.8 2567.7,-425.6 2582.8,-409.4 
		2597.6,-392.8 2612.5,-376.3 2626.9,-359.7 2641.4,-342.9 2655.5,-325.6 2669.7,-308.7 2683.5,-291.2 2697.2,-273.9 2710.7,-256.3 
		2724.1,-238.4 2737.2,-220.5 2750,-202.6 2762.7,-184.3 2775.5,-166 2787.5,-147.8 2799.9,-129.2 2812,-110.6 2823.7,-92 
		2835.1,-73 2846.5,-54 2857.8,-34.7 2868.9,-15.4 2879.6,3.9 2890.2,23.5 2900.6,43.1 2910.6,62.8 2920.6,82.4 2930.6,102.4 
		2939.9,122.4 2949.2,142.4 2958.5,162.7 2967.4,183.1 2976.1,203.4 2984.7,224.1 2992.9,244.4 3000.9,265.1 3008.8,285.8 
		3016.4,306.8 3023.6,327.5 3030.9,348.5 3037.7,369.5 3044.6,390.9 3051.2,411.9 3057.4,433.3 3063.6,454.7 3069.5,476 3075,497.4 
		3080.5,518.8 3085.6,540.5 3090.5,562.2 3095.3,583.9 3440.3,510.5 3434.8,485 3429.3,459.8 3423.1,434.7 3416.8,409.5 
		3410.3,384.7 3403.4,359.5 3396.2,334.7 3388.9,309.9 3381.4,285.1 3373.4,260.6 3365.5,236.1 3356.9,211.7 3348.3,187.2 
		3339.3,162.7 3330.3,138.6 3321,114.5 3311.4,90.7 3301.4,66.6 3291.1,42.8 3280.7,19.4 3270,-4.4 	"/>
	<polygon class="st5" points="3.9,-831.6 23.5,-842.2 43.1,-852.6 62.8,-862.6 82.4,-872.6 102.4,-882.6 122.4,-891.9 142.4,-901.2 
		162.7,-910.5 183.1,-919.4 203.4,-928.1 224.1,-936.7 244.4,-944.9 265.1,-952.9 285.8,-960.8 306.8,-968.4 327.5,-975.6 
		348.5,-982.9 369.5,-989.7 390.9,-996.6 411.9,-1003.2 433.3,-1009.4 454.7,-1015.6 476,-1021.5 497.4,-1027 518.8,-1032.5 
		540.5,-1037.6 562.2,-1042.5 583.9,-1047.3 605.6,-1051.8 627.3,-1055.9 649,-1060.1 670.7,-1063.8 692.8,-1067.3 714.5,-1070.7 
		736.6,-1073.8 758.6,-1076.9 780.7,-1079.3 802.7,-1081.8 824.8,-1084.2 846.9,-1085.9 868.9,-1088 891,-1089.3 913,-1090.7 
		935.4,-1091.8 957.5,-1092.4 979.5,-1093.1 1001.9,-1093.5 1024,-1093.5 1046.1,-1093.5 1068.5,-1093.1 1090.5,-1092.4 
		1112.6,-1091.8 1135,-1090.7 1157,-1089.3 1179.1,-1088 1201.1,-1085.9 1223.2,-1084.2 1245.3,-1081.8 1267.3,-1079.3 
		1289.4,-1076.9 1311.4,-1073.8 1333.5,-1070.7 1355.2,-1067.3 1377.3,-1063.8 1399,-1060.1 1420.7,-1055.9 1442.4,-1051.8 
		1464.1,-1047.3 1485.8,-1042.5 1507.5,-1037.6 1529.2,-1032.5 1550.6,-1027 1572,-1021.5 1593.3,-1015.6 1614.7,-1009.4 
		1636.1,-1003.2 1657.1,-996.6 1678.5,-989.7 1787.4,-1325.4 1762.9,-1333.4 1738.1,-1340.9 1713.3,-1348.2 1688.5,-1355.4 
		1663.3,-1362.3 1638.5,-1368.8 1613.3,-1375.1 1588.2,-1381.3 1563,-1386.8 1537.5,-1392.3 1512.4,-1397.8 1486.9,-1402.6 
		1461.4,-1407.4 1435.8,-1411.9 1410.3,-1416.1 1384.8,-1419.9 1359.3,-1423.6 1333.5,-1426.7 1308,-1429.9 1282.1,-1433 
		1256.6,-1435.4 1230.8,-1437.8 1204.9,-1439.8 1179.1,-1441.6 1153.2,-1442.9 1127.4,-1444.3 1101.5,-1445 1075.7,-1445.7 
		1049.8,-1446.4 1024,-1446.4 998.2,-1446.4 972.3,-1445.7 946.5,-1445 920.6,-1444.3 894.8,-1442.9 868.9,-1441.6 843.1,-1439.8 
		817.2,-1437.8 791.4,-1435.4 765.9,-1433 740,-1429.9 714.5,-1426.7 688.7,-1423.6 663.2,-1419.9 637.7,-1416.1 612.2,-1411.9 
		586.6,-1407.4 561.1,-1402.6 535.6,-1397.8 510.5,-1392.3 485,-1386.8 459.8,-1381.3 434.7,-1375.1 409.5,-1368.8 384.7,-1362.3 
		359.5,-1355.4 334.7,-1348.2 309.9,-1340.9 285.1,-1333.4 260.6,-1325.4 236.1,-1317.5 211.7,-1308.9 187.2,-1300.3 162.7,-1291.3 
		138.6,-1282.3 114.5,-1273 90.7,-1263.4 66.6,-1253.4 42.8,-1243.1 19.4,-1232.7 -4.4,-1222 -27.8,-1211.3 -51.3,-1200 
		-74.4,-1188.6 -97.5,-1177.2 -120.6,-1165.2 -143.3,-1153.1 -166,-1140.7 -188.8,-1128.3 -211.2,-1115.5 -233.6,-1102.4 
		-255.7,-1089 -277.7,-1075.6 -299.8,-1061.8 -321.5,-1048 -343.2,-1033.5 -364.6,-1019.4 -385.9,-1004.6 -407,-989.7 -428,-974.6 
		-449,-959.4 -469.7,-943.9 -490,-928.1 -510.3,-912.2 -530.7,-896 -550.7,-879.5 -570.7,-862.9 -590.3,-846 -609.6,-829.1 
		-628.9,-811.9 -392.8,-549.6 -376.3,-564.5 -359.7,-578.9 -342.9,-593.4 -325.6,-607.5 -308.7,-621.7 -291.2,-635.5 -273.9,-649.2 
		-256.3,-662.7 -238.4,-676.1 -220.5,-689.2 -202.6,-702 -184.3,-714.7 -166,-727.5 -147.8,-739.5 -129.2,-751.9 -110.6,-764 
		-92,-775.7 -73,-787.1 -54,-798.5 -34.7,-809.8 -15.4,-820.9 	"/>
	<polygon class="st0" points="-1093.1,979.5 -1092.4,957.5 -1091.8,935.4 -1090.7,913 -1089.3,891 -1088,868.9 -1085.9,846.9 
		-1084.2,824.8 -1081.8,802.7 -1079.3,780.7 -1076.9,758.6 -1073.8,736.6 -1070.7,714.5 -1067.3,692.8 -1063.8,670.7 -1060.1,649 
		-1055.9,627.3 -1051.8,605.6 -1047.3,583.9 -1042.5,562.2 -1037.6,540.5 -1032.5,518.8 -1027,497.4 -1021.5,476 -1015.6,454.7 
		-1009.4,433.3 -1003.2,411.9 -996.6,390.9 -989.7,369.5 -982.9,348.5 -975.6,327.5 -968.4,306.8 -960.8,285.8 -952.9,265.1 
		-944.9,244.4 -936.7,224.1 -928.1,203.4 -919.4,183.1 -910.5,162.7 -901.2,142.4 -891.9,122.4 -882.6,102.4 -872.6,82.4 
		-862.6,62.8 -852.6,43.1 -842.2,23.5 -831.6,3.9 -820.9,-15.4 -809.8,-34.7 -798.5,-54 -787.1,-73 -775.7,-92 -764,-110.6 
		-751.9,-129.2 -739.5,-147.8 -727.5,-166 -714.7,-184.3 -702,-202.6 -689.2,-220.5 -676.1,-238.4 -662.7,-256.3 -649.2,-273.9 
		-635.5,-291.2 -621.7,-308.7 -607.5,-325.6 -593.4,-342.9 -578.9,-359.7 -564.5,-376.3 -549.6,-392.8 -534.8,-409.4 -519.7,-425.6 
		-504.1,-441.8 -489,-457.6 -473.1,-473.1 -457.6,-489 -441.8,-504.1 -425.6,-519.7 -409.4,-534.8 -392.8,-549.6 -628.9,-811.9 
		-648.2,-794.3 -667.2,-776.8 -685.8,-759.2 -704.4,-740.9 -723,-723 -740.9,-704.4 -759.2,-685.8 -776.8,-667.2 -794.3,-648.2 
		-811.9,-628.9 -829.1,-609.6 -846,-590.3 -862.9,-570.7 -879.5,-550.7 -896,-530.7 -912.2,-510.3 -928.1,-490 -943.9,-469.7 
		-959.4,-449 -974.6,-428 -989.7,-407 -1004.6,-385.9 -1019.4,-364.6 -1033.5,-343.2 -1048,-321.5 -1061.8,-299.8 -1075.6,-277.7 
		-1089,-255.7 -1102.4,-233.6 -1115.5,-211.2 -1128.3,-188.8 -1140.7,-166 -1153.1,-143.3 -1165.2,-120.6 -1177.2,-97.5 
		-1188.6,-74.4 -1200,-51.3 -1211.3,-27.8 -1222,-4.4 -1232.7,19.4 -1243.1,42.8 -1253.4,66.6 -1263.4,90.7 -1273,114.5 
		-1282.3,138.6 -1291.3,162.7 -1300.3,187.2 -1308.9,211.7 -1317.5,236.1 -1325.4,260.6 -1333.4,285.1 -1340.9,309.9 -1348.2,334.7 
		-1355.4,359.5 -1362.3,384.7 -1368.8,409.5 -1375.1,434.7 -1381.3,459.8 -1386.8,485 -1392.3,510.5 -1397.8,535.6 -1402.6,561.1 
		-1407.4,586.6 -1411.9,612.2 -1416.1,637.7 -1419.9,663.2 -1423.6,688.7 -1426.7,714.5 -1429.9,740 -1433,765.9 -1435.4,791.4 
		-1437.8,817.2 -1439.8,843.1 -1441.6,868.9 -1442.9,894.8 -1444.3,920.6 -1445,946.5 -1445.7,972.3 -1446.4,998.2 -1446.4,1024 
		-1093.5,1024 -1093.5,1001.9 	"/>
	<polygon class="st3" points="3846.6,964.7 3845.9,935.4 3844.9,905.8 3843.5,876.1 3841.8,846.9 3839.7,817.2 3837.3,787.9 
		3834.9,758.3 3831.8,729 3828.7,699.3 3824.9,670.1 3821.1,640.8 3817,611.5 3812.5,582.2 3807.7,553.2 3802.8,523.9 3797.3,495 
		3791.5,466 3785.6,437.1 3779.4,408.1 3772.9,379.2 3766,350.6 3758.7,322 3751.2,293.4 3743.2,264.8 3735.3,236.5 3726.7,207.9 
		3718.1,179.6 3709.1,151.7 3699.8,123.5 3690.2,95.5 3680.5,67.6 3670.2,39.7 3659.8,12.1 3649.1,-15.4 3638.1,-42.7 3626.7,-70.2 
		3615,-97.1 3603.3,-124.3 3280.7,19.4 3291.1,42.8 3301.4,66.6 3311.4,90.7 3321,114.5 3330.3,138.6 3339.3,162.7 3348.3,187.2 
		3356.9,211.7 3365.5,236.1 3373.4,260.6 3381.4,285.1 3388.9,309.9 3396.2,334.7 3403.4,359.5 3410.3,384.7 3416.8,409.5 
		3423.1,434.7 3429.3,459.8 3434.8,485 3440.3,510.5 3445.8,535.6 3450.6,561.1 3455.4,586.6 3459.9,612.2 3464.1,637.7 
		3467.9,663.2 3471.6,688.7 3474.7,714.5 3477.9,740 3481,765.9 3483.4,791.4 3485.8,817.2 3487.8,843.1 3489.6,868.9 3490.9,894.8 
		3492.3,920.6 3493,946.5 3493.7,972.3 3494.4,998.2 3494.4,1024 3847.3,1024 3847.3,994.4 	"/>
	<polygon class="st4" points="3272.8,-683 3254.9,-706.4 3236.6,-729.5 3218,-752.6 3199.4,-775.7 3180.4,-798.5 3161.1,-820.9 
		3141.8,-842.9 3122.2,-865.3 3102.2,-887 3082.2,-908.8 3061.9,-930.1 3041.2,-951.5 3020.5,-972.5 2999.5,-993.2 2978.1,-1013.9 
		2956.8,-1034.2 2935,-1054.2 2913.3,-1074.2 2890.9,-1093.8 2868.9,-1113.1 2846.5,-1132.4 2823.7,-1151.4 2800.6,-1170 
		2777.5,-1188.6 2754.4,-1206.9 2731,-1224.8 2707.2,-1242.7 2683.5,-1259.9 2659.3,-1277.5 2635.2,-1294.4 2611.1,-1310.9 
		2586.3,-1327.5 2561.8,-1343.7 2536.6,-1359.9 2511.8,-1375.4 2486.7,-1390.9 2461.2,-1406.1 2435.7,-1420.9 2409.8,-1435.7 
		2384.3,-1450.2 2358.1,-1464.3 2331.9,-1478.1 2305.7,-1491.5 2279.2,-1505 2252.6,-1517.7 2226.1,-1530.5 2199.2,-1542.9 
		2172.3,-1555.3 2145.1,-1567 2118.2,-1578.7 2090.7,-1590.1 2063.4,-1601.1 2035.9,-1611.8 2008.3,-1622.2 1980.4,-1632.5 
		1952.5,-1642.2 1924.5,-1651.8 1896.3,-1661.1 1868.4,-1670.1 1840.1,-1678.7 1811.5,-1687.3 1783.2,-1695.2 1754.6,-1703.2 
		1726,-1710.7 1697.4,-1718 1668.8,-1724.9 1639.9,-1731.4 1610.9,-1737.6 1582,-1743.5 1553,-1749.3 1524.1,-1754.8 
		1494.8,-1759.7 1465.8,-1764.5 1436.5,-1769 1407.2,-1773.1 1377.9,-1776.9 1348.7,-1780.7 1319,-1783.8 1282.1,-1433 
		1308,-1429.9 1333.5,-1426.7 1359.3,-1423.6 1384.8,-1419.9 1410.3,-1416.1 1435.8,-1411.9 1461.4,-1407.4 1486.9,-1402.6 
		1512.4,-1397.8 1537.5,-1392.3 1563,-1386.8 1588.2,-1381.3 1613.3,-1375.1 1638.5,-1368.8 1663.3,-1362.3 1688.5,-1355.4 
		1713.3,-1348.2 1738.1,-1340.9 1762.9,-1333.4 1787.4,-1325.4 1811.9,-1317.5 1836.3,-1308.9 1860.8,-1300.3 1885.3,-1291.3 
		1909.4,-1282.3 1933.5,-1273 1957.3,-1263.4 1981.4,-1253.4 2005.2,-1243.1 2028.6,-1232.7 2052.4,-1222 2075.8,-1211.3 
		2099.3,-1200 2122.4,-1188.6 2145.5,-1177.2 2168.6,-1165.2 2191.3,-1153.1 2214,-1140.7 2236.8,-1128.3 2259.2,-1115.5 
		2281.6,-1102.4 2303.7,-1089 2325.7,-1075.6 2347.8,-1061.8 2369.5,-1048 2391.2,-1033.5 2412.6,-1019.4 2433.9,-1004.6 
		2455,-989.7 2476,-974.6 2497,-959.4 2517.7,-943.9 2538,-928.1 2558.3,-912.2 2578.7,-896 2598.7,-879.5 2618.7,-862.9 
		2638.3,-846 2657.6,-829.1 2676.9,-811.9 2696.2,-794.3 2715.2,-776.8 2733.8,-759.2 2752.4,-740.9 2771,-723 2788.9,-704.4 
		2807.2,-685.8 2824.8,-667.2 2842.3,-648.2 2859.9,-628.9 2877.1,-609.6 2894,-590.3 2910.9,-570.7 2927.5,-550.7 2944,-530.7 
		2960.2,-510.3 2976.1,-490 2991.9,-469.7 3007.4,-449 3022.6,-428 3037.7,-407 3052.6,-385.9 3067.4,-364.6 3081.5,-343.2 
		3096,-321.5 3109.8,-299.8 3123.6,-277.7 3137,-255.7 3150.4,-233.6 3163.5,-211.2 3176.3,-188.8 3188.7,-166 3201.1,-143.3 
		3213.2,-120.6 3225.2,-97.5 3236.6,-74.4 3248,-51.3 3259.3,-27.8 3270,-4.4 3280.7,19.4 3603.3,-124.3 3590.9,-151.2 
		3578.5,-178.1 3565.7,-204.6 3553,-231.2 3539.5,-257.7 3526.1,-283.9 3512.3,-310.1 3498.2,-336.3 3483.7,-361.8 3468.9,-387.7 
		3454.1,-413.2 3438.9,-438.7 3423.4,-463.8 3407.9,-488.6 3391.7,-513.8 3375.5,-538.3 3358.9,-563.1 3342.4,-587.2 3325.5,-611.3 
		3307.9,-635.5 3290.7,-659.2 	"/>
	<polygon class="st3" points="-590.3,-846 -570.7,-862.9 -550.7,-879.5 -530.7,-896 -510.3,-912.2 -490,-928.1 -469.7,-943.9 
		-449,-959.4 -428,-974.6 -407,-989.7 -385.9,-1004.6 -364.6,-1019.4 -343.2,-1033.5 -321.5,-1048 -299.8,-1061.8 -277.7,-1075.6 
		-255.7,-1089 -233.6,-1102.4 -211.2,-1115.5 -188.8,-1128.3 -166,-1140.7 -143.3,-1153.1 -120.6,-1165.2 -97.5,-1177.2 
		-74.4,-1188.6 -51.3,-1200 -27.8,-1211.3 -4.4,-1222 19.4,-1232.7 42.8,-1243.1 66.6,-1253.4 90.7,-1263.4 114.5,-1273 
		138.6,-1282.3 162.7,-1291.3 187.2,-1300.3 211.7,-1308.9 236.1,-1317.5 260.6,-1325.4 285.1,-1333.4 309.9,-1340.9 334.7,-1348.2 
		359.5,-1355.4 384.7,-1362.3 409.5,-1368.8 434.7,-1375.1 459.8,-1381.3 485,-1386.8 510.5,-1392.3 535.6,-1397.8 561.1,-1402.6 
		586.6,-1407.4 612.2,-1411.9 637.7,-1416.1 663.2,-1419.9 688.7,-1423.6 714.5,-1426.7 740,-1429.9 765.9,-1433 791.4,-1435.4 
		817.2,-1437.8 843.1,-1439.8 868.9,-1441.6 894.8,-1442.9 920.6,-1444.3 946.5,-1445 972.3,-1445.7 998.2,-1446.4 1024,-1446.4 
		1049.8,-1446.4 1075.7,-1445.7 1101.5,-1445 1127.4,-1444.3 1153.2,-1442.9 1179.1,-1441.6 1204.9,-1439.8 1230.8,-1437.8 
		1256.6,-1435.4 1282.1,-1433 1319,-1783.8 1289.7,-1786.9 1260.1,-1789.3 1230.8,-1791.7 1201.1,-1793.8 1171.9,-1795.5 
		1142.2,-1796.9 1112.6,-1797.9 1083.3,-1798.6 1053.6,-1799.3 1024,-1799.3 994.4,-1799.3 964.7,-1798.6 935.4,-1797.9 
		905.8,-1796.9 876.1,-1795.5 846.9,-1793.8 817.2,-1791.7 787.9,-1789.3 758.3,-1786.9 729,-1783.8 699.3,-1780.7 670.1,-1776.9 
		640.8,-1773.1 611.5,-1769 582.2,-1764.5 553.2,-1759.7 523.9,-1754.8 495,-1749.3 466,-1743.5 437.1,-1737.6 408.1,-1731.4 
		379.2,-1724.9 350.6,-1718 322,-1710.7 293.4,-1703.2 264.8,-1695.2 236.5,-1687.3 207.9,-1678.7 179.6,-1670.1 151.7,-1661.1 
		123.5,-1651.8 95.5,-1642.2 67.6,-1632.5 39.7,-1622.2 12.1,-1611.8 -15.4,-1601.1 -42.7,-1590.1 -70.2,-1578.7 -97.1,-1567 
		-124.3,-1555.3 -151.2,-1542.9 -178.1,-1530.5 -204.6,-1517.7 -231.2,-1505 -257.7,-1491.5 -283.9,-1478.1 -310.1,-1464.3 
		-336.3,-1450.2 -361.8,-1435.7 -387.7,-1420.9 -413.2,-1406.1 -438.7,-1390.9 -463.8,-1375.4 -488.6,-1359.9 -513.8,-1343.7 
		-538.3,-1327.5 -563.1,-1310.9 -587.2,-1294.4 -611.3,-1277.5 -635.5,-1259.9 -659.2,-1242.7 -683,-1224.8 -706.4,-1206.9 
		-729.5,-1188.6 -752.6,-1170 -775.7,-1151.4 -798.5,-1132.4 -820.9,-1113.1 -842.9,-1093.8 -865.3,-1074.2 -887,-1054.2 
		-908.8,-1034.2 -930.1,-1013.9 -951.5,-993.2 -972.5,-972.5 -993.2,-951.5 -1013.9,-930.1 -1034.2,-908.8 -1054.2,-887 
		-1074.2,-865.3 -1093.8,-842.9 -1113.1,-820.9 -1132.4,-798.5 -1151.4,-775.7 -1170,-752.6 -1188.6,-729.5 -1206.9,-706.4 
		-1224.8,-683 -1242.7,-659.2 -1259.9,-635.5 -974.6,-428 -959.4,-449 -943.9,-469.7 -928.1,-490 -912.2,-510.3 -896,-530.7 
		-879.5,-550.7 -862.9,-570.7 -846,-590.3 -829.1,-609.6 -811.9,-628.9 -794.3,-648.2 -776.8,-667.2 -759.2,-685.8 -740.9,-704.4 
		-723,-723 -704.4,-740.9 -685.8,-759.2 -667.2,-776.8 -648.2,-794.3 -628.9,-811.9 -609.6,-829.1 	"/>
	<polygon class="st4" points="-1445.7,972.3 -1445,946.5 -1444.3,920.6 -1442.9,894.8 -1441.6,868.9 -1439.8,843.1 -1437.8,817.2 
		-1435.4,791.4 -1433,765.9 -1429.9,740 -1426.7,714.5 -1423.6,688.7 -1419.9,663.2 -1416.1,637.7 -1411.9,612.2 -1407.4,586.6 
		-1402.6,561.1 -1397.8,535.6 -1392.3,510.5 -1386.8,485 -1381.3,459.8 -1375.1,434.7 -1368.8,409.5 -1362.3,384.7 -1355.4,359.5 
		-1348.2,334.7 -1340.9,309.9 -1333.4,285.1 -1325.4,260.6 -1317.5,236.1 -1308.9,211.7 -1300.3,187.2 -1291.3,162.7 -1282.3,138.6 
		-1273,114.5 -1263.4,90.7 -1253.4,66.6 -1243.1,42.8 -1232.7,19.4 -1222,-4.4 -1211.3,-27.8 -1200,-51.3 -1188.6,-74.4 
		-1177.2,-97.5 -1165.2,-120.6 -1153.1,-143.3 -1140.7,-166 -1128.3,-188.8 -1115.5,-211.2 -1102.4,-233.6 -1089,-255.7 
		-1075.6,-277.7 -1061.8,-299.8 -1048,-321.5 -1033.5,-343.2 -1019.4,-364.6 -1004.6,-385.9 -989.7,-407 -974.6,-428 
		-1259.9,-635.5 -1277.5,-611.3 -1294.4,-587.2 -1310.9,-563.1 -1327.5,-538.3 -1343.7,-513.8 -1359.9,-488.6 -1375.4,-463.8 
		-1390.9,-438.7 -1406.1,-413.2 -1420.9,-387.7 -1435.7,-361.8 -1450.2,-336.3 -1464.3,-310.1 -1478.1,-283.9 -1491.5,-257.7 
		-1505,-231.2 -1517.7,-204.6 -1530.5,-178.1 -1542.9,-151.2 -1555.3,-124.3 -1567,-97.1 -1578.7,-70.2 -1590.1,-42.7 
		-1601.1,-15.4 -1611.8,12.1 -1622.2,39.7 -1632.5,67.6 -1642.2,95.5 -1651.8,123.5 -1661.1,151.7 -1670.1,179.6 -1678.7,207.9 
		-1687.3,236.5 -1695.2,264.8 -1703.2,293.4 -1710.7,322 -1718,350.6 -1724.9,379.2 -1731.4,408.1 -1737.6,437.1 -1743.5,466 
		-1749.3,495 -1754.8,523.9 -1759.7,553.2 -1764.5,582.2 -1769,611.5 -1773.1,640.8 -1776.9,670.1 -1780.7,699.3 -1783.8,729 
		-1786.9,758.3 -1789.3,787.9 -1791.7,817.2 -1793.8,846.9 -1795.5,876.1 -1796.9,905.8 -1797.9,935.4 -1798.6,964.7 -1799.3,994.4 
		-1799.3,1024 -1446.4,1024 -1446.4,998.2 	"/>
	<polygon class="st2" points="758.3,-1786.9 787.9,-1789.3 817.2,-1791.7 846.9,-1793.8 876.1,-1795.5 905.8,-1796.9 935.4,-1797.9 
		964.7,-1798.6 994.4,-1799.3 1024,-1799.3 1053.6,-1799.3 1083.3,-1798.6 1112.6,-1797.9 1142.2,-1796.9 1171.9,-1795.5 
		1201.1,-1793.8 1230.8,-1791.7 1260.1,-1789.3 1289.7,-1786.9 1319,-1783.8 1348.7,-1780.7 1377.9,-1776.9 1407.2,-1773.1 
		1436.5,-1769 1465.8,-1764.5 1494.8,-1759.7 1524.1,-1754.8 1553,-1749.3 1582,-1743.5 1610.9,-1737.6 1639.9,-1731.4 
		1668.8,-1724.9 1697.4,-1718 1726,-1710.7 1754.6,-1703.2 1783.2,-1695.2 1811.5,-1687.3 1840.1,-1678.7 1868.4,-1670.1 
		1896.3,-1661.1 1924.5,-1651.8 1952.5,-1642.2 1980.4,-1632.5 2008.3,-1622.2 2035.9,-1611.8 2063.4,-1601.1 2090.7,-1590.1 
		2118.2,-1578.7 2145.1,-1567 2172.3,-1555.3 2199.2,-1542.9 2226.1,-1530.5 2252.6,-1517.7 2279.2,-1505 2305.7,-1491.5 
		2331.9,-1478.1 2358.1,-1464.3 2384.3,-1450.2 2409.8,-1435.7 2435.7,-1420.9 2461.2,-1406.1 2486.7,-1390.9 2511.8,-1375.4 
		2536.6,-1359.9 2561.8,-1343.7 2586.3,-1327.5 2611.1,-1310.9 2635.2,-1294.4 2659.3,-1277.5 2683.5,-1259.9 2707.2,-1242.7 
		2731,-1224.8 2754.4,-1206.9 2777.5,-1188.6 2800.6,-1170 2823.7,-1151.4 2846.5,-1132.4 2868.9,-1113.1 2890.9,-1093.8 
		2913.3,-1074.2 2935,-1054.2 2956.8,-1034.2 2978.1,-1013.9 2999.5,-993.2 3020.5,-972.5 3041.2,-951.5 3061.9,-930.1 
		3082.2,-908.8 3102.2,-887 3122.2,-865.3 3141.8,-842.9 3161.1,-820.9 3180.4,-798.5 3199.4,-775.7 3218,-752.6 3236.6,-729.5 
		3254.9,-706.4 3272.8,-683 3290.7,-659.2 3307.9,-635.5 3593.7,-842.9 3574,-869.8 3554,-896.3 3533.7,-922.9 3513.3,-948.7 
		3492.3,-974.9 3471.3,-1000.4 3449.9,-1026.3 3428.2,-1051.4 3406.5,-1076.6 3384.5,-1101.4 3362.1,-1125.9 3339.3,-1150.3 
		3316.6,-1174.5 3293.5,-1198.3 3270,-1222 3246.3,-1245.5 3222.5,-1268.6 3198.3,-1291.3 3173.9,-1314.1 3149.4,-1336.5 
		3124.6,-1358.5 3099.4,-1380.2 3074.3,-1401.9 3048.4,-1423.3 3022.9,-1444.3 2996.7,-1465.3 2970.9,-1485.7 2944.3,-1506 
		2917.8,-1526 2890.9,-1545.7 2864,-1565 2836.8,-1584.3 2809.2,-1602.9 2781.7,-1621.5 2753.8,-1639.7 2725.8,-1657.7 
		2697.6,-1675.6 2669.3,-1692.8 2640.7,-1710 2612.1,-1726.6 2583.2,-1743.1 2554.2,-1759.3 2524.9,-1775.2 2495.6,-1790.7 
		2466,-1806.2 2436.3,-1821 2406.4,-1835.5 2376.4,-1850 2346,-1864.1 2315.7,-1877.5 2285.4,-1891 2254.7,-1904.1 2224,-1916.8 
		2193.4,-1929.2 2162.4,-1941.3 2131,-1953 2100,-1964.4 2068.6,-1975.4 2037.2,-1986.4 2005.5,-1996.8 1973.8,-2006.8 
		1942.1,-2016.8 1910.1,-2026.1 1878,-2035.4 1846,-2044 1813.9,-2052.3 1781.5,-2060.5 1749.1,-2068.5 1716.7,-2075.7 
		1684.3,-2082.9 1651.9,-2089.5 1619.2,-2096 1586.5,-2101.9 1553.7,-2107.8 1521,-2113.3 1487.9,-2118.1 1455.1,-2122.9 
		1422.1,-2127.1 1389,-2131.2 1355.9,-2135 1322.8,-2138.1 1289.7,-2141.2 1256.6,-2143.6 1223.5,-2146 1190.1,-2147.7 
		1157,-2149.5 1123.6,-2150.5 1090.5,-2151.5 1057.4,-2151.9 1024,-2152.2 990.6,-2151.9 957.5,-2151.5 924.4,-2150.5 891,-2149.5 
		857.9,-2147.7 824.5,-2146 791.4,-2143.6 758.3,-2141.2 725.2,-2138.1 692.1,-2135 729,-1783.8 	"/>
	<polygon class="st5" points="-1542.9,-151.2 -1530.5,-178.1 -1517.7,-204.6 -1505,-231.2 -1491.5,-257.7 -1478.1,-283.9 
		-1464.3,-310.1 -1450.2,-336.3 -1435.7,-361.8 -1420.9,-387.7 -1406.1,-413.2 -1390.9,-438.7 -1375.4,-463.8 -1359.9,-488.6 
		-1343.7,-513.8 -1327.5,-538.3 -1310.9,-563.1 -1294.4,-587.2 -1277.5,-611.3 -1259.9,-635.5 -1242.7,-659.2 -1224.8,-683 
		-1206.9,-706.4 -1188.6,-729.5 -1170,-752.6 -1151.4,-775.7 -1132.4,-798.5 -1113.1,-820.9 -1093.8,-842.9 -1074.2,-865.3 
		-1054.2,-887 -1034.2,-908.8 -1013.9,-930.1 -993.2,-951.5 -972.5,-972.5 -951.5,-993.2 -930.1,-1013.9 -908.8,-1034.2 
		-887,-1054.2 -865.3,-1074.2 -842.9,-1093.8 -820.9,-1113.1 -798.5,-1132.4 -775.7,-1151.4 -752.6,-1170 -729.5,-1188.6 
		-706.4,-1206.9 -683,-1224.8 -659.2,-1242.7 -635.5,-1259.9 -611.3,-1277.5 -587.2,-1294.4 -563.1,-1310.9 -538.3,-1327.5 
		-513.8,-1343.7 -488.6,-1359.9 -463.8,-1375.4 -438.7,-1390.9 -413.2,-1406.1 -387.7,-1420.9 -361.8,-1435.7 -336.3,-1450.2 
		-310.1,-1464.3 -283.9,-1478.1 -257.7,-1491.5 -231.2,-1505 -204.6,-1517.7 -178.1,-1530.5 -151.2,-1542.9 -124.3,-1555.3 
		-97.1,-1567 -70.2,-1578.7 -42.7,-1590.1 -15.4,-1601.1 12.1,-1611.8 39.7,-1622.2 67.6,-1632.5 95.5,-1642.2 123.5,-1651.8 
		151.7,-1661.1 179.6,-1670.1 207.9,-1678.7 236.5,-1687.3 264.8,-1695.2 293.4,-1703.2 322,-1710.7 350.6,-1718 379.2,-1724.9 
		408.1,-1731.4 437.1,-1737.6 466,-1743.5 495,-1749.3 523.9,-1754.8 553.2,-1759.7 582.2,-1764.5 611.5,-1769 640.8,-1773.1 
		670.1,-1776.9 699.3,-1780.7 729,-1783.8 692.1,-2135 659,-2131.2 625.9,-2127.1 592.9,-2122.9 560.1,-2118.1 527,-2113.3 
		494.3,-2107.8 461.5,-2101.9 428.8,-2096 396.1,-2089.5 363.7,-2082.9 331.3,-2075.7 298.9,-2068.5 266.5,-2060.5 234.1,-2052.3 
		202,-2044 170,-2035.4 137.9,-2026.1 105.9,-2016.8 74.2,-2006.8 42.5,-1996.8 10.8,-1986.4 -20.6,-1975.4 -52,-1964.4 -83,-1953 
		-114.4,-1941.3 -145.4,-1929.2 -176,-1916.8 -206.7,-1904.1 -237.4,-1891 -267.7,-1877.5 -298,-1864.1 -328.4,-1850 
		-358.4,-1835.5 -388.3,-1821 -418,-1806.2 -447.6,-1790.7 -476.9,-1775.2 -506.2,-1759.3 -535.2,-1743.1 -564.1,-1726.6 
		-592.7,-1710 -621.3,-1692.8 -649.6,-1675.6 -677.8,-1657.7 -705.8,-1639.7 -733.7,-1621.5 -761.2,-1602.9 -788.8,-1584.3 
		-816,-1565 -842.9,-1545.7 -869.8,-1526 -896.3,-1506 -922.9,-1485.7 -948.7,-1465.3 -974.9,-1444.3 -1000.4,-1423.3 
		-1026.3,-1401.9 -1051.4,-1380.2 -1076.6,-1358.5 -1101.4,-1336.5 -1125.9,-1314.1 -1150.3,-1291.3 -1174.5,-1268.6 
		-1198.3,-1245.5 -1222,-1222 -1245.5,-1198.3 -1268.6,-1174.5 -1291.3,-1150.3 -1314.1,-1125.9 -1336.5,-1101.4 -1358.5,-1076.6 
		-1380.2,-1051.4 -1401.9,-1026.3 -1423.3,-1000.4 -1444.3,-974.9 -1465.3,-948.7 -1485.7,-922.9 -1506,-896.3 -1526,-869.8 
		-1545.7,-842.9 -1565,-816 -1584.3,-788.8 -1602.9,-761.2 -1621.5,-733.7 -1639.7,-705.8 -1657.7,-677.8 -1675.6,-649.6 
		-1692.8,-621.3 -1710,-592.7 -1726.6,-564.1 -1743.1,-535.2 -1759.3,-506.2 -1775.2,-476.9 -1790.7,-447.6 -1806.2,-418 
		-1821,-388.3 -1835.5,-358.4 -1850,-328.4 -1864.1,-298 -1877.5,-267.7 -1555.3,-124.3 	"/>
	<polygon class="st2" points="-1798.6,964.7 -1797.9,935.4 -1796.9,905.8 -1795.5,876.1 -1793.8,846.9 -1791.7,817.2 -1789.3,787.9 
		-1786.9,758.3 -1783.8,729 -1780.7,699.3 -1776.9,670.1 -1773.1,640.8 -1769,611.5 -1764.5,582.2 -1759.7,553.2 -1754.8,523.9 
		-1749.3,495 -1743.5,466 -1737.6,437.1 -1731.4,408.1 -1724.9,379.2 -1718,350.6 -1710.7,322 -1703.2,293.4 -1695.2,264.8 
		-1687.3,236.5 -1678.7,207.9 -1670.1,179.6 -1661.1,151.7 -1651.8,123.5 -1642.2,95.5 -1632.5,67.6 -1622.2,39.7 -1611.8,12.1 
		-1601.1,-15.4 -1590.1,-42.7 -1578.7,-70.2 -1567,-97.1 -1555.3,-124.3 -1877.5,-267.7 -1891,-237.4 -1904.1,-206.7 -1916.8,-176 
		-1929.2,-145.4 -1941.3,-114.4 -1953,-83 -1964.4,-52 -1975.4,-20.6 -1986.4,10.8 -1996.8,42.5 -2006.8,74.2 -2016.8,105.9 
		-2026.1,137.9 -2035.4,170 -2044,202 -2052.3,234.1 -2060.5,266.5 -2068.5,298.9 -2075.7,331.3 -2082.9,363.7 -2089.5,396.1 
		-2096,428.8 -2101.9,461.5 -2107.8,494.3 -2113.3,527 -2118.1,560.1 -2122.9,592.9 -2127.1,625.9 -2131.2,659 -2135,692.1 
		-2138.1,725.2 -2141.2,758.3 -2143.6,791.4 -2146,824.5 -2147.7,857.9 -2149.5,891 -2150.5,924.4 -2151.5,957.5 -2151.9,990.6 
		-2152.2,1024 -1799.3,1024 -1799.3,994.4 	"/>
	<polygon class="st5" points="4199.5,957.5 4198.5,924.4 4197.5,891 4195.7,857.9 4194,824.5 4191.6,791.4 4189.2,758.3 
		4186.1,725.2 4183,692.1 4179.2,659 4175.1,625.9 4170.9,592.9 4166.1,560.1 4161.3,527 4155.8,494.3 4149.9,461.5 4144,428.8 
		4137.5,396.1 4130.9,363.7 4123.7,331.3 4116.5,298.9 4108.5,266.5 4100.3,234.1 4092,202 4083.4,170 4074.1,137.9 4064.8,105.9 
		4054.8,74.2 4044.8,42.5 4034.4,10.8 4023.4,-20.6 4012.4,-52 4001,-83 3989.3,-114.4 3977.2,-145.4 3964.8,-176 3952.1,-206.7 
		3939,-237.4 3925.5,-267.7 3912.1,-298 3898,-328.4 3883.5,-358.4 3869,-388.3 3854.2,-418 3838.7,-447.6 3823.2,-476.9 
		3807.3,-506.2 3791.1,-535.2 3774.6,-564.1 3758,-592.7 3740.8,-621.3 3723.6,-649.6 3705.7,-677.8 3687.7,-705.8 3669.5,-733.7 
		3650.9,-761.2 3632.3,-788.8 3613,-816 3593.7,-842.9 3307.9,-635.5 3325.5,-611.3 3342.4,-587.2 3358.9,-563.1 3375.5,-538.3 
		3391.7,-513.8 3407.9,-488.6 3423.4,-463.8 3438.9,-438.7 3454.1,-413.2 3468.9,-387.7 3483.7,-361.8 3498.2,-336.3 3512.3,-310.1 
		3526.1,-283.9 3539.5,-257.7 3553,-231.2 3565.7,-204.6 3578.5,-178.1 3590.9,-151.2 3603.3,-124.3 3615,-97.1 3626.7,-70.2 
		3638.1,-42.7 3649.1,-15.4 3659.8,12.1 3670.2,39.7 3680.5,67.6 3690.2,95.5 3699.8,123.5 3709.1,151.7 3718.1,179.6 3726.7,207.9 
		3735.3,236.5 3743.2,264.8 3751.2,293.4 3758.7,322 3766,350.6 3772.9,379.2 3779.4,408.1 3785.6,437.1 3791.5,466 3797.3,495 
		3802.8,523.9 3807.7,553.2 3812.5,582.2 3817,611.5 3821.1,640.8 3824.9,670.1 3828.7,699.3 3831.8,729 3834.9,758.3 3837.3,787.9 
		3839.7,817.2 3841.8,846.9 3843.5,876.1 3844.9,905.8 3845.9,935.4 3846.6,964.7 3847.3,994.4 3847.3,1024 4200.2,1024 
		4199.9,990.6 	"/>
	<polygon class="st3" points="-2075.7,331.3 -2068.5,298.9 -2060.5,266.5 -2052.3,234.1 -2044,202 -2035.4,170 -2026.1,137.9 
		-2016.8,105.9 -2006.8,74.2 -1996.8,42.5 -1986.4,10.8 -1975.4,-20.6 -1964.4,-52 -1953,-83 -1941.3,-114.4 -1929.2,-145.4 
		-1916.8,-176 -1904.1,-206.7 -1891,-237.4 -1877.5,-267.7 -1864.1,-298 -1850,-328.4 -1835.5,-358.4 -1821,-388.3 -1806.2,-418 
		-1790.7,-447.6 -1775.2,-476.9 -1759.3,-506.2 -1743.1,-535.2 -1726.6,-564.1 -1710,-592.7 -1692.8,-621.3 -1675.6,-649.6 
		-1657.7,-677.8 -1639.7,-705.8 -1621.5,-733.7 -1602.9,-761.2 -1584.3,-788.8 -1565,-816 -1545.7,-842.9 -1526,-869.8 
		-1506,-896.3 -1485.7,-922.9 -1465.3,-948.7 -1444.3,-974.9 -1423.3,-1000.4 -1401.9,-1026.3 -1380.2,-1051.4 -1358.5,-1076.6 
		-1336.5,-1101.4 -1314.1,-1125.9 -1291.3,-1150.3 -1268.6,-1174.5 -1245.5,-1198.3 -1222,-1222 -1198.3,-1245.5 -1174.5,-1268.6 
		-1150.3,-1291.3 -1125.9,-1314.1 -1101.4,-1336.5 -1076.6,-1358.5 -1051.4,-1380.2 -1026.3,-1401.9 -1000.4,-1423.3 
		-974.9,-1444.3 -948.7,-1465.3 -922.9,-1485.7 -896.3,-1506 -869.8,-1526 -842.9,-1545.7 -816,-1565 -788.8,-1584.3 
		-761.2,-1602.9 -733.7,-1621.5 -705.8,-1639.7 -677.8,-1657.7 -649.6,-1675.6 -621.3,-1692.8 -592.7,-1710 -564.1,-1726.6 
		-535.2,-1743.1 -506.2,-1759.3 -476.9,-1775.2 -447.6,-1790.7 -418,-1806.2 -388.3,-1821 -358.4,-1835.5 -328.4,-1850 
		-298,-1864.1 -267.7,-1877.5 -237.4,-1891 -206.7,-1904.1 -176,-1916.8 -145.4,-1929.2 -114.4,-1941.3 -83,-1953 -52,-1964.4 
		-20.6,-1975.4 10.8,-1986.4 42.5,-1996.8 -66.4,-2332.5 -101.6,-2320.8 -136.8,-2308.7 -171.6,-2296.6 -206,-2283.9 
		-240.8,-2270.8 -275.3,-2257.3 -309.4,-2243.6 -343.5,-2229.4 -377.7,-2214.9 -411.4,-2200.1 -445.2,-2185 -478.6,-2169.1 
		-512.1,-2153.3 -545.2,-2137.1 -578.2,-2120.5 -611,-2103.6 -643.7,-2086.4 -676.1,-2068.5 -708.5,-2050.6 -740.6,-2032.3 
		-772.6,-2013.7 -804.3,-1994.7 -835.7,-1975.4 -867.1,-1955.8 -898.1,-1935.8 -929.1,-1915.5 -959.8,-1894.8 -990.1,-1874.1 
		-1020.4,-1852.7 -1050.4,-1831 -1080,-1809.3 -1109.7,-1786.9 -1139,-1764.5 -1168.3,-1741.8 -1196.9,-1718.7 -1225.5,-1695.2 
		-1253.7,-1671.4 -1282,-1647.7 -1309.9,-1623.2 -1337.5,-1598.7 -1364.7,-1573.9 -1391.9,-1548.8 -1418.8,-1523.2 -1445.4,-1497.4 
		-1471.6,-1471.6 -1497.4,-1445.4 -1523.2,-1418.8 -1548.8,-1391.9 -1573.9,-1364.7 -1598.7,-1337.5 -1623.2,-1309.9 -1647.7,-1282 
		-1671.4,-1253.7 -1695.2,-1225.5 -1718.7,-1196.9 -1741.8,-1168.3 -1764.5,-1139 -1786.9,-1109.7 -1809.3,-1080 -1831,-1050.4 
		-1852.7,-1020.4 -1874.1,-990.1 -1894.8,-959.8 -1915.5,-929.1 -1935.8,-898.1 -1955.8,-867.1 -1975.4,-835.7 -1994.7,-804.3 
		-2013.7,-772.6 -2032.3,-740.6 -2050.6,-708.5 -2068.5,-676.1 -2086.4,-643.7 -2103.6,-611 -2120.5,-578.2 -2137.1,-545.2 
		-2153.3,-512.1 -2169.1,-478.6 -2185,-445.2 -2200.1,-411.4 -2214.9,-377.7 -2229.4,-343.5 -2243.6,-309.4 -2257.3,-275.3 
		-2270.8,-240.8 -2283.9,-206 -2296.6,-171.6 -2308.7,-136.8 -2320.8,-101.6 -2332.5,-66.4 -2343.5,-31.3 -2354.5,3.9 -2364.9,39.4 
		-2375.2,74.9 -2384.9,110.7 -2394.2,146.2 -2403.1,182 -2411.7,218.2 -2420,254.1 -2427.9,290.3 -2082.9,363.7 	"/>
	<polygon class="st5" points="-2151.9,990.6 -2151.5,957.5 -2150.5,924.4 -2149.5,891 -2147.7,857.9 -2146,824.5 -2143.6,791.4 
		-2141.2,758.3 -2138.1,725.2 -2135,692.1 -2131.2,659 -2127.1,625.9 -2122.9,592.9 -2118.1,560.1 -2113.3,527 -2107.8,494.3 
		-2101.9,461.5 -2096,428.8 -2089.5,396.1 -2082.9,363.7 -2427.9,290.3 -2435.5,326.4 -2442.8,362.6 -2449.3,399.2 -2455.9,435.4 
		-2461.7,471.9 -2467.2,508.4 -2472.4,544.9 -2477.2,581.8 -2481.7,618.4 -2485.8,655.2 -2489.6,691.8 -2492.7,728.6 -2495.5,765.5 
		-2498.2,802.4 -2500.3,839.3 -2502,876.1 -2503.4,913 -2504.4,950.2 -2504.8,987.1 -2505.1,1024 -2152.2,1024 	"/>
	<polygon class="st3" points="3173.9,-1314.1 3198.3,-1291.3 3222.5,-1268.6 3246.3,-1245.5 3270,-1222 3293.5,-1198.3 
		3316.6,-1174.5 3339.3,-1150.3 3362.1,-1125.9 3384.5,-1101.4 3406.5,-1076.6 3428.2,-1051.4 3449.9,-1026.3 3471.3,-1000.4 
		3492.3,-974.9 3513.3,-948.7 3533.7,-922.9 3554,-896.3 3574,-869.8 3593.7,-842.9 3613,-816 3632.3,-788.8 3650.9,-761.2 
		3669.5,-733.7 3687.7,-705.8 3705.7,-677.8 3723.6,-649.6 3740.8,-621.3 3758,-592.7 3774.6,-564.1 3791.1,-535.2 3807.3,-506.2 
		3823.2,-476.9 3838.7,-447.6 3854.2,-418 3869,-388.3 3883.5,-358.4 3898,-328.4 3912.1,-298 3925.5,-267.7 3939,-237.4 
		3952.1,-206.7 3964.8,-176 3977.2,-145.4 3989.3,-114.4 4001,-83 4012.4,-52 4023.4,-20.6 4034.4,10.8 4044.8,42.5 4054.8,74.2 
		4064.8,105.9 4074.1,137.9 4083.4,170 4092,202 4100.3,234.1 4108.5,266.5 4116.5,298.9 4123.7,331.3 4130.9,363.7 4137.5,396.1 
		4144,428.8 4149.9,461.5 4155.8,494.3 4161.3,527 4166.1,560.1 4170.9,592.9 4175.1,625.9 4179.2,659 4183,692.1 4186.1,725.2 
		4189.2,758.3 4191.6,791.4 4194,824.5 4195.7,857.9 4197.5,891 4198.5,924.4 4199.5,957.5 4199.9,990.6 4200.2,1024 4553.1,1024 
		4552.8,987.1 4552.4,950.2 4551.4,913 4550,876.1 4548.3,839.3 4546.2,802.4 4543.5,765.5 4540.7,728.6 4537.6,691.8 4533.8,655.2 
		4529.7,618.4 4525.2,581.8 4520.4,544.9 4515.2,508.4 4509.7,471.9 4503.9,435.4 4497.3,399.2 4490.8,362.6 4483.5,326.4 
		4475.9,290.3 4468,254.1 4459.7,218.2 4451.1,182 4442.2,146.2 4432.9,110.7 4423.2,74.9 4412.9,39.4 4402.5,3.9 4391.5,-31.3 
		4380.5,-66.4 4368.8,-101.6 4356.7,-136.8 4344.6,-171.6 4331.9,-206 4318.8,-240.8 4305.3,-275.3 4291.6,-309.4 4277.4,-343.5 
		4262.9,-377.7 4248.1,-411.4 4233,-445.2 4217.1,-478.6 4201.3,-512.1 4185.1,-545.2 4168.5,-578.2 4151.6,-611 4134.4,-643.7 
		4116.5,-676.1 4098.6,-708.5 4080.3,-740.6 4061.7,-772.6 4042.7,-804.3 4023.4,-835.7 4003.8,-867.1 3983.8,-898.1 3963.5,-929.1 
		3942.8,-959.8 3922.1,-990.1 3900.7,-1020.4 3879,-1050.4 3857.3,-1080 3834.9,-1109.7 3812.5,-1139 3789.8,-1168.3 
		3766.7,-1196.9 3743.2,-1225.5 3719.4,-1253.7 3695.7,-1282 3671.2,-1309.9 3646.7,-1337.5 3621.9,-1364.7 3596.8,-1391.9 
		3571.2,-1418.8 3545.4,-1445.4 3519.6,-1471.6 3493.4,-1497.4 3466.8,-1523.2 3439.9,-1548.8 3412.7,-1573.9 3385.5,-1598.7 
		3149.4,-1336.5 	"/>
	<polygon class="st5" points="74.2,-2006.8 105.9,-2016.8 137.9,-2026.1 170,-2035.4 202,-2044 234.1,-2052.3 266.5,-2060.5 
		298.9,-2068.5 331.3,-2075.7 363.7,-2082.9 396.1,-2089.5 428.8,-2096 461.5,-2101.9 494.3,-2107.8 527,-2113.3 560.1,-2118.1 
		592.9,-2122.9 625.9,-2127.1 659,-2131.2 692.1,-2135 725.2,-2138.1 758.3,-2141.2 791.4,-2143.6 824.5,-2146 857.9,-2147.7 
		891,-2149.5 924.4,-2150.5 957.5,-2151.5 990.6,-2151.9 1024,-2152.2 1057.4,-2151.9 1090.5,-2151.5 1123.6,-2150.5 1157,-2149.5 
		1190.1,-2147.7 1223.5,-2146 1256.6,-2143.6 1289.7,-2141.2 1322.8,-2138.1 1355.9,-2135 1389,-2131.2 1422.1,-2127.1 
		1455.1,-2122.9 1487.9,-2118.1 1521,-2113.3 1553.7,-2107.8 1586.5,-2101.9 1619.2,-2096 1651.9,-2089.5 1684.3,-2082.9 
		1716.7,-2075.7 1749.1,-2068.5 1781.5,-2060.5 1813.9,-2052.3 1846,-2044 1878,-2035.4 1910.1,-2026.1 1942.1,-2016.8 
		1973.8,-2006.8 2005.5,-1996.8 2037.2,-1986.4 2068.6,-1975.4 2100,-1964.4 2131,-1953 2162.4,-1941.3 2193.4,-1929.2 
		2224,-1916.8 2254.7,-1904.1 2285.4,-1891 2315.7,-1877.5 2346,-1864.1 2376.4,-1850 2406.4,-1835.5 2436.3,-1821 2466,-1806.2 
		2495.6,-1790.7 2524.9,-1775.2 2554.2,-1759.3 2583.2,-1743.1 2612.1,-1726.6 2640.7,-1710 2669.3,-1692.8 2697.6,-1675.6 
		2725.8,-1657.7 2753.8,-1639.7 2781.7,-1621.5 2809.2,-1602.9 2836.8,-1584.3 2864,-1565 2890.9,-1545.7 2917.8,-1526 
		2944.3,-1506 2970.9,-1485.7 2996.7,-1465.3 3022.9,-1444.3 3048.4,-1423.3 3074.3,-1401.9 3099.4,-1380.2 3124.6,-1358.5 
		3149.4,-1336.5 3385.5,-1598.7 3357.9,-1623.2 3330,-1647.7 3301.7,-1671.4 3273.5,-1695.2 3244.9,-1718.7 3216.3,-1741.8 
		3187,-1764.5 3157.7,-1786.9 3128,-1809.3 3098.4,-1831 3068.4,-1852.7 3038.1,-1874.1 3007.8,-1894.8 2977.1,-1915.5 
		2946.1,-1935.8 2915.1,-1955.8 2883.7,-1975.4 2852.3,-1994.7 2820.6,-2013.7 2788.6,-2032.3 2756.5,-2050.6 2724.1,-2068.5 
		2691.7,-2086.4 2659,-2103.6 2626.2,-2120.5 2593.2,-2137.1 2560.1,-2153.3 2526.6,-2169.1 2493.2,-2185 2459.4,-2200.1 
		2425.7,-2214.9 2391.5,-2229.4 2357.4,-2243.6 2323.3,-2257.3 2288.8,-2270.8 2254,-2283.9 2219.6,-2296.6 2184.8,-2308.7 
		2149.6,-2320.8 2114.4,-2332.5 2079.3,-2343.5 2044.1,-2354.5 2008.6,-2364.9 1973.1,-2375.2 1937.3,-2384.9 1901.8,-2394.2 
		1866,-2403.1 1829.8,-2411.7 1793.9,-2420 1757.7,-2427.9 1721.6,-2435.5 1685.4,-2442.8 1648.8,-2449.3 1612.6,-2455.9 
		1576.1,-2461.7 1539.6,-2467.2 1503.1,-2472.4 1466.2,-2477.2 1429.6,-2481.7 1392.8,-2485.8 1356.2,-2489.6 1319.4,-2492.7 
		1282.5,-2495.5 1245.6,-2498.2 1208.7,-2500.3 1171.9,-2502 1135,-2503.4 1097.8,-2504.4 1060.9,-2504.8 1024,-2505.1 
		987.1,-2504.8 950.2,-2504.4 913,-2503.4 876.1,-2502 839.3,-2500.3 802.4,-2498.2 765.5,-2495.5 728.6,-2492.7 691.8,-2489.6 
		655.2,-2485.8 618.4,-2481.7 581.8,-2477.2 544.9,-2472.4 508.4,-2467.2 471.9,-2461.7 435.4,-2455.9 399.2,-2449.3 362.6,-2442.8 
		326.4,-2435.5 290.3,-2427.9 254.1,-2420 218.2,-2411.7 182,-2403.1 146.2,-2394.2 110.7,-2384.9 74.9,-2375.2 39.4,-2364.9 
		3.9,-2354.5 -31.3,-2343.5 -66.4,-2332.5 42.5,-1996.8 	"/>
</g>
</svg>
