<?xml version="1.0" encoding="utf-8"?>
<!-- Generator: Adobe Illustrator 25.2.0, SVG Export Plug-In . SVG Version: 6.00 Build 0)  -->
<svg version="1.1" id="bottom" xmlns="http://www.w3.org/2000/svg" xmlns:xlink="http://www.w3.org/1999/xlink" x="0px" y="0px"
	 viewBox="0 0 2048 2048" style="enable-background:new 0 0 2048 2048;" xml:space="preserve">
<style type="text/css">
	.st0{fill:#0F7225;}
	.st1{fill:#CF0018;}
	.st2{fill:#ED9078;}
	.st3{fill:#E34B0E;}
	.st4{fill:#BA6017;}
	.st5{fill:#6C3115;}
</style>
<polygon class="st0" points="921.6,1026.1 921.7,1027.2 921.7,1028.3 921.7,1029.4 921.8,1030.4 921.9,1031.5 922,1032.6 
	922.1,1033.6 922.2,1034.7 922.3,1035.8 922.4,1036.8 922.5,1037.9 922.7,1039 922.9,1040 923,1041.1 923.2,1042.1 923.4,1043.2 
	923.6,1044.2 923.8,1045.3 924.1,1046.3 924.3,1047.4 924.6,1048.4 924.8,1049.5 925.1,1050.5 925.4,1051.5 925.7,1052.6 
	926,1053.6 926.3,1054.6 926.6,1055.6 926.9,1056.7 927.3,1057.7 927.7,1058.7 928,1059.7 928.4,1060.7 928.8,1061.7 929.2,1062.7 
	929.6,1063.7 930,1064.7 930.5,1065.6 930.9,1066.6 931.3,1067.6 931.8,1068.6 932.3,1069.5 932.8,1070.5 933.3,1071.4 
	933.8,1072.4 934.3,1073.3 934.8,1074.3 935.3,1075.2 935.9,1076.1 936.4,1077 937,1078 937.5,1078.9 938.1,1079.8 938.7,1080.7 
	939.3,1081.6 939.9,1082.4 940.5,1083.3 941.2,1084.2 941.8,1085.1 942.4,1085.9 943.1,1086.8 943.7,1087.6 944.4,1088.4 
	945.1,1089.3 945.8,1090.1 946.5,1090.9 947.2,1091.7 947.9,1092.5 948.6,1093.3 949.4,1094.1 950.1,1094.9 950.8,1095.6 
	951.6,1096.4 952.4,1097.2 953.1,1097.9 953.9,1098.6 954.7,1099.4 955.5,1100.1 956.3,1100.8 957.1,1101.5 957.9,1102.2 
	958.7,1102.9 959.6,1103.6 960.4,1104.3 961.2,1104.9 962.1,1105.6 962.9,1106.2 963.8,1106.8 964.7,1107.5 965.6,1108.1 
	966.4,1108.7 967.3,1109.3 968.2,1109.9 969.1,1110.5 970,1111 971,1111.6 971.9,1112.1 972.8,1112.7 1024,1024 921.6,1024 
	921.6,1025.1 "/>
<polygon class="st0" points="973.7,1113.2 974.7,1113.7 975.6,1114.2 976.6,1114.7 977.5,1115.2 978.5,1115.7 979.4,1116.2 
	980.4,1116.7 981.4,1117.1 982.4,1117.5 983.3,1118 984.3,1118.4 985.3,1118.8 986.3,1119.2 987.3,1119.6 988.3,1120 989.3,1120.3 
	990.3,1120.7 991.3,1121.1 992.4,1121.4 993.4,1121.7 994.4,1122 995.4,1122.3 996.5,1122.6 997.5,1122.9 998.5,1123.2 
	999.6,1123.4 1000.6,1123.7 1001.7,1123.9 1002.7,1124.2 1003.8,1124.4 1004.8,1124.6 1005.9,1124.8 1006.9,1125 1008,1125.1 
	1009,1125.3 1010.1,1125.5 1011.2,1125.6 1012.2,1125.7 1013.3,1125.8 1014.4,1125.9 1015.4,1126 1016.5,1126.1 1017.6,1126.2 
	1018.6,1126.3 1019.7,1126.3 1020.8,1126.3 1021.9,1126.4 1022.9,1126.4 1024,1126.4 1025.1,1126.4 1026.1,1126.4 1027.2,1126.3 
	1028.3,1126.3 1029.4,1126.3 1030.4,1126.2 1031.5,1126.1 1032.6,1126 1033.6,1125.9 1034.7,1125.8 1035.8,1125.7 1036.8,1125.6 
	1037.9,1125.5 1039,1125.3 1040,1125.1 1041.1,1125 1042.1,1124.8 1043.2,1124.6 1044.2,1124.4 1045.3,1124.2 1046.3,1123.9 
	1047.4,1123.7 1048.4,1123.4 1049.5,1123.2 1050.5,1122.9 1051.5,1122.6 1052.6,1122.3 1053.6,1122 1054.6,1121.7 1055.6,1121.4 
	1056.7,1121.1 1057.7,1120.7 1058.7,1120.3 1059.7,1120 1060.7,1119.6 1061.7,1119.2 1062.7,1118.8 1063.7,1118.4 1064.7,1118 
	1065.6,1117.5 1066.6,1117.1 1067.6,1116.7 1068.6,1116.2 1069.5,1115.7 1070.5,1115.2 1071.4,1114.7 1072.4,1114.2 1073.3,1113.7 
	1074.3,1113.2 1075.2,1112.7 1024,1024 972.8,1112.7 "/>
<polygon class="st0" points="1076.1,1112.1 1077,1111.6 1078,1111 1078.9,1110.5 1079.8,1109.9 1080.7,1109.3 1081.6,1108.7 
	1082.4,1108.1 1083.3,1107.5 1084.2,1106.8 1085.1,1106.2 1085.9,1105.6 1086.8,1104.9 1087.6,1104.3 1088.4,1103.6 1089.3,1102.9 
	1090.1,1102.2 1090.9,1101.5 1091.7,1100.8 1092.5,1100.1 1093.3,1099.4 1094.1,1098.6 1094.9,1097.9 1095.6,1097.2 1096.4,1096.4 
	1097.2,1095.6 1097.9,1094.9 1098.6,1094.1 1099.4,1093.3 1100.1,1092.5 1100.8,1091.7 1101.5,1090.9 1102.2,1090.1 1102.9,1089.3 
	1103.6,1088.4 1104.3,1087.6 1104.9,1086.8 1105.6,1085.9 1106.2,1085.1 1106.8,1084.2 1107.5,1083.3 1108.1,1082.4 1108.7,1081.6 
	1109.3,1080.7 1109.9,1079.8 1110.5,1078.9 1111,1078 1111.6,1077 1112.1,1076.1 1112.7,1075.2 1113.2,1074.3 1113.7,1073.3 
	1114.2,1072.4 1114.7,1071.4 1115.2,1070.5 1115.7,1069.5 1116.2,1068.6 1116.7,1067.6 1117.1,1066.6 1117.5,1065.6 1118,1064.7 
	1118.4,1063.7 1118.8,1062.7 1119.2,1061.7 1119.6,1060.7 1120,1059.7 1120.3,1058.7 1120.7,1057.7 1121.1,1056.7 1121.4,1055.6 
	1121.7,1054.6 1122,1053.6 1122.3,1052.6 1122.6,1051.5 1122.9,1050.5 1123.2,1049.5 1123.4,1048.4 1123.7,1047.4 1123.9,1046.3 
	1124.2,1045.3 1124.4,1044.2 1124.6,1043.2 1124.8,1042.1 1125,1041.1 1125.1,1040 1125.3,1039 1125.5,1037.9 1125.6,1036.8 
	1125.7,1035.8 1125.8,1034.7 1125.9,1033.6 1126,1032.6 1126.1,1031.5 1126.2,1030.4 1126.3,1029.4 1126.3,1028.3 1126.3,1027.2 
	1126.4,1026.1 1126.4,1025.1 1126.4,1024 1024,1024 1075.2,1112.7 "/>
<polygon class="st1" points="962.8,1219.4 964.8,1220.1 966.9,1220.7 968.9,1221.3 971,1221.8 973.1,1222.4 975.1,1222.9 
	977.2,1223.4 979.3,1223.9 981.4,1224.3 983.5,1224.8 985.6,1225.2 987.7,1225.6 989.8,1225.9 992,1226.3 994.1,1226.6 
	996.2,1226.9 998.3,1227.2 1000.5,1227.4 1002.6,1227.7 1004.7,1227.9 1006.9,1228.1 1009,1228.2 1011.1,1228.4 1013.3,1228.5 
	1015.4,1228.6 1017.6,1228.7 1019.7,1228.8 1021.9,1228.8 1024,1228.8 1026.1,1228.8 1028.3,1228.8 1030.4,1228.7 1032.6,1228.6 
	1034.7,1228.5 1036.9,1228.4 1039,1228.2 1041.1,1228.1 1043.3,1227.9 1045.4,1227.7 1047.5,1227.4 1049.7,1227.2 1051.8,1226.9 
	1053.9,1226.6 1056,1226.3 1058.2,1225.9 1060.3,1225.6 1062.4,1225.2 1064.5,1224.8 1066.6,1224.3 1068.7,1223.9 1070.8,1223.4 
	1072.9,1222.9 1074.9,1222.4 1077,1221.8 1079.1,1221.3 1081.1,1220.7 1083.2,1220.1 1085.2,1219.4 1087.3,1218.8 1089.3,1218.1 
	1091.4,1217.4 1093.4,1216.7 1095.4,1216 1097.4,1215.2 1099.4,1214.4 1101.4,1213.6 1103.4,1212.8 1105.3,1212 1107.3,1211.1 
	1109.3,1210.2 1111.2,1209.3 1113.1,1208.4 1115.1,1207.4 1117,1206.5 1118.9,1205.5 1120.8,1204.5 1122.7,1203.5 1124.5,1202.4 
	1126.4,1201.4 1128.3,1200.3 1130.1,1199.2 1131.9,1198.1 1133.7,1196.9 1135.5,1195.8 1137.3,1194.6 1139.1,1193.4 1140.9,1192.2 
	1142.6,1190.9 1144.4,1189.7 1146.1,1188.4 1147.8,1187.1 1149.5,1185.8 1151.2,1184.5 1152.9,1183.2 1154.5,1181.8 1156.2,1180.4 
	1157.8,1179 1159.4,1177.6 1161,1176.2 1092.5,1100.1 1091.7,1100.8 1090.9,1101.5 1090.1,1102.2 1089.3,1102.9 1088.4,1103.6 
	1087.6,1104.3 1086.8,1104.9 1085.9,1105.6 1085.1,1106.2 1084.2,1106.8 1083.3,1107.5 1082.4,1108.1 1081.6,1108.7 1080.7,1109.3 
	1079.8,1109.9 1078.9,1110.5 1078,1111 1077,1111.6 1076.1,1112.1 1075.2,1112.7 1074.3,1113.2 1073.3,1113.7 1072.4,1114.2 
	1071.4,1114.7 1070.5,1115.2 1069.5,1115.7 1068.6,1116.2 1067.6,1116.7 1066.6,1117.1 1065.6,1117.5 1064.7,1118 1063.7,1118.4 
	1062.7,1118.8 1061.7,1119.2 1060.7,1119.6 1059.7,1120 1058.7,1120.3 1057.7,1120.7 1056.7,1121.1 1055.6,1121.4 1054.6,1121.7 
	1053.6,1122 1052.6,1122.3 1051.5,1122.6 1050.5,1122.9 1049.5,1123.2 1048.4,1123.4 1047.4,1123.7 1046.3,1123.9 1045.3,1124.2 
	1044.2,1124.4 1043.2,1124.6 1042.1,1124.8 1041.1,1125 1040,1125.1 1039,1125.3 1037.9,1125.5 1036.8,1125.6 1035.8,1125.7 
	1034.7,1125.8 1033.6,1125.9 1032.6,1126 1031.5,1126.1 1030.4,1126.2 1029.4,1126.3 1028.3,1126.3 1027.2,1126.3 1026.1,1126.4 
	1025.1,1126.4 1024,1126.4 1022.9,1126.4 1021.9,1126.4 1020.8,1126.3 1019.7,1126.3 1018.6,1126.3 1017.6,1126.2 1016.5,1126.1 
	1015.4,1126 1014.4,1125.9 1013.3,1125.8 1012.2,1125.7 1011.2,1125.6 1010.1,1125.5 1009,1125.3 1008,1125.1 1006.9,1125 
	1005.9,1124.8 1004.8,1124.6 1003.8,1124.4 1002.7,1124.2 1001.7,1123.9 1000.6,1123.7 999.6,1123.4 998.5,1123.2 997.5,1122.9 
	996.5,1122.6 995.4,1122.3 994.4,1122 993.4,1121.7 992.4,1121.4 960.7,1218.8 "/>
<polygon class="st2" points="1126.4,1026.1 1126.3,1027.2 1126.3,1028.3 1126.3,1029.4 1126.2,1030.4 1126.1,1031.5 1126,1032.6 
	1125.9,1033.6 1125.8,1034.7 1125.7,1035.8 1125.6,1036.8 1125.5,1037.9 1125.3,1039 1125.1,1040 1125,1041.1 1124.8,1042.1 
	1124.6,1043.2 1124.4,1044.2 1124.2,1045.3 1123.9,1046.3 1123.7,1047.4 1123.4,1048.4 1123.2,1049.5 1122.9,1050.5 1122.6,1051.5 
	1122.3,1052.6 1122,1053.6 1121.7,1054.6 1121.4,1055.6 1121.1,1056.7 1120.7,1057.7 1120.3,1058.7 1120,1059.7 1119.6,1060.7 
	1119.2,1061.7 1118.8,1062.7 1118.4,1063.7 1118,1064.7 1117.5,1065.6 1117.1,1066.6 1116.7,1067.6 1116.2,1068.6 1115.7,1069.5 
	1115.2,1070.5 1114.7,1071.4 1114.2,1072.4 1113.7,1073.3 1113.2,1074.3 1112.7,1075.2 1112.1,1076.1 1111.6,1077 1111,1078 
	1110.5,1078.9 1109.9,1079.8 1109.3,1080.7 1108.7,1081.6 1108.1,1082.4 1107.5,1083.3 1106.8,1084.2 1106.2,1085.1 1105.6,1085.9 
	1104.9,1086.8 1104.3,1087.6 1103.6,1088.4 1102.9,1089.3 1102.2,1090.1 1101.5,1090.9 1100.8,1091.7 1100.1,1092.5 1099.4,1093.3 
	1098.6,1094.1 1097.9,1094.9 1097.2,1095.6 1096.4,1096.4 1095.6,1097.2 1094.9,1097.9 1094.1,1098.6 1093.3,1099.4 1092.5,1100.1 
	1161,1176.2 1162.6,1174.8 1164.2,1173.3 1165.8,1171.8 1167.3,1170.3 1168.8,1168.8 1170.3,1167.3 1171.8,1165.8 1173.3,1164.2 
	1174.8,1162.6 1176.2,1161 1177.6,1159.4 1179,1157.8 1180.4,1156.2 1181.8,1154.5 1183.2,1152.9 1184.5,1151.2 1185.8,1149.5 
	1187.1,1147.8 1188.4,1146.1 1189.7,1144.4 1190.9,1142.6 1192.2,1140.9 1193.4,1139.1 1194.6,1137.3 1195.8,1135.5 1196.9,1133.7 
	1198.1,1131.9 1199.2,1130.1 1200.3,1128.3 1201.4,1126.4 1202.4,1124.5 1203.5,1122.7 1204.5,1120.8 1205.5,1118.9 1206.5,1117 
	1207.4,1115.1 1208.4,1113.1 1209.3,1111.2 1210.2,1109.3 1211.1,1107.3 1212,1105.3 1212.8,1103.4 1213.6,1101.4 1214.4,1099.4 
	1215.2,1097.4 1216,1095.4 1216.7,1093.4 1217.4,1091.4 1218.1,1089.3 1218.8,1087.3 1219.4,1085.2 1220.1,1083.2 1220.7,1081.1 
	1221.3,1079.1 1221.8,1077 1222.4,1074.9 1222.9,1072.9 1223.4,1070.8 1223.9,1068.7 1224.3,1066.6 1224.8,1064.5 1225.2,1062.4 
	1225.6,1060.3 1225.9,1058.2 1226.3,1056 1226.6,1053.9 1226.9,1051.8 1227.2,1049.7 1227.4,1047.5 1227.7,1045.4 1227.9,1043.3 
	1228.1,1041.1 1228.2,1039 1228.4,1036.9 1228.5,1034.7 1228.6,1032.6 1228.7,1030.4 1228.8,1028.3 1228.8,1026.1 1228.8,1024 
	1126.4,1024 1126.4,1025.1 "/>
<polygon class="st1" points="819.2,1028.3 819.3,1030.4 819.4,1032.6 819.5,1034.7 819.6,1036.9 819.8,1039 819.9,1041.1 
	820.1,1043.3 820.3,1045.4 820.6,1047.5 820.8,1049.7 821.1,1051.8 821.4,1053.9 821.7,1056 822.1,1058.2 822.4,1060.3 
	822.8,1062.4 823.2,1064.5 823.7,1066.6 923.8,1045.3 923.6,1044.2 923.4,1043.2 923.2,1042.1 923,1041.1 922.9,1040 922.7,1039 
	922.5,1037.9 922.4,1036.8 922.3,1035.8 922.2,1034.7 922.1,1033.6 922,1032.6 921.9,1031.5 921.8,1030.4 921.7,1029.4 
	921.7,1028.3 921.7,1027.2 921.6,1026.1 921.6,1025.1 921.6,1024 819.2,1024 819.2,1026.1 "/>
<polygon class="st2" points="838.7,1111.2 839.6,1113.1 840.6,1115.1 841.5,1117 842.5,1118.9 843.5,1120.8 844.5,1122.7 
	845.6,1124.5 846.6,1126.4 847.7,1128.3 848.8,1130.1 849.9,1131.9 851.1,1133.7 852.2,1135.5 853.4,1137.3 854.6,1139.1 
	855.8,1140.9 857.1,1142.6 858.3,1144.4 859.6,1146.1 860.9,1147.8 862.2,1149.5 863.5,1151.2 864.8,1152.9 866.2,1154.5 
	867.6,1156.2 869,1157.8 870.4,1159.4 871.8,1161 873.2,1162.6 874.7,1164.2 876.2,1165.8 877.7,1167.3 879.2,1168.8 880.7,1170.3 
	882.2,1171.8 883.8,1173.3 885.4,1174.8 887,1176.2 888.6,1177.6 890.2,1179 891.8,1180.4 893.5,1181.8 895.1,1183.2 896.8,1184.5 
	898.5,1185.8 900.2,1187.1 901.9,1188.4 903.6,1189.7 905.4,1190.9 907.1,1192.2 908.9,1193.4 910.7,1194.6 912.5,1195.8 
	914.3,1196.9 916.1,1198.1 917.9,1199.2 919.7,1200.3 921.6,1201.4 923.5,1202.4 925.3,1203.5 927.2,1204.5 929.1,1205.5 
	931,1206.5 932.9,1207.4 934.9,1208.4 936.8,1209.3 938.7,1210.2 940.7,1211.1 942.7,1212 944.6,1212.8 946.6,1213.6 948.6,1214.4 
	950.6,1215.2 952.6,1216 954.6,1216.7 956.6,1217.4 958.7,1218.1 960.7,1218.8 992.4,1121.4 991.3,1121.1 990.3,1120.7 
	989.3,1120.3 988.3,1120 987.3,1119.6 986.3,1119.2 985.3,1118.8 984.3,1118.4 983.3,1118 982.4,1117.5 981.4,1117.1 980.4,1116.7 
	979.4,1116.2 978.5,1115.7 977.5,1115.2 976.6,1114.7 975.6,1114.2 974.7,1113.7 973.7,1113.2 972.8,1112.7 971.9,1112.1 
	971,1111.6 970,1111 969.1,1110.5 968.2,1109.9 967.3,1109.3 966.4,1108.7 965.6,1108.1 964.7,1107.5 963.8,1106.8 962.9,1106.2 
	962.1,1105.6 961.2,1104.9 960.4,1104.3 959.6,1103.6 958.7,1102.9 957.9,1102.2 957.1,1101.5 956.3,1100.8 955.5,1100.1 
	954.7,1099.4 953.9,1098.6 953.1,1097.9 952.4,1097.2 951.6,1096.4 950.8,1095.6 950.1,1094.9 949.4,1094.1 948.6,1093.3 
	947.9,1092.5 947.2,1091.7 946.5,1090.9 945.8,1090.1 945.1,1089.3 944.4,1088.4 943.7,1087.6 943.1,1086.8 942.4,1085.9 
	941.8,1085.1 941.2,1084.2 940.5,1083.3 939.9,1082.4 939.3,1081.6 938.7,1080.7 938.1,1079.8 937.5,1078.9 937,1078 936.4,1077 
	935.9,1076.1 935.3,1075.2 934.8,1074.3 934.3,1073.3 933.8,1072.4 933.3,1071.4 932.8,1070.5 932.3,1069.5 931.8,1068.6 
	931.3,1067.6 930.9,1066.6 930.5,1065.6 930,1064.7 929.6,1063.7 929.2,1062.7 928.8,1061.7 928.4,1060.7 928,1059.7 927.7,1058.7 
	927.3,1057.7 926.9,1056.7 926.6,1055.6 926.3,1054.6 926,1053.6 925.7,1052.6 925.4,1051.5 925.1,1050.5 924.8,1049.5 
	924.6,1048.4 924.3,1047.4 924.1,1046.3 923.8,1045.3 823.7,1066.6 824.1,1068.7 824.6,1070.8 825.1,1072.9 825.6,1074.9 
	826.2,1077 826.7,1079.1 827.3,1081.1 827.9,1083.2 828.6,1085.2 829.2,1087.3 829.9,1089.3 830.6,1091.4 831.3,1093.4 832,1095.4 
	832.8,1097.4 833.6,1099.4 834.4,1101.4 835.2,1103.4 836,1105.3 836.9,1107.3 837.8,1109.3 "/>
<polygon class="st1" points="1228.8,1028.3 1228.7,1030.4 1228.6,1032.6 1228.5,1034.7 1228.4,1036.9 1228.2,1039 1228.1,1041.1 
	1227.9,1043.3 1227.7,1045.4 1227.4,1047.5 1227.2,1049.7 1226.9,1051.8 1226.6,1053.9 1226.3,1056 1225.9,1058.2 1225.6,1060.3 
	1225.2,1062.4 1224.8,1064.5 1224.3,1066.6 1223.9,1068.7 1223.4,1070.8 1222.9,1072.9 1222.4,1074.9 1221.8,1077 1221.3,1079.1 
	1220.7,1081.1 1220.1,1083.2 1219.4,1085.2 1218.8,1087.3 1218.1,1089.3 1217.4,1091.4 1216.7,1093.4 1216,1095.4 1215.2,1097.4 
	1214.4,1099.4 1213.6,1101.4 1212.8,1103.4 1212,1105.3 1211.1,1107.3 1210.2,1109.3 1209.3,1111.2 1208.4,1113.1 1207.4,1115.1 
	1206.5,1117 1205.5,1118.9 1204.5,1120.8 1203.5,1122.7 1202.4,1124.5 1201.4,1126.4 1200.3,1128.3 1199.2,1130.1 1198.1,1131.9 
	1196.9,1133.7 1195.8,1135.5 1194.6,1137.3 1193.4,1139.1 1192.2,1140.9 1190.9,1142.6 1189.7,1144.4 1272.5,1204.6 1274.4,1202 
	1276.3,1199.3 1278.1,1196.7 1279.9,1194 1281.6,1191.3 1283.4,1188.6 1285.1,1185.9 1286.8,1183.1 1288.4,1180.4 1290,1177.6 
	1291.6,1174.8 1293.2,1172 1294.7,1169.2 1296.2,1166.3 1297.7,1163.5 1299.2,1160.6 1300.6,1157.7 1302,1154.8 1303.3,1151.9 
	1304.6,1148.9 1305.9,1146 1307.2,1143 1308.4,1140.1 1309.6,1137.1 1310.8,1134.1 1311.9,1131.1 1313,1128.1 1314.1,1125 
	1315.2,1122 1316.2,1118.9 1317.1,1115.9 1318.1,1112.8 1319,1109.7 1319.9,1106.6 1320.7,1103.5 1321.5,1100.4 1322.3,1097.3 
	1323.1,1094.1 1323.8,1091 1324.5,1087.9 1325.1,1084.7 1325.8,1081.6 1326.3,1078.4 1326.9,1075.2 1327.4,1072.1 1327.9,1068.9 
	1328.4,1065.7 1328.8,1062.5 1329.2,1059.3 1329.5,1056.1 1329.8,1052.9 1330.1,1049.7 1330.4,1046.5 1330.6,1043.3 1330.8,1040.1 
	1330.9,1036.9 1331,1033.6 1331.1,1030.4 1331.2,1027.2 1331.2,1024 1228.8,1024 1228.8,1026.1 "/>
<polygon class="st0" points="716.9,1030.4 717,1033.6 717.1,1036.9 717.2,1040.1 717.4,1043.3 717.6,1046.5 717.9,1049.7 
	718.2,1052.9 718.5,1056.1 718.8,1059.3 719.2,1062.5 719.6,1065.7 720.1,1068.9 720.6,1072.1 721.1,1075.2 721.7,1078.4 
	722.2,1081.6 722.9,1084.7 723.5,1087.9 724.2,1091 724.9,1094.1 725.7,1097.3 726.5,1100.4 727.3,1103.5 728.1,1106.6 729,1109.7 
	729.9,1112.8 730.9,1115.9 731.8,1118.9 732.8,1122 733.9,1125 735,1128.1 736.1,1131.1 737.2,1134.1 738.4,1137.1 739.6,1140.1 
	740.8,1143 742.1,1146 743.4,1148.9 836.9,1107.3 836,1105.3 835.2,1103.4 834.4,1101.4 833.6,1099.4 832.8,1097.4 832,1095.4 
	831.3,1093.4 830.6,1091.4 829.9,1089.3 829.2,1087.3 828.6,1085.2 827.9,1083.2 827.3,1081.1 826.7,1079.1 826.2,1077 
	825.6,1074.9 825.1,1072.9 824.6,1070.8 824.1,1068.7 823.7,1066.6 823.2,1064.5 822.8,1062.4 822.4,1060.3 822.1,1058.2 
	821.7,1056 821.4,1053.9 821.1,1051.8 820.8,1049.7 820.6,1047.5 820.3,1045.4 820.1,1043.3 819.9,1041.1 819.8,1039 819.6,1036.9 
	819.5,1034.7 819.4,1032.6 819.3,1030.4 819.2,1028.3 819.2,1026.1 819.2,1024 716.8,1024 716.8,1027.2 "/>
<polygon class="st1" points="779.3,1209.7 781.3,1212.3 783.2,1214.8 785.3,1217.3 787.3,1219.8 789.4,1222.3 791.5,1224.7 
	793.6,1227.2 795.7,1229.6 797.9,1231.9 800.1,1234.3 802.3,1236.6 804.5,1238.9 806.8,1241.2 809.1,1243.5 811.4,1245.7 
	813.7,1247.9 816.1,1250.1 818.4,1252.3 820.8,1254.4 823.3,1256.5 825.7,1258.6 828.2,1260.7 830.7,1262.7 833.2,1264.8 
	835.7,1266.7 838.3,1268.7 840.8,1270.6 843.4,1272.5 846,1274.4 848.7,1276.3 851.3,1278.1 854,1279.9 856.7,1281.6 859.4,1283.4 
	862.1,1285.1 864.9,1286.8 867.6,1288.4 870.4,1290 873.2,1291.6 876,1293.2 878.8,1294.7 881.7,1296.2 884.5,1297.7 887.4,1299.2 
	890.3,1300.6 893.2,1302 896.1,1303.3 899.1,1304.6 902,1305.9 905,1307.2 907.9,1308.4 910.9,1309.6 913.9,1310.8 916.9,1311.9 
	919.9,1313 923,1314.1 926,1315.2 929.1,1316.2 932.1,1317.1 935.2,1318.1 938.3,1319 941.4,1319.9 944.5,1320.7 947.6,1321.5 
	950.7,1322.3 953.9,1323.1 957,1323.8 960.1,1324.5 963.3,1325.1 966.4,1325.8 969.6,1326.3 972.8,1326.9 975.9,1327.4 
	979.1,1327.9 982.3,1328.4 985.5,1328.8 988.7,1329.2 991.9,1329.5 1002.6,1227.7 1000.5,1227.4 998.3,1227.2 996.2,1226.9 
	994.1,1226.6 992,1226.3 989.8,1225.9 987.7,1225.6 985.6,1225.2 983.5,1224.8 981.4,1224.3 979.3,1223.9 977.2,1223.4 
	975.1,1222.9 973.1,1222.4 971,1221.8 968.9,1221.3 966.9,1220.7 964.8,1220.1 962.8,1219.4 960.7,1218.8 958.7,1218.1 
	956.6,1217.4 954.6,1216.7 952.6,1216 950.6,1215.2 948.6,1214.4 946.6,1213.6 944.6,1212.8 942.7,1212 940.7,1211.1 938.7,1210.2 
	936.8,1209.3 934.9,1208.4 932.9,1207.4 931,1206.5 929.1,1205.5 927.2,1204.5 925.3,1203.5 923.5,1202.4 921.6,1201.4 
	919.7,1200.3 917.9,1199.2 916.1,1198.1 914.3,1196.9 912.5,1195.8 910.7,1194.6 908.9,1193.4 907.1,1192.2 905.4,1190.9 
	903.6,1189.7 901.9,1188.4 900.2,1187.1 898.5,1185.8 896.8,1184.5 895.1,1183.2 893.5,1181.8 891.8,1180.4 890.2,1179 
	888.6,1177.6 887,1176.2 885.4,1174.8 883.8,1173.3 882.2,1171.8 880.7,1170.3 879.2,1168.8 877.7,1167.3 876.2,1165.8 
	874.7,1164.2 873.2,1162.6 871.8,1161 870.4,1159.4 869,1157.8 867.6,1156.2 866.2,1154.5 864.8,1152.9 863.5,1151.2 862.2,1149.5 
	860.9,1147.8 859.6,1146.1 858.3,1144.4 857.1,1142.6 855.8,1140.9 854.6,1139.1 853.4,1137.3 852.2,1135.5 851.1,1133.7 
	849.9,1131.9 848.8,1130.1 847.7,1128.3 846.6,1126.4 845.6,1124.5 844.5,1122.7 843.5,1120.8 842.5,1118.9 841.5,1117 
	840.6,1115.1 839.6,1113.1 838.7,1111.2 837.8,1109.3 836.9,1107.3 743.4,1148.9 744.7,1151.9 746,1154.8 747.4,1157.7 
	748.8,1160.6 750.3,1163.5 751.8,1166.3 753.3,1169.2 754.8,1172 756.4,1174.8 758,1177.6 759.6,1180.4 761.2,1183.1 762.9,1185.9 
	764.6,1188.6 766.4,1191.3 768.1,1194 769.9,1196.7 771.7,1199.3 773.6,1202 775.5,1204.6 777.4,1207.2 "/>
<polygon class="st0" points="1157.8,1179 1156.2,1180.4 1154.5,1181.8 1152.9,1183.2 1151.2,1184.5 1149.5,1185.8 1147.8,1187.1 
	1146.1,1188.4 1144.4,1189.7 1142.6,1190.9 1140.9,1192.2 1139.1,1193.4 1137.3,1194.6 1135.5,1195.8 1133.7,1196.9 1131.9,1198.1 
	1130.1,1199.2 1128.3,1200.3 1126.4,1201.4 1124.5,1202.4 1122.7,1203.5 1120.8,1204.5 1118.9,1205.5 1117,1206.5 1115.1,1207.4 
	1113.1,1208.4 1111.2,1209.3 1109.3,1210.2 1107.3,1211.1 1105.3,1212 1103.4,1212.8 1101.4,1213.6 1099.4,1214.4 1097.4,1215.2 
	1095.4,1216 1093.4,1216.7 1091.4,1217.4 1089.3,1218.1 1087.3,1218.8 1085.2,1219.4 1083.2,1220.1 1081.1,1220.7 1079.1,1221.3 
	1077,1221.8 1074.9,1222.4 1072.9,1222.9 1070.8,1223.4 1068.7,1223.9 1066.6,1224.3 1064.5,1224.8 1062.4,1225.2 1060.3,1225.6 
	1058.2,1225.9 1056,1226.3 1053.9,1226.6 1051.8,1226.9 1049.7,1227.2 1047.5,1227.4 1045.4,1227.7 1043.3,1227.9 1041.1,1228.1 
	1039,1228.2 1036.9,1228.4 1034.7,1228.5 1032.6,1228.6 1030.4,1228.7 1028.3,1228.8 1026.1,1228.8 1024,1228.8 1021.9,1228.8 
	1019.7,1228.8 1017.6,1228.7 1015.4,1228.6 1013.3,1228.5 1011.1,1228.4 1009,1228.2 1006.9,1228.1 1004.7,1227.9 1002.6,1227.7 
	991.9,1329.5 995.1,1329.8 998.3,1330.1 1001.5,1330.4 1004.7,1330.6 1007.9,1330.8 1011.1,1330.9 1014.4,1331 1017.6,1331.1 
	1020.8,1331.2 1024,1331.2 1027.2,1331.2 1030.4,1331.1 1033.6,1331 1036.9,1330.9 1040.1,1330.8 1043.3,1330.6 1046.5,1330.4 
	1049.7,1330.1 1052.9,1329.8 1056.1,1329.5 1059.3,1329.2 1062.5,1328.8 1065.7,1328.4 1068.9,1327.9 1072.1,1327.4 1075.2,1326.9 
	1078.4,1326.3 1081.6,1325.8 1084.7,1325.1 1087.9,1324.5 1091,1323.8 1094.1,1323.1 1097.3,1322.3 1100.4,1321.5 1103.5,1320.7 
	1106.6,1319.9 1109.7,1319 1112.8,1318.1 1115.9,1317.1 1118.9,1316.2 1122,1315.2 1125,1314.1 1128.1,1313 1131.1,1311.9 
	1134.1,1310.8 1137.1,1309.6 1140.1,1308.4 1143,1307.2 1146,1305.9 1148.9,1304.6 1151.9,1303.3 1154.8,1302 1157.7,1300.6 
	1160.6,1299.2 1163.5,1297.7 1166.3,1296.2 1169.2,1294.7 1172,1293.2 1174.8,1291.6 1177.6,1290 1180.4,1288.4 1183.1,1286.8 
	1185.9,1285.1 1188.6,1283.4 1191.3,1281.6 1194,1279.9 1196.7,1278.1 1199.3,1276.3 1202,1274.4 1204.6,1272.5 1207.2,1270.6 
	1209.7,1268.7 1212.3,1266.7 1214.8,1264.8 1217.3,1262.7 1219.8,1260.7 1222.3,1258.6 1224.7,1256.5 1227.2,1254.4 1229.6,1252.3 
	1231.9,1250.1 1234.3,1247.9 1236.6,1245.7 1238.9,1243.5 1241.2,1241.2 1243.5,1238.9 1245.7,1236.6 1247.9,1234.3 1250.1,1231.9 
	1252.3,1229.6 1254.4,1227.2 1256.5,1224.7 1258.6,1222.3 1260.7,1219.8 1262.7,1217.3 1264.8,1214.8 1266.7,1212.3 1268.7,1209.7 
	1270.6,1207.2 1272.5,1204.6 1189.7,1144.4 1188.4,1146.1 1187.1,1147.8 1185.8,1149.5 1184.5,1151.2 1183.2,1152.9 1181.8,1154.5 
	1180.4,1156.2 1179,1157.8 1177.6,1159.4 1176.2,1161 1174.8,1162.6 1173.3,1164.2 1171.8,1165.8 1170.3,1167.3 1168.8,1168.8 
	1167.3,1170.3 1165.8,1171.8 1164.2,1173.3 1162.6,1174.8 1161,1176.2 1159.4,1177.6 "/>
<polygon class="st3" points="614.5,1032.6 614.6,1036.9 614.8,1041.2 615,1045.4 615.2,1049.7 615.5,1054 615.8,1058.3 
	616.2,1062.5 616.6,1066.8 617.1,1071.1 617.6,1075.3 618.2,1079.6 618.8,1083.8 619.4,1088.1 620.1,1092.3 620.9,1096.5 
	621.7,1100.8 622.5,1105 623.4,1109.2 624.3,1113.4 625.2,1117.5 626.2,1121.7 627.3,1125.9 628.4,1130 629.5,1134.1 630.7,1138.3 
	631.9,1142.4 633.1,1146.5 634.4,1150.6 635.8,1154.6 637.2,1158.7 638.6,1162.7 640.1,1166.8 641.6,1170.8 643.2,1174.8 
	644.8,1178.8 646.4,1182.7 648.1,1186.7 649.8,1190.6 651.6,1194.5 653.4,1198.4 655.2,1202.3 657.1,1206.1 659,1210 661,1213.8 
	663,1217.6 665.1,1221.3 667.2,1225.1 669.3,1228.8 671.4,1232.5 673.6,1236.2 675.9,1239.8 678.2,1243.5 680.5,1247.1 
	682.8,1250.7 685.2,1254.2 687.7,1257.8 690.1,1261.3 692.6,1264.8 775.5,1204.6 773.6,1202 771.7,1199.3 769.9,1196.7 768.1,1194 
	766.4,1191.3 764.6,1188.6 762.9,1185.9 761.2,1183.1 759.6,1180.4 758,1177.6 756.4,1174.8 754.8,1172 753.3,1169.2 751.8,1166.3 
	750.3,1163.5 748.8,1160.6 747.4,1157.7 746,1154.8 744.7,1151.9 743.4,1148.9 742.1,1146 740.8,1143 739.6,1140.1 738.4,1137.1 
	737.2,1134.1 736.1,1131.1 735,1128.1 733.9,1125 732.8,1122 731.8,1118.9 730.9,1115.9 729.9,1112.8 729,1109.7 728.1,1106.6 
	727.3,1103.5 726.5,1100.4 725.7,1097.3 724.9,1094.1 724.2,1091 723.5,1087.9 722.9,1084.7 722.2,1081.6 721.7,1078.4 
	721.1,1075.2 720.6,1072.1 720.1,1068.9 719.6,1065.7 719.2,1062.5 718.8,1059.3 718.5,1056.1 718.2,1052.9 717.9,1049.7 
	717.6,1046.5 717.4,1043.3 717.2,1040.1 717.1,1036.9 717,1033.6 716.9,1030.4 716.8,1027.2 716.8,1024 614.4,1024 614.4,1028.3 "/>
<polygon class="st2" points="756.4,1334.1 759.6,1336.9 762.9,1339.6 766.2,1342.3 769.6,1345 773,1347.6 776.4,1350.3 
	779.8,1352.8 783.2,1355.4 786.7,1357.9 790.2,1360.3 793.8,1362.8 797.3,1365.2 800.9,1367.5 804.5,1369.8 808.2,1372.1 
	811.8,1374.4 815.5,1376.6 819.2,1378.7 822.9,1380.8 826.7,1382.9 830.4,1385 834.2,1387 838,1389 841.9,1390.9 845.7,1392.8 
	849.6,1394.6 853.5,1396.4 857.4,1398.2 861.3,1399.9 865.3,1401.6 869.2,1403.2 873.2,1404.8 877.2,1406.4 881.2,1407.9 
	885.3,1409.4 889.3,1410.8 893.4,1412.2 897.4,1413.6 901.5,1414.9 905.6,1416.1 909.7,1417.3 913.9,1418.5 918,1419.6 
	922.1,1420.7 926.3,1421.8 930.5,1422.8 934.6,1423.7 938.8,1424.6 943,1425.5 947.2,1426.3 951.5,1427.1 955.7,1427.9 
	959.9,1428.6 964.2,1429.2 968.4,1429.8 972.7,1430.4 976.9,1430.9 981.2,1431.4 985.5,1431.8 989.7,1432.2 994,1432.5 
	998.3,1432.8 1002.6,1433 1006.8,1433.2 1011.1,1433.4 1015.4,1433.5 1019.7,1433.6 1024,1433.6 1028.3,1433.6 1032.6,1433.5 
	1036.9,1433.4 1041.2,1433.2 1045.4,1433 1049.7,1432.8 1054,1432.5 1058.3,1432.2 1062.5,1431.8 1066.8,1431.4 1056.1,1329.5 
	1052.9,1329.8 1049.7,1330.1 1046.5,1330.4 1043.3,1330.6 1040.1,1330.8 1036.9,1330.9 1033.6,1331 1030.4,1331.1 1027.2,1331.2 
	1024,1331.2 1020.8,1331.2 1017.6,1331.1 1014.4,1331 1011.1,1330.9 1007.9,1330.8 1004.7,1330.6 1001.5,1330.4 998.3,1330.1 
	995.1,1329.8 991.9,1329.5 988.7,1329.2 985.5,1328.8 982.3,1328.4 979.1,1327.9 975.9,1327.4 972.8,1326.9 969.6,1326.3 
	966.4,1325.8 963.3,1325.1 960.1,1324.5 957,1323.8 953.9,1323.1 950.7,1322.3 947.6,1321.5 944.5,1320.7 941.4,1319.9 938.3,1319 
	935.2,1318.1 932.1,1317.1 929.1,1316.2 926,1315.2 923,1314.1 919.9,1313 916.9,1311.9 913.9,1310.8 910.9,1309.6 907.9,1308.4 
	905,1307.2 902,1305.9 899.1,1304.6 896.1,1303.3 893.2,1302 890.3,1300.6 887.4,1299.2 884.5,1297.7 881.7,1296.2 878.8,1294.7 
	876,1293.2 873.2,1291.6 870.4,1290 867.6,1288.4 864.9,1286.8 862.1,1285.1 859.4,1283.4 856.7,1281.6 854,1279.9 851.3,1278.1 
	848.7,1276.3 846,1274.4 843.4,1272.5 840.8,1270.6 838.3,1268.7 835.7,1266.7 833.2,1264.8 830.7,1262.7 828.2,1260.7 
	825.7,1258.6 823.3,1256.5 820.8,1254.4 818.4,1252.3 816.1,1250.1 813.7,1247.9 811.4,1245.7 809.1,1243.5 806.8,1241.2 
	804.5,1238.9 802.3,1236.6 800.1,1234.3 797.9,1231.9 795.7,1229.6 793.6,1227.2 791.5,1224.7 789.4,1222.3 787.3,1219.8 
	785.3,1217.3 783.2,1214.8 781.3,1212.3 779.3,1209.7 777.4,1207.2 775.5,1204.6 692.6,1264.8 695.2,1268.2 697.7,1271.6 
	700.4,1275 703,1278.4 705.7,1281.8 708.4,1285.1 711.1,1288.4 713.9,1291.6 716.8,1294.9 719.6,1298.1 722.5,1301.2 725.4,1304.4 
	728.4,1307.5 731.4,1310.6 734.4,1313.6 737.4,1316.6 740.5,1319.6 743.6,1322.6 746.8,1325.5 749.9,1328.4 753.1,1331.2 "/>
<polygon class="st3" points="1268.7,1209.7 1266.7,1212.3 1264.8,1214.8 1262.7,1217.3 1260.7,1219.8 1258.6,1222.3 1256.5,1224.7 
	1254.4,1227.2 1252.3,1229.6 1250.1,1231.9 1247.9,1234.3 1245.7,1236.6 1243.5,1238.9 1241.2,1241.2 1238.9,1243.5 1236.6,1245.7 
	1234.3,1247.9 1231.9,1250.1 1229.6,1252.3 1227.2,1254.4 1224.7,1256.5 1222.3,1258.6 1219.8,1260.7 1217.3,1262.7 1214.8,1264.8 
	1212.3,1266.7 1209.7,1268.7 1207.2,1270.6 1204.6,1272.5 1202,1274.4 1199.3,1276.3 1196.7,1278.1 1194,1279.9 1191.3,1281.6 
	1188.6,1283.4 1185.9,1285.1 1183.1,1286.8 1180.4,1288.4 1177.6,1290 1174.8,1291.6 1172,1293.2 1169.2,1294.7 1166.3,1296.2 
	1163.5,1297.7 1160.6,1299.2 1157.7,1300.6 1154.8,1302 1151.9,1303.3 1148.9,1304.6 1146,1305.9 1143,1307.2 1140.1,1308.4 
	1137.1,1309.6 1134.1,1310.8 1131.1,1311.9 1128.1,1313 1125,1314.1 1122,1315.2 1118.9,1316.2 1115.9,1317.1 1112.8,1318.1 
	1109.7,1319 1106.6,1319.9 1103.5,1320.7 1100.4,1321.5 1097.3,1322.3 1094.1,1323.1 1091,1323.8 1087.9,1324.5 1084.7,1325.1 
	1081.6,1325.8 1078.4,1326.3 1075.2,1326.9 1072.1,1327.4 1068.9,1327.9 1065.7,1328.4 1062.5,1328.8 1059.3,1329.2 1056.1,1329.5 
	1066.8,1431.4 1071.1,1430.9 1075.3,1430.4 1079.6,1429.8 1083.8,1429.2 1088.1,1428.6 1092.3,1427.9 1096.5,1427.1 1100.8,1426.3 
	1105,1425.5 1109.2,1424.6 1113.4,1423.7 1117.5,1422.8 1121.7,1421.8 1125.9,1420.7 1130,1419.6 1134.1,1418.5 1138.3,1417.3 
	1142.4,1416.1 1146.5,1414.9 1150.6,1413.6 1154.6,1412.2 1158.7,1410.8 1162.7,1409.4 1166.8,1407.9 1170.8,1406.4 1174.8,1404.8 
	1178.8,1403.2 1182.7,1401.6 1186.7,1399.9 1190.6,1398.2 1194.5,1396.4 1198.4,1394.6 1202.3,1392.8 1206.1,1390.9 1210,1389 
	1213.8,1387 1217.6,1385 1221.3,1382.9 1225.1,1380.8 1228.8,1378.7 1232.5,1376.6 1236.2,1374.4 1239.8,1372.1 1243.5,1369.8 
	1247.1,1367.5 1250.7,1365.2 1254.2,1362.8 1257.8,1360.3 1261.3,1357.9 1264.8,1355.4 1268.2,1352.8 1271.6,1350.3 1275,1347.6 
	1278.4,1345 1281.8,1342.3 1285.1,1339.6 1288.4,1336.9 1291.6,1334.1 1294.9,1331.2 1298.1,1328.4 1301.2,1325.5 1304.4,1322.6 
	1307.5,1319.6 1310.6,1316.6 1313.6,1313.6 1316.6,1310.6 1319.6,1307.5 1322.6,1304.4 1325.5,1301.2 1328.4,1298.1 1331.2,1294.9 
	1334.1,1291.6 1336.9,1288.4 1339.6,1285.1 1342.3,1281.8 1345,1278.4 1347.6,1275 1350.3,1271.6 1352.8,1268.2 1355.4,1264.8 
	1357.9,1261.3 1360.3,1257.8 1362.8,1254.2 1365.2,1250.7 1367.5,1247.1 1369.8,1243.5 1372.1,1239.8 1374.4,1236.2 1376.6,1232.5 
	1378.7,1228.8 1380.8,1225.1 1382.9,1221.3 1385,1217.6 1387,1213.8 1389,1210 1390.9,1206.1 1392.8,1202.3 1394.6,1198.4 
	1396.4,1194.5 1398.2,1190.6 1304.6,1148.9 1303.3,1151.9 1302,1154.8 1300.6,1157.7 1299.2,1160.6 1297.7,1163.5 1296.2,1166.3 
	1294.7,1169.2 1293.2,1172 1291.6,1174.8 1290,1177.6 1288.4,1180.4 1286.8,1183.1 1285.1,1185.9 1283.4,1188.6 1281.6,1191.3 
	1279.9,1194 1278.1,1196.7 1276.3,1199.3 1274.4,1202 1272.5,1204.6 1270.6,1207.2 "/>
<polygon class="st2" points="1331.1,1030.4 1331,1033.6 1330.9,1036.9 1330.8,1040.1 1330.6,1043.3 1330.4,1046.5 1330.1,1049.7 
	1329.8,1052.9 1329.5,1056.1 1329.2,1059.3 1328.8,1062.5 1328.4,1065.7 1327.9,1068.9 1327.4,1072.1 1326.9,1075.2 1326.3,1078.4 
	1325.8,1081.6 1325.1,1084.7 1324.5,1087.9 1323.8,1091 1323.1,1094.1 1322.3,1097.3 1321.5,1100.4 1320.7,1103.5 1319.9,1106.6 
	1319,1109.7 1318.1,1112.8 1317.1,1115.9 1316.2,1118.9 1315.2,1122 1314.1,1125 1313,1128.1 1311.9,1131.1 1310.8,1134.1 
	1309.6,1137.1 1308.4,1140.1 1307.2,1143 1305.9,1146 1304.6,1148.9 1398.2,1190.6 1399.9,1186.7 1401.6,1182.7 1403.2,1178.8 
	1404.8,1174.8 1406.4,1170.8 1407.9,1166.8 1409.4,1162.7 1410.8,1158.7 1412.2,1154.6 1413.6,1150.6 1414.9,1146.5 1416.1,1142.4 
	1417.3,1138.3 1418.5,1134.1 1419.6,1130 1420.7,1125.9 1421.8,1121.7 1422.8,1117.5 1423.7,1113.4 1424.6,1109.2 1425.5,1105 
	1426.3,1100.8 1427.1,1096.5 1427.9,1092.3 1428.6,1088.1 1429.2,1083.8 1429.8,1079.6 1430.4,1075.3 1430.9,1071.1 1431.4,1066.8 
	1431.8,1062.5 1432.2,1058.3 1432.5,1054 1432.8,1049.7 1433,1045.4 1433.2,1041.2 1433.4,1036.9 1433.5,1032.6 1433.6,1028.3 
	1433.6,1024 1331.2,1024 1331.2,1027.2 "/>
<polygon class="st4" points="512.1,1034.7 512.3,1040.1 512.4,1045.4 512.7,1050.8 513,1056.1 513.4,1061.5 513.8,1066.8 
	514.3,1072.2 514.8,1077.5 515.4,1082.8 516,1088.2 516.7,1093.5 517.5,1098.8 518.3,1104.1 519.2,1109.4 520.1,1114.7 
	521.1,1119.9 522.1,1125.2 523.2,1130.5 524.3,1135.7 525.5,1140.9 526.8,1146.1 528.1,1151.3 529.4,1156.5 530.9,1161.7 
	532.3,1166.8 533.9,1172 535.4,1177.1 537.1,1182.2 538.7,1187.3 540.5,1192.4 542.3,1197.4 544.1,1202.5 546,1207.5 548,1212.5 
	550,1217.5 552,1222.4 554.1,1227.3 556.3,1232.2 558.5,1237.1 560.7,1242 563,1246.8 565.4,1251.7 567.8,1256.4 570.3,1261.2 
	572.8,1265.9 575.3,1270.7 577.9,1275.3 580.6,1280 583.3,1284.6 586.1,1289.2 588.9,1293.8 591.7,1298.3 594.6,1302.9 
	597.5,1307.3 600.5,1311.8 603.6,1316.2 606.7,1320.6 609.8,1324.9 613,1329.3 616.2,1333.6 619.4,1337.8 622.7,1342 626.1,1346.2 
	629.5,1350.4 632.9,1354.5 636.4,1358.6 639.9,1362.6 643.5,1366.6 647.1,1370.6 650.8,1374.5 654.5,1378.4 658.2,1382.2 662,1386 
	665.8,1389.8 669.6,1393.5 673.5,1397.2 677.4,1400.9 681.4,1404.5 749.9,1328.4 746.8,1325.5 743.6,1322.6 740.5,1319.6 
	737.4,1316.6 734.4,1313.6 731.4,1310.6 728.4,1307.5 725.4,1304.4 722.5,1301.2 719.6,1298.1 716.8,1294.9 713.9,1291.6 
	711.1,1288.4 708.4,1285.1 705.7,1281.8 703,1278.4 700.4,1275 697.7,1271.6 695.2,1268.2 692.6,1264.8 690.1,1261.3 687.7,1257.8 
	685.2,1254.2 682.8,1250.7 680.5,1247.1 678.2,1243.5 675.9,1239.8 673.6,1236.2 671.4,1232.5 669.3,1228.8 667.2,1225.1 
	665.1,1221.3 663,1217.6 661,1213.8 659,1210 657.1,1206.1 655.2,1202.3 653.4,1198.4 651.6,1194.5 649.8,1190.6 648.1,1186.7 
	646.4,1182.7 644.8,1178.8 643.2,1174.8 641.6,1170.8 640.1,1166.8 638.6,1162.7 637.2,1158.7 635.8,1154.6 634.4,1150.6 
	633.1,1146.5 631.9,1142.4 630.7,1138.3 629.5,1134.1 628.4,1130 627.3,1125.9 626.2,1121.7 625.2,1117.5 624.3,1113.4 
	623.4,1109.2 622.5,1105 621.7,1100.8 620.9,1096.5 620.1,1092.3 619.4,1088.1 618.8,1083.8 618.2,1079.6 617.6,1075.3 
	617.1,1071.1 616.6,1066.8 616.2,1062.5 615.8,1058.3 615.5,1054 615.2,1049.7 615,1045.4 614.8,1041.2 614.6,1036.9 614.5,1032.6 
	614.4,1028.3 614.4,1024 512,1024 512,1029.4 "/>
<polygon class="st0" points="777.3,1472.7 782.1,1475.2 786.8,1477.7 791.6,1480.2 796.3,1482.6 801.2,1485 806,1487.3 
	810.9,1489.5 815.8,1491.7 820.7,1493.9 825.6,1496 830.5,1498 835.5,1500 840.5,1502 845.5,1503.9 850.6,1505.7 855.6,1507.5 
	860.7,1509.3 865.8,1510.9 870.9,1512.6 876,1514.1 881.2,1515.7 886.3,1517.1 891.5,1518.6 896.7,1519.9 901.9,1521.2 
	907.1,1522.5 912.3,1523.7 917.5,1524.8 922.8,1525.9 928.1,1526.9 933.3,1527.9 938.6,1528.8 943.9,1529.7 949.2,1530.5 
	954.5,1531.3 959.8,1532 965.2,1532.6 970.5,1533.2 975.8,1533.7 981.2,1534.2 986.5,1534.6 991.9,1535 997.2,1535.3 1002.6,1535.6 
	1007.9,1535.7 1013.3,1535.9 1018.6,1536 1024,1536 1029.4,1536 1034.7,1535.9 1040.1,1535.7 1045.4,1535.6 1050.8,1535.3 
	1056.1,1535 1061.5,1534.6 1066.8,1534.2 1072.2,1533.7 1077.5,1533.2 1082.8,1532.6 1088.2,1532 1093.5,1531.3 1098.8,1530.5 
	1104.1,1529.7 1109.4,1528.8 1114.7,1527.9 1119.9,1526.9 1125.2,1525.9 1130.5,1524.8 1135.7,1523.7 1140.9,1522.5 1146.1,1521.2 
	1151.3,1519.9 1156.5,1518.6 1161.7,1517.1 1166.8,1515.7 1172,1514.1 1177.1,1512.6 1182.2,1510.9 1150.6,1413.6 1146.5,1414.9 
	1142.4,1416.1 1138.3,1417.3 1134.1,1418.5 1130,1419.6 1125.9,1420.7 1121.7,1421.8 1117.5,1422.8 1113.4,1423.7 1109.2,1424.6 
	1105,1425.5 1100.8,1426.3 1096.5,1427.1 1092.3,1427.9 1088.1,1428.6 1083.8,1429.2 1079.6,1429.8 1075.3,1430.4 1071.1,1430.9 
	1066.8,1431.4 1062.5,1431.8 1058.3,1432.2 1054,1432.5 1049.7,1432.8 1045.4,1433 1041.2,1433.2 1036.9,1433.4 1032.6,1433.5 
	1028.3,1433.6 1024,1433.6 1019.7,1433.6 1015.4,1433.5 1011.1,1433.4 1006.8,1433.2 1002.6,1433 998.3,1432.8 994,1432.5 
	989.7,1432.2 985.5,1431.8 981.2,1431.4 976.9,1430.9 972.7,1430.4 968.4,1429.8 964.2,1429.2 959.9,1428.6 955.7,1427.9 
	951.5,1427.1 947.2,1426.3 943,1425.5 938.8,1424.6 934.6,1423.7 930.5,1422.8 926.3,1421.8 922.1,1420.7 918,1419.6 913.9,1418.5 
	909.7,1417.3 905.6,1416.1 901.5,1414.9 897.4,1413.6 893.4,1412.2 889.3,1410.8 885.3,1409.4 881.2,1407.9 877.2,1406.4 
	873.2,1404.8 869.2,1403.2 865.3,1401.6 861.3,1399.9 857.4,1398.2 853.5,1396.4 849.6,1394.6 845.7,1392.8 841.9,1390.9 838,1389 
	834.2,1387 830.4,1385 826.7,1382.9 822.9,1380.8 819.2,1378.7 815.5,1376.6 811.8,1374.4 808.2,1372.1 804.5,1369.8 800.9,1367.5 
	797.3,1365.2 793.8,1362.8 790.2,1360.3 786.7,1357.9 783.2,1355.4 779.8,1352.8 776.4,1350.3 773,1347.6 769.6,1345 766.2,1342.3 
	762.9,1339.6 759.6,1336.9 756.4,1334.1 753.1,1331.2 749.9,1328.4 681.4,1404.5 685.4,1408.1 689.4,1411.6 693.5,1415.1 
	697.6,1418.5 701.8,1421.9 706,1425.3 710.2,1428.6 714.4,1431.8 718.7,1435 723.1,1438.2 727.4,1441.3 731.8,1444.4 736.2,1447.5 
	740.7,1450.5 745.1,1453.4 749.7,1456.3 754.2,1459.1 758.8,1461.9 763.4,1464.7 768,1467.4 772.7,1470.1 "/>
<polygon class="st4" points="1394.6,1198.4 1392.8,1202.3 1390.9,1206.1 1389,1210 1387,1213.8 1385,1217.6 1382.9,1221.3 
	1380.8,1225.1 1378.7,1228.8 1376.6,1232.5 1374.4,1236.2 1372.1,1239.8 1369.8,1243.5 1367.5,1247.1 1365.2,1250.7 1362.8,1254.2 
	1360.3,1257.8 1357.9,1261.3 1355.4,1264.8 1352.8,1268.2 1350.3,1271.6 1347.6,1275 1345,1278.4 1342.3,1281.8 1339.6,1285.1 
	1336.9,1288.4 1334.1,1291.6 1331.2,1294.9 1328.4,1298.1 1325.5,1301.2 1322.6,1304.4 1319.6,1307.5 1316.6,1310.6 1313.6,1313.6 
	1310.6,1316.6 1307.5,1319.6 1304.4,1322.6 1301.2,1325.5 1298.1,1328.4 1294.9,1331.2 1291.6,1334.1 1288.4,1336.9 1285.1,1339.6 
	1281.8,1342.3 1278.4,1345 1275,1347.6 1271.6,1350.3 1268.2,1352.8 1264.8,1355.4 1261.3,1357.9 1257.8,1360.3 1254.2,1362.8 
	1250.7,1365.2 1247.1,1367.5 1243.5,1369.8 1239.8,1372.1 1236.2,1374.4 1232.5,1376.6 1228.8,1378.7 1225.1,1380.8 1221.3,1382.9 
	1217.6,1385 1213.8,1387 1210,1389 1206.1,1390.9 1202.3,1392.8 1198.4,1394.6 1194.5,1396.4 1190.6,1398.2 1186.7,1399.9 
	1182.7,1401.6 1178.8,1403.2 1174.8,1404.8 1170.8,1406.4 1166.8,1407.9 1162.7,1409.4 1158.7,1410.8 1154.6,1412.2 1150.6,1413.6 
	1182.2,1510.9 1187.3,1509.3 1192.4,1507.5 1197.4,1505.7 1202.5,1503.9 1207.5,1502 1212.5,1500 1217.5,1498 1222.4,1496 
	1227.3,1493.9 1232.2,1491.7 1237.1,1489.5 1242,1487.3 1246.8,1485 1251.7,1482.6 1256.4,1480.2 1261.2,1477.7 1265.9,1475.2 
	1270.7,1472.7 1275.3,1470.1 1280,1467.4 1284.6,1464.7 1289.2,1461.9 1293.8,1459.1 1298.3,1456.3 1302.9,1453.4 1307.3,1450.5 
	1311.8,1447.5 1316.2,1444.4 1320.6,1441.3 1324.9,1438.2 1329.3,1435 1333.6,1431.8 1337.8,1428.6 1342,1425.3 1346.2,1421.9 
	1350.4,1418.5 1354.5,1415.1 1358.6,1411.6 1362.6,1408.1 1366.6,1404.5 1370.6,1400.9 1374.5,1397.2 1378.4,1393.5 1382.2,1389.8 
	1386,1386 1389.8,1382.2 1393.5,1378.4 1397.2,1374.5 1400.9,1370.6 1404.5,1366.6 1408.1,1362.6 1411.6,1358.6 1415.1,1354.5 
	1418.5,1350.4 1421.9,1346.2 1425.3,1342 1428.6,1337.8 1431.8,1333.6 1435,1329.3 1438.2,1324.9 1441.3,1320.6 1444.4,1316.2 
	1447.5,1311.8 1450.5,1307.3 1453.4,1302.9 1456.3,1298.3 1459.1,1293.8 1461.9,1289.2 1464.7,1284.6 1467.4,1280 1470.1,1275.3 
	1472.7,1270.7 1475.2,1265.9 1477.7,1261.2 1480.2,1256.4 1482.6,1251.7 1485,1246.8 1487.3,1242 1489.5,1237.1 1491.7,1232.2 
	1493.9,1227.3 1496,1222.4 1498,1217.5 1500,1212.5 1502,1207.5 1503.9,1202.5 1505.7,1197.4 1507.5,1192.4 1509.3,1187.3 
	1510.9,1182.2 1512.6,1177.1 1514.1,1172 1515.7,1166.8 1517.1,1161.7 1518.6,1156.5 1519.9,1151.3 1521.2,1146.1 1522.5,1140.9 
	1523.7,1135.7 1524.8,1130.5 1424.6,1109.2 1423.7,1113.4 1422.8,1117.5 1421.8,1121.7 1420.7,1125.9 1419.6,1130 1418.5,1134.1 
	1417.3,1138.3 1416.1,1142.4 1414.9,1146.5 1413.6,1150.6 1412.2,1154.6 1410.8,1158.7 1409.4,1162.7 1407.9,1166.8 1406.4,1170.8 
	1404.8,1174.8 1403.2,1178.8 1401.6,1182.7 1399.9,1186.7 1398.2,1190.6 1396.4,1194.5 "/>
<polygon class="st0" points="1433.5,1032.6 1433.4,1036.9 1433.2,1041.2 1433,1045.4 1432.8,1049.7 1432.5,1054 1432.2,1058.3 
	1431.8,1062.5 1431.4,1066.8 1430.9,1071.1 1430.4,1075.3 1429.8,1079.6 1429.2,1083.8 1428.6,1088.1 1427.9,1092.3 1427.1,1096.5 
	1426.3,1100.8 1425.5,1105 1424.6,1109.2 1524.8,1130.5 1525.9,1125.2 1526.9,1119.9 1527.9,1114.7 1528.8,1109.4 1529.7,1104.1 
	1530.5,1098.8 1531.3,1093.5 1532,1088.2 1532.6,1082.8 1533.2,1077.5 1533.7,1072.2 1534.2,1066.8 1534.6,1061.5 1535,1056.1 
	1535.3,1050.8 1535.6,1045.4 1535.7,1040.1 1535.9,1034.7 1536,1029.4 1536,1024 1433.6,1024 1433.6,1028.3 "/>
<polygon class="st1" points="409.7,1036.9 409.9,1043.3 410.1,1049.7 410.4,1056.2 410.8,1062.6 411.2,1069 411.8,1075.4 
	412.3,1081.8 413,1088.2 413.7,1094.6 414.4,1101 415.3,1107.4 416.2,1113.8 417.2,1120.1 418.2,1126.5 419.3,1132.8 420.5,1139.1 
	421.7,1145.4 423,1151.7 424.4,1158 425.8,1164.3 427.3,1170.6 428.9,1176.8 430.5,1183 432.2,1189.2 434,1195.4 435.8,1201.6 
	437.7,1207.7 439.7,1213.9 441.7,1220 443.8,1226.1 445.9,1232.1 448.1,1238.2 450.4,1244.2 452.7,1250.2 455.1,1256.1 
	457.6,1262.1 460.1,1268 462.7,1273.9 465.4,1279.8 468.1,1285.6 470.8,1291.4 473.7,1297.2 476.6,1302.9 479.5,1308.6 
	482.5,1314.3 485.6,1320 488.7,1325.6 491.9,1331.2 495.2,1336.8 498.5,1342.3 501.8,1347.8 505.2,1353.2 508.7,1358.6 512.3,1364 
	515.8,1369.3 519.5,1374.6 523.2,1379.9 526.9,1385.1 530.7,1390.3 534.6,1395.5 538.5,1400.6 542.5,1405.6 546.5,1410.7 
	550.6,1415.6 554.7,1420.6 558.9,1425.5 563.1,1430.3 567.4,1435.1 571.7,1439.9 576.1,1444.6 580.6,1449.3 585,1453.9 
	589.6,1458.4 594.1,1463 598.7,1467.4 603.4,1471.9 608.1,1476.3 612.9,1480.6 617.7,1484.9 622.5,1489.1 627.4,1493.3 
	632.4,1497.4 637.3,1501.5 642.4,1505.5 647.4,1509.5 652.5,1513.4 657.7,1517.3 662.9,1521.1 668.1,1524.8 673.4,1528.5 
	678.7,1532.2 684,1535.7 689.4,1539.3 694.8,1542.8 700.2,1546.2 705.7,1549.5 711.2,1552.8 716.8,1556.1 768,1467.4 763.4,1464.7 
	758.8,1461.9 754.2,1459.1 749.7,1456.3 745.1,1453.4 740.7,1450.5 736.2,1447.5 731.8,1444.4 727.4,1441.3 723.1,1438.2 
	718.7,1435 714.4,1431.8 710.2,1428.6 706,1425.3 701.8,1421.9 697.6,1418.5 693.5,1415.1 689.4,1411.6 685.4,1408.1 681.4,1404.5 
	677.4,1400.9 673.5,1397.2 669.6,1393.5 665.8,1389.8 662,1386 658.2,1382.2 654.5,1378.4 650.8,1374.5 647.1,1370.6 643.5,1366.6 
	639.9,1362.6 636.4,1358.6 632.9,1354.5 629.5,1350.4 626.1,1346.2 622.7,1342 619.4,1337.8 616.2,1333.6 613,1329.3 609.8,1324.9 
	606.7,1320.6 603.6,1316.2 600.5,1311.8 597.5,1307.3 594.6,1302.9 591.7,1298.3 588.9,1293.8 586.1,1289.2 583.3,1284.6 
	580.6,1280 577.9,1275.3 575.3,1270.7 572.8,1265.9 570.3,1261.2 567.8,1256.4 565.4,1251.7 563,1246.8 560.7,1242 558.5,1237.1 
	556.3,1232.2 554.1,1227.3 552,1222.4 550,1217.5 548,1212.5 546,1207.5 544.1,1202.5 542.3,1197.4 540.5,1192.4 538.7,1187.3 
	537.1,1182.2 535.4,1177.1 533.9,1172 532.3,1166.8 530.9,1161.7 529.4,1156.5 528.1,1151.3 526.8,1146.1 525.5,1140.9 
	524.3,1135.7 523.2,1130.5 522.1,1125.2 521.1,1119.9 520.1,1114.7 519.2,1109.4 518.3,1104.1 517.5,1098.8 516.7,1093.5 
	516,1088.2 515.4,1082.8 514.8,1077.5 514.3,1072.2 513.8,1066.8 513.4,1061.5 513,1056.1 512.7,1050.8 512.4,1045.4 512.3,1040.1 
	512.1,1034.7 512,1029.4 512,1024 409.6,1024 409.6,1030.4 "/>
<polygon class="st4" points="728,1562.4 733.7,1565.5 739.4,1568.5 745.1,1571.4 750.8,1574.3 756.6,1577.2 762.4,1579.9 
	768.2,1582.6 774.1,1585.3 780,1587.9 785.9,1590.4 791.9,1592.9 797.8,1595.3 803.8,1597.6 809.8,1599.9 815.9,1602.1 
	821.9,1604.2 828,1606.3 834.1,1608.3 840.3,1610.3 846.4,1612.2 852.6,1614 858.8,1615.8 865,1617.5 871.2,1619.1 877.4,1620.7 
	883.7,1622.2 890,1623.6 896.3,1625 902.6,1626.3 908.9,1627.5 915.2,1628.7 921.5,1629.8 927.9,1630.8 934.2,1631.8 940.6,1632.7 
	947,1633.6 953.4,1634.3 959.8,1635 966.2,1635.7 972.6,1636.2 979,1636.8 985.4,1637.2 991.8,1637.6 998.3,1637.9 1004.7,1638.1 
	1011.1,1638.3 1017.6,1638.4 1024,1638.4 1030.4,1638.4 1036.9,1638.3 1043.3,1638.1 1049.7,1637.9 1056.2,1637.6 1062.6,1637.2 
	1069,1636.8 1075.4,1636.2 1081.8,1635.7 1088.2,1635 1094.6,1634.3 1101,1633.6 1107.4,1632.7 1113.8,1631.8 1120.1,1630.8 
	1126.5,1629.8 1132.8,1628.7 1139.1,1627.5 1145.4,1626.3 1151.7,1625 1158,1623.6 1164.3,1622.2 1170.6,1620.7 1176.8,1619.1 
	1183,1617.5 1189.2,1615.8 1195.4,1614 1201.6,1612.2 1207.7,1610.3 1213.9,1608.3 1220,1606.3 1226.1,1604.2 1232.1,1602.1 
	1238.2,1599.9 1244.2,1597.6 1250.2,1595.3 1256.1,1592.9 1262.1,1590.4 1268,1587.9 1273.9,1585.3 1279.8,1582.6 1285.6,1579.9 
	1291.4,1577.2 1297.2,1574.3 1302.9,1571.4 1308.6,1568.5 1314.3,1565.5 1320,1562.4 1325.6,1559.3 1331.2,1556.1 1280,1467.4 
	1275.3,1470.1 1270.7,1472.7 1265.9,1475.2 1261.2,1477.7 1256.4,1480.2 1251.7,1482.6 1246.8,1485 1242,1487.3 1237.1,1489.5 
	1232.2,1491.7 1227.3,1493.9 1222.4,1496 1217.5,1498 1212.5,1500 1207.5,1502 1202.5,1503.9 1197.4,1505.7 1192.4,1507.5 
	1187.3,1509.3 1182.2,1510.9 1177.1,1512.6 1172,1514.1 1166.8,1515.7 1161.7,1517.1 1156.5,1518.6 1151.3,1519.9 1146.1,1521.2 
	1140.9,1522.5 1135.7,1523.7 1130.5,1524.8 1125.2,1525.9 1119.9,1526.9 1114.7,1527.9 1109.4,1528.8 1104.1,1529.7 1098.8,1530.5 
	1093.5,1531.3 1088.2,1532 1082.8,1532.6 1077.5,1533.2 1072.2,1533.7 1066.8,1534.2 1061.5,1534.6 1056.1,1535 1050.8,1535.3 
	1045.4,1535.6 1040.1,1535.7 1034.7,1535.9 1029.4,1536 1024,1536 1018.6,1536 1013.3,1535.9 1007.9,1535.7 1002.6,1535.6 
	997.2,1535.3 991.9,1535 986.5,1534.6 981.2,1534.2 975.8,1533.7 970.5,1533.2 965.2,1532.6 959.8,1532 954.5,1531.3 949.2,1530.5 
	943.9,1529.7 938.6,1528.8 933.3,1527.9 928.1,1526.9 922.8,1525.9 917.5,1524.8 912.3,1523.7 907.1,1522.5 901.9,1521.2 
	896.7,1519.9 891.5,1518.6 886.3,1517.1 881.2,1515.7 876,1514.1 870.9,1512.6 865.8,1510.9 860.7,1509.3 855.6,1507.5 
	850.6,1505.7 845.5,1503.9 840.5,1502 835.5,1500 830.5,1498 825.6,1496 820.7,1493.9 815.8,1491.7 810.9,1489.5 806,1487.3 
	801.2,1485 796.3,1482.6 791.6,1480.2 786.8,1477.7 782.1,1475.2 777.3,1472.7 772.7,1470.1 768,1467.4 716.8,1556.1 722.4,1559.3 
	"/>
<polygon class="st1" points="1535.9,1034.7 1535.7,1040.1 1535.6,1045.4 1535.3,1050.8 1535,1056.1 1534.6,1061.5 1534.2,1066.8 
	1533.7,1072.2 1533.2,1077.5 1532.6,1082.8 1532,1088.2 1531.3,1093.5 1530.5,1098.8 1529.7,1104.1 1528.8,1109.4 1527.9,1114.7 
	1526.9,1119.9 1525.9,1125.2 1524.8,1130.5 1523.7,1135.7 1522.5,1140.9 1521.2,1146.1 1519.9,1151.3 1518.6,1156.5 1517.1,1161.7 
	1515.7,1166.8 1514.1,1172 1512.6,1177.1 1510.9,1182.2 1509.3,1187.3 1507.5,1192.4 1505.7,1197.4 1503.9,1202.5 1502,1207.5 
	1500,1212.5 1498,1217.5 1496,1222.4 1493.9,1227.3 1491.7,1232.2 1489.5,1237.1 1487.3,1242 1485,1246.8 1482.6,1251.7 
	1480.2,1256.4 1477.7,1261.2 1475.2,1265.9 1472.7,1270.7 1470.1,1275.3 1467.4,1280 1464.7,1284.6 1461.9,1289.2 1459.1,1293.8 
	1456.3,1298.3 1453.4,1302.9 1450.5,1307.3 1447.5,1311.8 1444.4,1316.2 1441.3,1320.6 1438.2,1324.9 1435,1329.3 1431.8,1333.6 
	1428.6,1337.8 1425.3,1342 1421.9,1346.2 1418.5,1350.4 1415.1,1354.5 1411.6,1358.6 1408.1,1362.6 1404.5,1366.6 1400.9,1370.6 
	1397.2,1374.5 1393.5,1378.4 1389.8,1382.2 1386,1386 1382.2,1389.8 1378.4,1393.5 1374.5,1397.2 1370.6,1400.9 1366.6,1404.5 
	1362.6,1408.1 1358.6,1411.6 1354.5,1415.1 1350.4,1418.5 1346.2,1421.9 1342,1425.3 1337.8,1428.6 1333.6,1431.8 1329.3,1435 
	1324.9,1438.2 1320.6,1441.3 1316.2,1444.4 1311.8,1447.5 1307.3,1450.5 1302.9,1453.4 1298.3,1456.3 1293.8,1459.1 1289.2,1461.9 
	1284.6,1464.7 1280,1467.4 1331.2,1556.1 1336.8,1552.8 1342.3,1549.5 1347.8,1546.2 1353.2,1542.8 1358.6,1539.3 1364,1535.7 
	1369.3,1532.2 1374.6,1528.5 1379.9,1524.8 1385.1,1521.1 1390.3,1517.3 1395.5,1513.4 1400.6,1509.5 1405.6,1505.5 1410.7,1501.5 
	1415.6,1497.4 1420.6,1493.3 1425.5,1489.1 1430.3,1484.9 1435.1,1480.6 1439.9,1476.3 1444.6,1471.9 1449.3,1467.4 1453.9,1463 
	1458.4,1458.4 1463,1453.9 1467.4,1449.3 1471.9,1444.6 1476.3,1439.9 1480.6,1435.1 1484.9,1430.3 1489.1,1425.5 1493.3,1420.6 
	1497.4,1415.6 1501.5,1410.7 1505.5,1405.6 1509.5,1400.6 1513.4,1395.5 1517.3,1390.3 1521.1,1385.1 1524.8,1379.9 1528.5,1374.6 
	1532.2,1369.3 1535.7,1364 1539.3,1358.6 1542.8,1353.2 1546.2,1347.8 1549.5,1342.3 1552.8,1336.8 1556.1,1331.2 1559.3,1325.6 
	1562.4,1320 1565.5,1314.3 1568.5,1308.6 1571.4,1302.9 1574.3,1297.2 1577.2,1291.4 1579.9,1285.6 1582.6,1279.8 1585.3,1273.9 
	1587.9,1268 1590.4,1262.1 1592.9,1256.1 1595.3,1250.2 1597.6,1244.2 1599.9,1238.2 1602.1,1232.1 1604.2,1226.1 1606.3,1220 
	1608.3,1213.9 1610.3,1207.7 1612.2,1201.6 1614,1195.4 1615.8,1189.2 1617.5,1183 1619.1,1176.8 1620.7,1170.6 1622.2,1164.3 
	1623.6,1158 1625,1151.7 1626.3,1145.4 1627.5,1139.1 1628.7,1132.8 1629.8,1126.5 1630.8,1120.1 1631.8,1113.8 1632.7,1107.4 
	1633.6,1101 1634.3,1094.6 1635,1088.2 1635.7,1081.8 1636.2,1075.4 1636.8,1069 1637.2,1062.6 1637.6,1056.2 1637.9,1049.7 
	1638.1,1043.3 1638.3,1036.9 1638.4,1030.4 1638.4,1024 1536,1024 1536,1029.4 "/>
<polygon class="st0" points="1320,1562.4 1314.3,1565.5 1308.6,1568.5 1302.9,1571.4 1297.2,1574.3 1291.4,1577.2 1285.6,1579.9 
	1279.8,1582.6 1273.9,1585.3 1268,1587.9 1262.1,1590.4 1256.1,1592.9 1250.2,1595.3 1244.2,1597.6 1238.2,1599.9 1232.1,1602.1 
	1226.1,1604.2 1220,1606.3 1213.9,1608.3 1207.7,1610.3 1201.6,1612.2 1195.4,1614 1189.2,1615.8 1183,1617.5 1176.8,1619.1 
	1170.6,1620.7 1164.3,1622.2 1158,1623.6 1151.7,1625 1145.4,1626.3 1139.1,1627.5 1132.8,1628.7 1126.5,1629.8 1120.1,1630.8 
	1113.8,1631.8 1107.4,1632.7 1101,1633.6 1094.6,1634.3 1088.2,1635 1081.8,1635.7 1075.4,1636.2 1069,1636.8 1062.6,1637.2 
	1056.2,1637.6 1049.7,1637.9 1043.3,1638.1 1036.9,1638.3 1030.4,1638.4 1024,1638.4 1017.6,1638.4 1011.1,1638.3 1004.7,1638.1 
	998.3,1637.9 991.8,1637.6 985.4,1637.2 979,1636.8 972.6,1636.2 966.2,1635.7 959.8,1635 953.4,1634.3 947,1633.6 940.6,1632.7 
	934.2,1631.8 927.9,1630.8 921.5,1629.8 915.2,1628.7 908.9,1627.5 902.6,1626.3 896.3,1625 890,1623.6 883.7,1622.2 877.4,1620.7 
	871.2,1619.1 865,1617.5 858.8,1615.8 852.6,1614 846.4,1612.2 840.3,1610.3 834.1,1608.3 802.5,1705.7 809.6,1708 816.8,1710.2 
	824,1712.3 831.2,1714.4 838.5,1716.4 845.7,1718.3 853,1720.1 860.3,1721.9 867.6,1723.5 875,1725.1 882.3,1726.7 889.7,1728.1 
	897.1,1729.5 904.5,1730.8 911.9,1732 919.3,1733.1 926.7,1734.2 934.2,1735.1 941.6,1736 949.1,1736.9 956.5,1737.6 964,1738.3 
	971.5,1738.9 979,1739.4 986.5,1739.8 994,1740.2 1001.5,1740.4 1009,1740.6 1016.5,1740.8 1024,1740.8 1031.5,1740.8 1039,1740.6 
	1046.5,1740.4 1054,1740.2 1061.5,1739.8 1069,1739.4 1076.5,1738.9 1084,1738.3 1091.5,1737.6 1098.9,1736.9 1106.4,1736 
	1113.8,1735.1 1121.3,1734.2 1128.7,1733.1 1136.1,1732 1143.5,1730.8 1150.9,1729.5 1158.3,1728.1 1165.7,1726.7 1173,1725.1 
	1180.4,1723.5 1187.7,1721.9 1195,1720.1 1202.3,1718.3 1209.5,1716.4 1216.8,1714.4 1224,1712.3 1231.2,1710.2 1238.4,1708 
	1245.5,1705.7 1252.6,1703.4 1259.7,1700.9 1266.8,1698.4 1273.9,1695.8 1280.9,1693.2 1287.9,1690.5 1294.8,1687.7 1301.8,1684.8 
	1308.7,1681.8 1315.5,1678.8 1322.4,1675.7 1329.2,1672.6 1336,1669.3 1342.7,1666 1349.4,1662.7 1356.1,1659.2 1362.7,1655.7 
	1369.3,1652.1 1375.9,1648.5 1382.4,1644.8 1388.9,1641 1395.3,1637.1 1401.7,1633.2 1408.1,1629.2 1414.4,1625.2 1420.7,1621 
	1426.9,1616.9 1433.1,1612.6 1439.2,1608.3 1445.3,1603.9 1451.4,1599.5 1457.4,1595 1463.3,1590.4 1469.2,1585.8 1475.1,1581.1 
	1480.9,1576.3 1486.7,1571.5 1492.4,1566.6 1498,1561.7 1503.6,1556.7 1435.1,1480.6 1430.3,1484.9 1425.5,1489.1 1420.6,1493.3 
	1415.6,1497.4 1410.7,1501.5 1405.6,1505.5 1400.6,1509.5 1395.5,1513.4 1390.3,1517.3 1385.1,1521.1 1379.9,1524.8 1374.6,1528.5 
	1369.3,1532.2 1364,1535.7 1358.6,1539.3 1353.2,1542.8 1347.8,1546.2 1342.3,1549.5 1336.8,1552.8 1331.2,1556.1 1325.6,1559.3 "/>
<polygon class="st5" points="1638.3,1036.9 1638.1,1043.3 1637.9,1049.7 1637.6,1056.2 1637.2,1062.6 1636.8,1069 1636.2,1075.4 
	1635.7,1081.8 1635,1088.2 1634.3,1094.6 1633.6,1101 1632.7,1107.4 1631.8,1113.8 1630.8,1120.1 1629.8,1126.5 1628.7,1132.8 
	1627.5,1139.1 1626.3,1145.4 1625,1151.7 1623.6,1158 1622.2,1164.3 1620.7,1170.6 1619.1,1176.8 1617.5,1183 1615.8,1189.2 
	1614,1195.4 1612.2,1201.6 1610.3,1207.7 1608.3,1213.9 1606.3,1220 1604.2,1226.1 1602.1,1232.1 1599.9,1238.2 1597.6,1244.2 
	1595.3,1250.2 1592.9,1256.1 1590.4,1262.1 1587.9,1268 1585.3,1273.9 1582.6,1279.8 1579.9,1285.6 1577.2,1291.4 1574.3,1297.2 
	1571.4,1302.9 1568.5,1308.6 1565.5,1314.3 1562.4,1320 1559.3,1325.6 1556.1,1331.2 1552.8,1336.8 1549.5,1342.3 1546.2,1347.8 
	1542.8,1353.2 1539.3,1358.6 1535.7,1364 1532.2,1369.3 1528.5,1374.6 1524.8,1379.9 1521.1,1385.1 1517.3,1390.3 1513.4,1395.5 
	1509.5,1400.6 1505.5,1405.6 1501.5,1410.7 1497.4,1415.6 1493.3,1420.6 1489.1,1425.5 1484.9,1430.3 1480.6,1435.1 1476.3,1439.9 
	1471.9,1444.6 1467.4,1449.3 1463,1453.9 1458.4,1458.4 1453.9,1463 1449.3,1467.4 1444.6,1471.9 1439.9,1476.3 1435.1,1480.6 
	1503.6,1556.7 1509.2,1551.6 1514.7,1546.5 1520.1,1541.4 1525.5,1536.1 1530.9,1530.9 1536.1,1525.5 1541.4,1520.1 1546.5,1514.7 
	1551.6,1509.2 1556.7,1503.6 1561.7,1498 1566.6,1492.4 1571.5,1486.7 1576.3,1480.9 1581.1,1475.1 1585.8,1469.2 1590.4,1463.3 
	1595,1457.4 1599.5,1451.4 1603.9,1445.3 1608.3,1439.2 1612.6,1433.1 1616.9,1426.9 1621,1420.7 1625.2,1414.4 1629.2,1408.1 
	1633.2,1401.7 1637.1,1395.3 1641,1388.9 1644.8,1382.4 1648.5,1375.9 1652.1,1369.3 1655.7,1362.7 1659.2,1356.1 1662.7,1349.4 
	1666,1342.7 1669.3,1336 1672.6,1329.2 1675.7,1322.4 1678.8,1315.5 1681.8,1308.7 1684.8,1301.8 1687.7,1294.8 1690.5,1287.9 
	1693.2,1280.9 1695.8,1273.9 1698.4,1266.8 1700.9,1259.7 1703.4,1252.6 1705.7,1245.5 1708,1238.4 1710.2,1231.2 1712.3,1224 
	1714.4,1216.8 1716.4,1209.5 1718.3,1202.3 1720.1,1195 1721.9,1187.7 1723.5,1180.4 1725.1,1173 1726.7,1165.7 1728.1,1158.3 
	1729.5,1150.9 1730.8,1143.5 1732,1136.1 1733.1,1128.7 1734.2,1121.3 1735.1,1113.8 1736,1106.4 1736.9,1098.9 1737.6,1091.5 
	1738.3,1084 1738.9,1076.5 1739.4,1069 1739.8,1061.5 1740.2,1054 1740.4,1046.5 1740.6,1039 1740.8,1031.5 1740.8,1024 
	1638.4,1024 1638.4,1030.4 "/>
<polygon class="st0" points="307.4,1039 307.6,1046.5 307.8,1054 308.2,1061.5 308.6,1069 309.1,1076.5 309.7,1084 310.4,1091.5 
	311.1,1098.9 312,1106.4 312.9,1113.8 313.8,1121.3 314.9,1128.7 316,1136.1 317.2,1143.5 318.5,1150.9 319.9,1158.3 321.3,1165.7 
	322.9,1173 423,1151.7 421.7,1145.4 420.5,1139.1 419.3,1132.8 418.2,1126.5 417.2,1120.1 416.2,1113.8 415.3,1107.4 414.4,1101 
	413.7,1094.6 413,1088.2 412.3,1081.8 411.8,1075.4 411.2,1069 410.8,1062.6 410.4,1056.2 410.1,1049.7 409.9,1043.3 409.7,1036.9 
	409.6,1030.4 409.6,1024 307.2,1024 307.2,1031.5 "/>
<polygon class="st5" points="375.4,1329.2 378.7,1336 382,1342.7 385.3,1349.4 388.8,1356.1 392.3,1362.7 395.9,1369.3 
	399.5,1375.9 403.2,1382.4 407,1388.9 410.9,1395.3 414.8,1401.7 418.8,1408.1 422.8,1414.4 427,1420.7 431.1,1426.9 435.4,1433.1 
	439.7,1439.2 444.1,1445.3 448.5,1451.4 453,1457.4 457.6,1463.3 462.2,1469.2 466.9,1475.1 471.7,1480.9 476.5,1486.7 
	481.4,1492.4 486.3,1498 491.3,1503.6 496.4,1509.2 501.5,1514.7 506.6,1520.1 511.9,1525.5 517.1,1530.9 522.5,1536.1 
	527.9,1541.4 533.3,1546.5 538.8,1551.6 544.4,1556.7 550,1561.7 555.6,1566.6 561.3,1571.5 567.1,1576.3 572.9,1581.1 
	578.8,1585.8 584.7,1590.4 590.6,1595 596.6,1599.5 602.7,1603.9 608.8,1608.3 614.9,1612.6 621.1,1616.9 627.3,1621 633.6,1625.2 
	639.9,1629.2 646.3,1633.2 652.7,1637.1 659.1,1641 665.6,1644.8 672.1,1648.5 678.7,1652.1 685.3,1655.7 691.9,1659.2 
	698.6,1662.7 705.3,1666 712,1669.3 718.8,1672.6 725.6,1675.7 732.5,1678.8 739.3,1681.8 746.2,1684.8 753.2,1687.7 760.1,1690.5 
	767.1,1693.2 774.1,1695.8 781.2,1698.4 788.3,1700.9 795.4,1703.4 802.5,1705.7 834.1,1608.3 828,1606.3 821.9,1604.2 
	815.9,1602.1 809.8,1599.9 803.8,1597.6 797.8,1595.3 791.9,1592.9 785.9,1590.4 780,1587.9 774.1,1585.3 768.2,1582.6 
	762.4,1579.9 756.6,1577.2 750.8,1574.3 745.1,1571.4 739.4,1568.5 733.7,1565.5 728,1562.4 722.4,1559.3 716.8,1556.1 
	711.2,1552.8 705.7,1549.5 700.2,1546.2 694.8,1542.8 689.4,1539.3 684,1535.7 678.7,1532.2 673.4,1528.5 668.1,1524.8 
	662.9,1521.1 657.7,1517.3 652.5,1513.4 647.4,1509.5 642.4,1505.5 637.3,1501.5 632.4,1497.4 627.4,1493.3 622.5,1489.1 
	617.7,1484.9 612.9,1480.6 608.1,1476.3 603.4,1471.9 598.7,1467.4 594.1,1463 589.6,1458.4 585,1453.9 580.6,1449.3 576.1,1444.6 
	571.7,1439.9 567.4,1435.1 563.1,1430.3 558.9,1425.5 554.7,1420.6 550.6,1415.6 546.5,1410.7 542.5,1405.6 538.5,1400.6 
	534.6,1395.5 530.7,1390.3 526.9,1385.1 523.2,1379.9 519.5,1374.6 515.8,1369.3 512.3,1364 508.7,1358.6 505.2,1353.2 
	501.8,1347.8 498.5,1342.3 495.2,1336.8 491.9,1331.2 488.7,1325.6 485.6,1320 482.5,1314.3 479.5,1308.6 476.6,1302.9 
	473.7,1297.2 470.8,1291.4 468.1,1285.6 465.4,1279.8 462.7,1273.9 460.1,1268 457.6,1262.1 455.1,1256.1 452.7,1250.2 
	450.4,1244.2 448.1,1238.2 445.9,1232.1 443.8,1226.1 441.7,1220 439.7,1213.9 437.7,1207.7 435.8,1201.6 434,1195.4 432.2,1189.2 
	430.5,1183 428.9,1176.8 427.3,1170.6 425.8,1164.3 424.4,1158 423,1151.7 322.9,1173 324.5,1180.4 326.1,1187.7 327.9,1195 
	329.7,1202.3 331.6,1209.5 333.6,1216.8 335.7,1224 337.8,1231.2 340,1238.4 342.3,1245.5 344.6,1252.6 347.1,1259.7 349.6,1266.8 
	352.2,1273.9 354.8,1280.9 357.5,1287.9 360.3,1294.8 363.2,1301.8 366.2,1308.7 369.2,1315.5 372.3,1322.4 "/>
<polygon class="st3" points="1740.6,1039 1740.4,1046.5 1740.2,1054 1739.8,1061.5 1739.4,1069 1738.9,1076.5 1738.3,1084 
	1737.6,1091.5 1736.9,1098.9 1736,1106.4 1735.1,1113.8 1734.2,1121.3 1733.1,1128.7 1732,1136.1 1730.8,1143.5 1729.5,1150.9 
	1728.1,1158.3 1726.7,1165.7 1725.1,1173 1723.5,1180.4 1721.9,1187.7 1720.1,1195 1718.3,1202.3 1716.4,1209.5 1714.4,1216.8 
	1712.3,1224 1710.2,1231.2 1708,1238.4 1705.7,1245.5 1703.4,1252.6 1700.9,1259.7 1698.4,1266.8 1695.8,1273.9 1693.2,1280.9 
	1690.5,1287.9 1687.7,1294.8 1684.8,1301.8 1681.8,1308.7 1678.8,1315.5 1675.7,1322.4 1672.6,1329.2 1669.3,1336 1666,1342.7 
	1662.7,1349.4 1659.2,1356.1 1655.7,1362.7 1652.1,1369.3 1648.5,1375.9 1644.8,1382.4 1641,1388.9 1637.1,1395.3 1633.2,1401.7 
	1629.2,1408.1 1625.2,1414.4 1621,1420.7 1616.9,1426.9 1612.6,1433.1 1608.3,1439.2 1603.9,1445.3 1686.7,1505.5 1691.8,1498.5 
	1696.7,1491.5 1701.5,1484.5 1706.3,1477.3 1711,1470.2 1715.7,1462.9 1720.2,1455.7 1724.7,1448.4 1729.1,1441 1733.4,1433.6 
	1737.7,1426.1 1741.9,1418.7 1746,1411.1 1750,1403.5 1753.9,1395.9 1757.8,1388.2 1761.5,1380.5 1765.2,1372.8 1768.8,1365 
	1772.4,1357.2 1775.8,1349.3 1779.2,1341.5 1782.5,1333.5 1785.7,1325.6 1788.8,1317.6 1791.8,1309.6 1794.8,1301.5 1797.6,1293.4 
	1800.4,1285.3 1803.1,1277.1 1805.7,1269 1808.2,1260.8 1810.7,1252.5 1813,1244.3 1815.3,1236 1817.5,1227.7 1819.6,1219.4 
	1821.6,1211.1 1823.5,1202.7 1825.3,1194.3 1827,1185.9 1828.7,1177.5 1830.3,1169.1 1831.7,1160.6 1833.1,1152.2 1834.4,1143.7 
	1835.6,1135.2 1836.7,1126.7 1837.8,1118.2 1838.7,1109.6 1839.6,1101.1 1840.3,1092.5 1841,1084 1841.6,1075.4 1842.1,1066.9 
	1842.5,1058.3 1842.8,1049.7 1843,1041.2 1843.2,1032.6 1843.2,1024 1740.8,1024 1740.8,1031.5 "/>
<polygon class="st4" points="205,1041.2 205.2,1049.7 205.5,1058.3 205.9,1066.9 206.4,1075.4 207,1084 207.7,1092.5 208.4,1101.1 
	209.3,1109.6 210.2,1118.2 211.3,1126.7 212.4,1135.2 213.6,1143.7 214.9,1152.2 216.3,1160.6 217.7,1169.1 219.3,1177.5 
	221,1185.9 222.7,1194.3 224.5,1202.7 226.4,1211.1 228.4,1219.4 230.5,1227.7 232.7,1236 235,1244.3 237.3,1252.5 239.8,1260.8 
	242.3,1269 244.9,1277.1 247.6,1285.3 250.4,1293.4 253.2,1301.5 256.2,1309.6 259.2,1317.6 262.3,1325.6 265.5,1333.5 
	268.8,1341.5 272.2,1349.3 275.6,1357.2 369.2,1315.5 366.2,1308.7 363.2,1301.8 360.3,1294.8 357.5,1287.9 354.8,1280.9 
	352.2,1273.9 349.6,1266.8 347.1,1259.7 344.6,1252.6 342.3,1245.5 340,1238.4 337.8,1231.2 335.7,1224 333.6,1216.8 331.6,1209.5 
	329.7,1202.3 327.9,1195 326.1,1187.7 324.5,1180.4 322.9,1173 321.3,1165.7 319.9,1158.3 318.5,1150.9 317.2,1143.5 316,1136.1 
	314.9,1128.7 313.8,1121.3 312.9,1113.8 312,1106.4 311.1,1098.9 310.4,1091.5 309.7,1084 309.1,1076.5 308.6,1069 308.2,1061.5 
	307.8,1054 307.6,1046.5 307.4,1039 307.2,1031.5 307.2,1024 204.8,1024 204.8,1032.6 "/>
<polygon class="st3" points="371.5,1519.3 376.7,1526.1 382,1532.8 387.4,1539.5 392.8,1546.2 398.3,1552.8 403.9,1559.3 
	409.5,1565.7 415.2,1572.2 421,1578.5 426.8,1584.8 432.7,1591 438.7,1597.2 444.7,1603.3 450.8,1609.3 457,1615.3 463.2,1621.2 
	469.5,1627 475.8,1632.8 482.3,1638.5 488.7,1644.1 495.2,1649.7 501.8,1655.2 508.5,1660.6 515.2,1666 521.9,1671.3 528.7,1676.5 
	535.6,1681.7 542.5,1686.7 549.5,1691.8 556.5,1696.7 563.5,1701.5 570.7,1706.3 577.8,1711 585.1,1715.7 592.3,1720.2 
	599.6,1724.7 607,1729.1 614.4,1733.4 621.9,1737.7 629.3,1741.9 636.9,1746 644.5,1750 652.1,1753.9 659.8,1757.8 667.5,1761.5 
	675.2,1765.2 683,1768.8 690.8,1772.4 698.7,1775.8 706.5,1779.2 714.5,1782.5 722.4,1785.7 730.4,1788.8 738.4,1791.8 
	746.5,1794.8 754.6,1797.6 762.7,1800.4 770.9,1803.1 779,1805.7 787.2,1808.2 795.5,1810.7 803.7,1813 812,1815.3 820.3,1817.5 
	828.6,1819.6 836.9,1821.6 845.3,1823.5 853.7,1825.3 862.1,1827 870.5,1828.7 878.9,1830.3 887.4,1831.7 895.8,1833.1 
	904.3,1834.4 912.8,1835.6 921.3,1836.7 929.8,1837.8 938.4,1838.7 949.1,1736.9 941.6,1736 934.2,1735.1 926.7,1734.2 
	919.3,1733.1 911.9,1732 904.5,1730.8 897.1,1729.5 889.7,1728.1 882.3,1726.7 875,1725.1 867.6,1723.5 860.3,1721.9 853,1720.1 
	845.7,1718.3 838.5,1716.4 831.2,1714.4 824,1712.3 816.8,1710.2 809.6,1708 802.5,1705.7 795.4,1703.4 788.3,1700.9 781.2,1698.4 
	774.1,1695.8 767.1,1693.2 760.1,1690.5 753.2,1687.7 746.2,1684.8 739.3,1681.8 732.5,1678.8 725.6,1675.7 718.8,1672.6 
	712,1669.3 705.3,1666 698.6,1662.7 691.9,1659.2 685.3,1655.7 678.7,1652.1 672.1,1648.5 665.6,1644.8 659.1,1641 652.7,1637.1 
	646.3,1633.2 639.9,1629.2 633.6,1625.2 627.3,1621 621.1,1616.9 614.9,1612.6 608.8,1608.3 602.7,1603.9 596.6,1599.5 590.6,1595 
	584.7,1590.4 578.8,1585.8 572.9,1581.1 567.1,1576.3 561.3,1571.5 555.6,1566.6 550,1561.7 544.4,1556.7 538.8,1551.6 
	533.3,1546.5 527.9,1541.4 522.5,1536.1 517.1,1530.9 511.9,1525.5 506.6,1520.1 501.5,1514.7 496.4,1509.2 491.3,1503.6 
	486.3,1498 481.4,1492.4 476.5,1486.7 471.7,1480.9 466.9,1475.1 462.2,1469.2 457.6,1463.3 453,1457.4 448.5,1451.4 444.1,1445.3 
	439.7,1439.2 435.4,1433.1 431.1,1426.9 427,1420.7 422.8,1414.4 418.8,1408.1 414.8,1401.7 410.9,1395.3 407,1388.9 403.2,1382.4 
	399.5,1375.9 395.9,1369.3 392.3,1362.7 388.8,1356.1 385.3,1349.4 382,1342.7 378.7,1336 375.4,1329.2 372.3,1322.4 369.2,1315.5 
	275.6,1357.2 279.2,1365 282.8,1372.8 286.5,1380.5 290.2,1388.2 294.1,1395.9 298,1403.5 302,1411.1 306.1,1418.7 310.3,1426.1 
	314.6,1433.6 318.9,1441 323.3,1448.4 327.8,1455.7 332.3,1462.9 337,1470.2 341.7,1477.3 346.5,1484.5 351.3,1491.5 356.2,1498.5 
	361.3,1505.5 366.3,1512.4 "/>
<polygon class="st4" points="1492.4,1566.6 1486.7,1571.5 1480.9,1576.3 1475.1,1581.1 1469.2,1585.8 1463.3,1590.4 1457.4,1595 
	1451.4,1599.5 1445.3,1603.9 1439.2,1608.3 1433.1,1612.6 1426.9,1616.9 1420.7,1621 1414.4,1625.2 1408.1,1629.2 1401.7,1633.2 
	1395.3,1637.1 1388.9,1641 1382.4,1644.8 1375.9,1648.5 1369.3,1652.1 1362.7,1655.7 1356.1,1659.2 1349.4,1662.7 1342.7,1666 
	1336,1669.3 1329.2,1672.6 1322.4,1675.7 1315.5,1678.8 1308.7,1681.8 1301.8,1684.8 1294.8,1687.7 1287.9,1690.5 1280.9,1693.2 
	1273.9,1695.8 1266.8,1698.4 1259.7,1700.9 1252.6,1703.4 1245.5,1705.7 1238.4,1708 1231.2,1710.2 1224,1712.3 1216.8,1714.4 
	1209.5,1716.4 1202.3,1718.3 1195,1720.1 1187.7,1721.9 1180.4,1723.5 1173,1725.1 1165.7,1726.7 1158.3,1728.1 1150.9,1729.5 
	1143.5,1730.8 1136.1,1732 1128.7,1733.1 1121.3,1734.2 1113.8,1735.1 1106.4,1736 1098.9,1736.9 1091.5,1737.6 1084,1738.3 
	1076.5,1738.9 1069,1739.4 1061.5,1739.8 1054,1740.2 1046.5,1740.4 1039,1740.6 1031.5,1740.8 1024,1740.8 1016.5,1740.8 
	1009,1740.6 1001.5,1740.4 994,1740.2 986.5,1739.8 979,1739.4 971.5,1738.9 964,1738.3 956.5,1737.6 949.1,1736.9 938.4,1838.7 
	946.9,1839.6 955.5,1840.3 964,1841 972.6,1841.6 981.1,1842.1 989.7,1842.5 998.3,1842.8 1006.8,1843 1015.4,1843.2 1024,1843.2 
	1032.6,1843.2 1041.2,1843 1049.7,1842.8 1058.3,1842.5 1066.9,1842.1 1075.4,1841.6 1084,1841 1092.5,1840.3 1101.1,1839.6 
	1109.6,1838.7 1118.2,1837.8 1126.7,1836.7 1135.2,1835.6 1143.7,1834.4 1152.2,1833.1 1160.6,1831.7 1169.1,1830.3 1177.5,1828.7 
	1185.9,1827 1194.3,1825.3 1202.7,1823.5 1211.1,1821.6 1219.4,1819.6 1227.7,1817.5 1236,1815.3 1244.3,1813 1252.5,1810.7 
	1260.8,1808.2 1269,1805.7 1277.1,1803.1 1285.3,1800.4 1293.4,1797.6 1301.5,1794.8 1309.6,1791.8 1317.6,1788.8 1325.6,1785.7 
	1333.5,1782.5 1341.5,1779.2 1349.3,1775.8 1357.2,1772.4 1365,1768.8 1372.8,1765.2 1380.5,1761.5 1388.2,1757.8 1395.9,1753.9 
	1403.5,1750 1411.1,1746 1418.7,1741.9 1426.1,1737.7 1433.6,1733.4 1441,1729.1 1448.4,1724.7 1455.7,1720.2 1462.9,1715.7 
	1470.2,1711 1477.3,1706.3 1484.5,1701.5 1491.5,1696.7 1498.5,1691.8 1505.5,1686.7 1512.4,1681.7 1519.3,1676.5 1526.1,1671.3 
	1532.8,1666 1539.5,1660.6 1546.2,1655.2 1552.8,1649.7 1559.3,1644.1 1565.7,1638.5 1572.2,1632.8 1578.5,1627 1584.8,1621.2 
	1591,1615.3 1597.2,1609.3 1603.3,1603.3 1609.3,1597.2 1615.3,1591 1621.2,1584.8 1627,1578.5 1632.8,1572.2 1638.5,1565.7 
	1644.1,1559.3 1649.7,1552.8 1655.2,1546.2 1660.6,1539.5 1666,1532.8 1671.3,1526.1 1676.5,1519.3 1681.7,1512.4 1686.7,1505.5 
	1603.9,1445.3 1599.5,1451.4 1595,1457.4 1590.4,1463.3 1585.8,1469.2 1581.1,1475.1 1576.3,1480.9 1571.5,1486.7 1566.6,1492.4 
	1561.7,1498 1556.7,1503.6 1551.6,1509.2 1546.5,1514.7 1541.4,1520.1 1536.1,1525.5 1530.9,1530.9 1525.5,1536.1 1520.1,1541.4 
	1514.7,1546.5 1509.2,1551.6 1503.6,1556.7 1498,1561.7 "/>
<polygon class="st1" points="102.6,1043.3 102.9,1052.9 103.2,1062.6 103.7,1072.2 104.2,1081.9 104.9,1091.5 105.6,1101.1 
	106.5,1110.7 107.4,1120.3 108.5,1129.9 109.7,1139.5 110.9,1149.1 112.3,1158.6 113.7,1168.2 115.3,1177.7 117,1187.2 
	118.7,1196.7 120.6,1206.2 122.5,1215.6 124.6,1225 126.7,1234.4 129,1243.8 131.4,1253.2 133.8,1262.5 136.3,1271.8 139,1281.1 
	141.7,1290.4 144.6,1299.6 147.5,1308.8 150.5,1318 153.7,1327.1 156.9,1336.2 160.2,1345.2 163.6,1354.3 167.1,1363.3 
	170.7,1372.2 174.4,1381.1 178.2,1390 182.1,1398.8 186,1407.6 190.1,1416.4 194.3,1425.1 198.5,1433.8 202.8,1442.4 207.3,1451 
	211.8,1459.5 216.4,1468 221.1,1476.4 225.9,1484.8 230.7,1493.1 235.7,1501.4 240.7,1509.6 245.9,1517.8 251.1,1525.9 256.4,1534 
	261.8,1542 267.2,1550 272.8,1557.9 278.4,1565.7 361.3,1505.5 356.2,1498.5 351.3,1491.5 346.5,1484.5 341.7,1477.3 337,1470.2 
	332.3,1462.9 327.8,1455.7 323.3,1448.4 318.9,1441 314.6,1433.6 310.3,1426.1 306.1,1418.7 302,1411.1 298,1403.5 294.1,1395.9 
	290.2,1388.2 286.5,1380.5 282.8,1372.8 279.2,1365 275.6,1357.2 272.2,1349.3 268.8,1341.5 265.5,1333.5 262.3,1325.6 
	259.2,1317.6 256.2,1309.6 253.2,1301.5 250.4,1293.4 247.6,1285.3 244.9,1277.1 242.3,1269 239.8,1260.8 237.3,1252.5 235,1244.3 
	232.7,1236 230.5,1227.7 228.4,1219.4 226.4,1211.1 224.5,1202.7 222.7,1194.3 221,1185.9 219.3,1177.5 217.7,1169.1 216.3,1160.6 
	214.9,1152.2 213.6,1143.7 212.4,1135.2 211.3,1126.7 210.2,1118.2 209.3,1109.6 208.4,1101.1 207.7,1092.5 207,1084 206.4,1075.4 
	205.9,1066.9 205.5,1058.3 205.2,1049.7 205,1041.2 204.8,1032.6 204.8,1024 102.4,1024 102.5,1033.7 "/>
<polygon class="st5" points="1101.1,1839.6 1092.5,1840.3 1084,1841 1075.4,1841.6 1066.9,1842.1 1058.3,1842.5 1049.7,1842.8 
	1041.2,1843 1032.6,1843.2 1024,1843.2 1015.4,1843.2 1006.8,1843 998.3,1842.8 989.7,1842.5 981.1,1842.1 972.6,1841.6 964,1841 
	955.5,1840.3 946.9,1839.6 938.4,1838.7 929.8,1837.8 921.3,1836.7 912.8,1835.6 904.3,1834.4 895.8,1833.1 887.4,1831.7 
	878.9,1830.3 870.5,1828.7 862.1,1827 853.7,1825.3 845.3,1823.5 836.9,1821.6 828.6,1819.6 820.3,1817.5 812,1815.3 803.7,1813 
	795.5,1810.7 787.2,1808.2 779,1805.7 770.9,1803.1 762.7,1800.4 754.6,1797.6 746.5,1794.8 738.4,1791.8 730.4,1788.8 
	722.4,1785.7 714.5,1782.5 706.5,1779.2 698.7,1775.8 690.8,1772.4 683,1768.8 675.2,1765.2 667.5,1761.5 659.8,1757.8 
	652.1,1753.9 644.5,1750 636.9,1746 629.3,1741.9 621.9,1737.7 614.4,1733.4 607,1729.1 599.6,1724.7 592.3,1720.2 585.1,1715.7 
	577.8,1711 570.7,1706.3 563.5,1701.5 556.5,1696.7 549.5,1691.8 542.5,1686.7 535.6,1681.7 528.7,1676.5 521.9,1671.3 515.2,1666 
	508.5,1660.6 501.8,1655.2 495.2,1649.7 488.7,1644.1 482.3,1638.5 475.8,1632.8 469.5,1627 463.2,1621.2 457,1615.3 450.8,1609.3 
	444.7,1603.3 438.7,1597.2 432.7,1591 426.8,1584.8 421,1578.5 415.2,1572.2 409.5,1565.7 403.9,1559.3 398.3,1552.8 392.8,1546.2 
	387.4,1539.5 382,1532.8 376.7,1526.1 371.5,1519.3 366.3,1512.4 361.3,1505.5 278.4,1565.7 284.1,1573.5 289.9,1581.2 
	295.8,1588.9 301.7,1596.4 307.8,1604 313.9,1611.4 320.1,1618.9 326.4,1626.2 332.7,1633.5 339.1,1640.7 345.6,1647.8 
	352.2,1654.9 358.8,1661.9 365.5,1668.8 372.3,1675.7 379.2,1682.5 386.1,1689.2 393.1,1695.8 400.2,1702.4 407.3,1708.9 
	414.5,1715.3 421.8,1721.6 429.1,1727.9 436.6,1734.1 444,1740.2 451.6,1746.3 459.1,1752.2 466.8,1758.1 474.5,1763.9 
	482.3,1769.6 490.1,1775.2 498,1780.8 506,1786.2 514,1791.6 522.1,1796.9 530.2,1802.1 538.4,1807.3 546.6,1812.3 554.9,1817.3 
	563.2,1822.1 571.6,1826.9 580,1831.6 588.5,1836.2 597,1840.7 605.6,1845.2 614.2,1849.5 622.9,1853.7 631.6,1857.9 640.4,1862 
	649.2,1865.9 658,1869.8 666.9,1873.6 675.8,1877.3 684.7,1880.9 693.7,1884.4 702.8,1887.8 711.8,1891.1 720.9,1894.3 730,1897.5 
	739.2,1900.5 748.4,1903.4 757.6,1906.3 766.9,1909 776.2,1911.7 785.5,1914.2 794.8,1916.6 804.2,1919 813.6,1921.3 823,1923.4 
	832.4,1925.5 841.8,1927.4 851.3,1929.3 860.8,1931 870.3,1932.7 879.8,1934.3 889.4,1935.7 898.9,1937.1 908.5,1938.3 
	918.1,1939.5 927.7,1940.6 937.3,1941.5 946.9,1942.4 956.5,1943.1 966.1,1943.8 975.8,1944.3 985.4,1944.8 995.1,1945.1 
	1004.7,1945.4 1014.3,1945.5 1024,1945.6 1033.7,1945.5 1043.3,1945.4 1052.9,1945.1 1062.6,1944.8 1072.2,1944.3 1081.9,1943.8 
	1091.5,1943.1 1101.1,1942.4 1110.7,1941.5 1120.3,1940.6 1109.6,1838.7 "/>
<polygon class="st1" points="1768.8,1365 1765.2,1372.8 1761.5,1380.5 1757.8,1388.2 1753.9,1395.9 1750,1403.5 1746,1411.1 
	1741.9,1418.7 1737.7,1426.1 1733.4,1433.6 1729.1,1441 1724.7,1448.4 1720.2,1455.7 1715.7,1462.9 1711,1470.2 1706.3,1477.3 
	1701.5,1484.5 1696.7,1491.5 1691.8,1498.5 1686.7,1505.5 1681.7,1512.4 1676.5,1519.3 1671.3,1526.1 1666,1532.8 1660.6,1539.5 
	1655.2,1546.2 1649.7,1552.8 1644.1,1559.3 1638.5,1565.7 1632.8,1572.2 1627,1578.5 1621.2,1584.8 1615.3,1591 1609.3,1597.2 
	1603.3,1603.3 1597.2,1609.3 1591,1615.3 1584.8,1621.2 1578.5,1627 1572.2,1632.8 1565.7,1638.5 1559.3,1644.1 1552.8,1649.7 
	1546.2,1655.2 1539.5,1660.6 1532.8,1666 1526.1,1671.3 1519.3,1676.5 1512.4,1681.7 1505.5,1686.7 1498.5,1691.8 1491.5,1696.7 
	1484.5,1701.5 1477.3,1706.3 1470.2,1711 1462.9,1715.7 1455.7,1720.2 1448.4,1724.7 1441,1729.1 1433.6,1733.4 1426.1,1737.7 
	1418.7,1741.9 1411.1,1746 1403.5,1750 1395.9,1753.9 1388.2,1757.8 1380.5,1761.5 1372.8,1765.2 1365,1768.8 1357.2,1772.4 
	1349.3,1775.8 1341.5,1779.2 1333.5,1782.5 1325.6,1785.7 1317.6,1788.8 1309.6,1791.8 1301.5,1794.8 1293.4,1797.6 1285.3,1800.4 
	1277.1,1803.1 1269,1805.7 1260.8,1808.2 1252.5,1810.7 1244.3,1813 1236,1815.3 1227.7,1817.5 1219.4,1819.6 1211.1,1821.6 
	1202.7,1823.5 1194.3,1825.3 1185.9,1827 1177.5,1828.7 1169.1,1830.3 1160.6,1831.7 1152.2,1833.1 1143.7,1834.4 1135.2,1835.6 
	1126.7,1836.7 1118.2,1837.8 1109.6,1838.7 1120.3,1940.6 1129.9,1939.5 1139.5,1938.3 1149.1,1937.1 1158.6,1935.7 1168.2,1934.3 
	1177.7,1932.7 1187.2,1931 1196.7,1929.3 1206.2,1927.4 1215.6,1925.5 1225,1923.4 1234.4,1921.3 1243.8,1919 1253.2,1916.6 
	1262.5,1914.2 1271.8,1911.7 1281.1,1909 1290.4,1906.3 1299.6,1903.4 1308.8,1900.5 1318,1897.5 1327.1,1894.3 1336.2,1891.1 
	1345.2,1887.8 1354.3,1884.4 1363.3,1880.9 1372.2,1877.3 1381.1,1873.6 1390,1869.8 1398.8,1865.9 1407.6,1862 1416.4,1857.9 
	1425.1,1853.7 1433.8,1849.5 1442.4,1845.2 1451,1840.7 1459.5,1836.2 1468,1831.6 1476.4,1826.9 1484.8,1822.1 1493.1,1817.3 
	1501.4,1812.3 1509.6,1807.3 1517.8,1802.1 1525.9,1796.9 1534,1791.6 1542,1786.2 1550,1780.8 1557.9,1775.2 1565.7,1769.6 
	1573.5,1763.9 1581.2,1758.1 1588.9,1752.2 1596.4,1746.3 1604,1740.2 1611.4,1734.1 1618.9,1727.9 1626.2,1721.6 1633.5,1715.3 
	1640.7,1708.9 1647.8,1702.4 1654.9,1695.8 1661.9,1689.2 1668.8,1682.5 1675.7,1675.7 1682.5,1668.8 1689.2,1661.9 1695.8,1654.9 
	1702.4,1647.8 1708.9,1640.7 1715.3,1633.5 1721.6,1626.2 1727.9,1618.9 1734.1,1611.4 1740.2,1604 1746.3,1596.4 1752.2,1588.9 
	1758.1,1581.2 1763.9,1573.5 1769.6,1565.7 1775.2,1557.9 1780.8,1550 1786.2,1542 1791.6,1534 1796.9,1525.9 1802.1,1517.8 
	1807.3,1509.6 1812.3,1501.4 1817.3,1493.1 1822.1,1484.8 1826.9,1476.4 1831.6,1468 1836.2,1459.5 1840.7,1451 1845.2,1442.4 
	1849.5,1433.8 1853.7,1425.1 1857.9,1416.4 1862,1407.6 1865.9,1398.8 1772.4,1357.2 "/>
<polygon class="st5" points="1843,1041.2 1842.8,1049.7 1842.5,1058.3 1842.1,1066.9 1841.6,1075.4 1841,1084 1840.3,1092.5 
	1839.6,1101.1 1838.7,1109.6 1837.8,1118.2 1836.7,1126.7 1835.6,1135.2 1834.4,1143.7 1833.1,1152.2 1831.7,1160.6 1830.3,1169.1 
	1828.7,1177.5 1827,1185.9 1825.3,1194.3 1823.5,1202.7 1821.6,1211.1 1819.6,1219.4 1817.5,1227.7 1815.3,1236 1813,1244.3 
	1810.7,1252.5 1808.2,1260.8 1805.7,1269 1803.1,1277.1 1800.4,1285.3 1797.6,1293.4 1794.8,1301.5 1791.8,1309.6 1788.8,1317.6 
	1785.7,1325.6 1782.5,1333.5 1779.2,1341.5 1775.8,1349.3 1772.4,1357.2 1865.9,1398.8 1869.8,1390 1873.6,1381.1 1877.3,1372.2 
	1880.9,1363.3 1884.4,1354.3 1887.8,1345.2 1891.1,1336.2 1894.3,1327.1 1897.5,1318 1900.5,1308.8 1903.4,1299.6 1906.3,1290.4 
	1909,1281.1 1911.7,1271.8 1914.2,1262.5 1916.6,1253.2 1919,1243.8 1921.3,1234.4 1923.4,1225 1925.5,1215.6 1927.4,1206.2 
	1929.3,1196.7 1931,1187.2 1932.7,1177.7 1934.3,1168.2 1935.7,1158.6 1937.1,1149.1 1938.3,1139.5 1939.5,1129.9 1940.6,1120.3 
	1941.5,1110.7 1942.4,1101.1 1943.1,1091.5 1943.8,1081.9 1944.3,1072.2 1944.8,1062.6 1945.1,1052.9 1945.4,1043.3 1945.5,1033.7 
	1945.6,1024 1843.2,1024 1843.2,1032.6 "/>
<polygon class="st5" points="400.2,1702.4 393.1,1695.8 386.1,1689.2 379.2,1682.5 372.3,1675.7 365.5,1668.8 358.8,1661.9 
	352.2,1654.9 345.6,1647.8 339.1,1640.7 332.7,1633.5 326.4,1626.2 320.1,1618.9 313.9,1611.4 307.8,1604 301.7,1596.4 
	295.8,1588.9 289.9,1581.2 284.1,1573.5 278.4,1565.7 272.8,1557.9 267.2,1550 261.8,1542 256.4,1534 251.1,1525.9 245.9,1517.8 
	240.7,1509.6 235.7,1501.4 230.7,1493.1 225.9,1484.8 221.1,1476.4 216.4,1468 211.8,1459.5 207.3,1451 202.8,1442.4 198.5,1433.8 
	194.3,1425.1 190.1,1416.4 186,1407.6 182.1,1398.8 178.2,1390 174.4,1381.1 170.7,1372.2 167.1,1363.3 163.6,1354.3 160.2,1345.2 
	156.9,1336.2 153.7,1327.1 150.5,1318 147.5,1308.8 144.6,1299.6 141.7,1290.4 139,1281.1 136.3,1271.8 133.8,1262.5 131.4,1253.2 
	129,1243.8 126.7,1234.4 124.6,1225 122.5,1215.6 120.6,1206.2 118.7,1196.7 117,1187.2 115.3,1177.7 113.7,1168.2 112.3,1158.6 
	110.9,1149.1 109.7,1139.5 108.5,1129.9 107.4,1120.3 106.5,1110.7 105.6,1101.1 104.9,1091.5 104.2,1081.9 103.7,1072.2 
	103.2,1062.6 102.9,1052.9 102.6,1043.3 102.5,1033.7 102.4,1024 0,1024 0.1,1034.7 0.2,1045.4 0.5,1056.2 0.9,1066.9 1.4,1077.6 
	2,1088.3 2.8,1099 3.6,1109.7 4.5,1120.4 5.6,1131 6.8,1141.7 8.1,1152.3 9.5,1163 11,1173.6 12.6,1184.2 14.3,1194.8 16.2,1205.3 
	18.1,1215.9 20.2,1226.4 22.4,1236.9 24.7,1247.4 27.1,1257.8 29.6,1268.3 32.2,1278.7 34.9,1289 37.7,1299.4 40.7,1309.7 
	43.7,1320 46.9,1330.2 50.1,1340.4 53.5,1350.6 57,1360.8 60.5,1370.9 64.2,1380.9 68,1391 71.9,1401 75.9,1410.9 80,1420.8 
	84.2,1430.7 88.5,1440.5 92.9,1450.3 97.5,1460 102.1,1469.7 106.8,1479.3 111.6,1488.9 116.5,1498.4 121.5,1507.9 126.7,1517.3 
	131.9,1526.7 137.2,1536 142.6,1545.3 148.1,1554.5 153.7,1563.6 159.4,1572.7 165.2,1581.7 171.1,1590.7 177.1,1599.6 
	183.1,1608.4 189.3,1617.2 195.6,1625.9 201.9,1634.5 208.4,1643.1 214.9,1651.6 221.5,1660.1 228.2,1668.4 235,1676.7 
	241.9,1684.9 248.8,1693.1 255.9,1701.2 263,1709.2 270.2,1717.1 277.5,1725 284.9,1732.8 292.4,1740.5 299.9,1748.1 307.5,1755.6 
	315.2,1763.1 323,1770.5 330.9,1777.8 338.8,1785 407.3,1708.9 "/>
<polygon class="st3" points="1299.6,1903.4 1290.4,1906.3 1281.1,1909 1271.8,1911.7 1262.5,1914.2 1253.2,1916.6 1243.8,1919 
	1234.4,1921.3 1225,1923.4 1215.6,1925.5 1206.2,1927.4 1196.7,1929.3 1187.2,1931 1177.7,1932.7 1168.2,1934.3 1158.6,1935.7 
	1149.1,1937.1 1139.5,1938.3 1129.9,1939.5 1120.3,1940.6 1110.7,1941.5 1101.1,1942.4 1091.5,1943.1 1081.9,1943.8 1072.2,1944.3 
	1062.6,1944.8 1052.9,1945.1 1043.3,1945.4 1033.7,1945.5 1024,1945.6 1014.3,1945.5 1004.7,1945.4 995.1,1945.1 985.4,1944.8 
	975.8,1944.3 966.1,1943.8 956.5,1943.1 946.9,1942.4 937.3,1941.5 927.7,1940.6 918.1,1939.5 908.5,1938.3 898.9,1937.1 
	889.4,1935.7 879.8,1934.3 870.3,1932.7 860.8,1931 851.3,1929.3 841.8,1927.4 832.4,1925.5 823,1923.4 813.6,1921.3 804.2,1919 
	794.8,1916.6 785.5,1914.2 776.2,1911.7 766.9,1909 757.6,1906.3 748.4,1903.4 739.2,1900.5 730,1897.5 720.9,1894.3 711.8,1891.1 
	702.8,1887.8 693.7,1884.4 684.7,1880.9 675.8,1877.3 666.9,1873.6 658,1869.8 649.2,1865.9 640.4,1862 631.6,1857.9 622.9,1853.7 
	614.2,1849.5 605.6,1845.2 597,1840.7 588.5,1836.2 580,1831.6 571.6,1826.9 563.2,1822.1 554.9,1817.3 546.6,1812.3 538.4,1807.3 
	530.2,1802.1 522.1,1796.9 514,1791.6 506,1786.2 498,1780.8 490.1,1775.2 482.3,1769.6 474.5,1763.9 466.8,1758.1 459.1,1752.2 
	451.6,1746.3 444,1740.2 436.6,1734.1 429.1,1727.9 421.8,1721.6 414.5,1715.3 407.3,1708.9 338.8,1785 346.8,1792.1 354.9,1799.2 
	363.1,1806.1 371.3,1813 379.6,1819.8 387.9,1826.5 396.4,1833.1 404.9,1839.6 413.5,1846.1 422.1,1852.4 430.8,1858.7 
	439.6,1864.9 448.4,1870.9 457.3,1876.9 466.3,1882.8 475.3,1888.6 484.4,1894.3 493.5,1899.9 502.7,1905.4 512,1910.8 
	521.3,1916.1 530.7,1921.3 540.1,1926.5 549.6,1931.5 559.1,1936.4 568.7,1941.2 578.3,1945.9 588,1950.5 597.7,1955.1 
	607.5,1959.5 617.3,1963.8 627.2,1968 637.1,1972.1 647,1976.1 657,1980 667.1,1983.8 677.1,1987.5 687.2,1991 697.4,1994.5 
	707.6,1997.9 717.8,2001.1 728,2004.3 738.3,2007.3 748.6,2010.3 759,2013.1 769.3,2015.8 779.7,2018.4 790.2,2020.9 800.6,2023.3 
	811.1,2025.6 821.6,2027.8 832.1,2029.9 842.7,2031.8 853.2,2033.7 863.8,2035.4 874.4,2037 885,2038.5 895.7,2039.9 906.3,2041.2 
	917,2042.4 927.6,2043.5 938.3,2044.4 949,2045.2 959.7,2046 970.4,2046.6 981.1,2047.1 991.8,2047.5 1002.6,2047.8 1013.3,2047.9 
	1024,2048 1034.7,2047.9 1045.4,2047.8 1056.2,2047.5 1066.9,2047.1 1077.6,2046.6 1088.3,2046 1099,2045.2 1109.7,2044.4 
	1120.4,2043.5 1131,2042.4 1141.7,2041.2 1152.3,2039.9 1163,2038.5 1173.6,2037 1184.2,2035.4 1194.8,2033.7 1205.3,2031.8 
	1215.9,2029.9 1226.4,2027.8 1236.9,2025.6 1247.4,2023.3 1257.8,2020.9 1268.3,2018.4 1278.7,2015.8 1289,2013.1 1299.4,2010.3 
	1309.7,2007.3 1320,2004.3 1330.2,2001.1 1340.4,1997.9 1308.8,1900.5 "/>
<polygon class="st5" points="1923.4,1225 1921.3,1234.4 1919,1243.8 1916.6,1253.2 1914.2,1262.5 1911.7,1271.8 1909,1281.1 
	1906.3,1290.4 1903.4,1299.6 1900.5,1308.8 1897.5,1318 1894.3,1327.1 1891.1,1336.2 1887.8,1345.2 1884.4,1354.3 1880.9,1363.3 
	1877.3,1372.2 1873.6,1381.1 1869.8,1390 1865.9,1398.8 1862,1407.6 1857.9,1416.4 1853.7,1425.1 1849.5,1433.8 1845.2,1442.4 
	1840.7,1451 1836.2,1459.5 1831.6,1468 1826.9,1476.4 1822.1,1484.8 1817.3,1493.1 1812.3,1501.4 1807.3,1509.6 1802.1,1517.8 
	1796.9,1525.9 1791.6,1534 1786.2,1542 1780.8,1550 1775.2,1557.9 1769.6,1565.7 1763.9,1573.5 1758.1,1581.2 1752.2,1588.9 
	1746.3,1596.4 1740.2,1604 1734.1,1611.4 1727.9,1618.9 1721.6,1626.2 1715.3,1633.5 1708.9,1640.7 1702.4,1647.8 1695.8,1654.9 
	1689.2,1661.9 1682.5,1668.8 1675.7,1675.7 1668.8,1682.5 1661.9,1689.2 1654.9,1695.8 1647.8,1702.4 1640.7,1708.9 1633.5,1715.3 
	1626.2,1721.6 1618.9,1727.9 1611.4,1734.1 1604,1740.2 1596.4,1746.3 1588.9,1752.2 1581.2,1758.1 1573.5,1763.9 1565.7,1769.6 
	1557.9,1775.2 1550,1780.8 1542,1786.2 1534,1791.6 1525.9,1796.9 1517.8,1802.1 1509.6,1807.3 1501.4,1812.3 1493.1,1817.3 
	1484.8,1822.1 1476.4,1826.9 1468,1831.6 1459.5,1836.2 1451,1840.7 1442.4,1845.2 1433.8,1849.5 1425.1,1853.7 1416.4,1857.9 
	1407.6,1862 1398.8,1865.9 1390,1869.8 1381.1,1873.6 1372.2,1877.3 1363.3,1880.9 1354.3,1884.4 1345.2,1887.8 1336.2,1891.1 
	1327.1,1894.3 1318,1897.5 1308.8,1900.5 1340.4,1997.9 1350.6,1994.5 1360.8,1991 1370.9,1987.5 1380.9,1983.8 1391,1980 
	1401,1976.1 1410.9,1972.1 1420.8,1968 1430.7,1963.8 1440.5,1959.5 1450.3,1955.1 1460,1950.5 1469.7,1945.9 1479.3,1941.2 
	1488.9,1936.4 1498.4,1931.5 1507.9,1926.5 1517.3,1921.3 1526.7,1916.1 1536,1910.8 1545.3,1905.4 1554.5,1899.9 1563.6,1894.3 
	1572.7,1888.6 1581.7,1882.8 1590.7,1876.9 1599.6,1870.9 1608.4,1864.9 1617.2,1858.7 1625.9,1852.4 1634.5,1846.1 1643.1,1839.6 
	1651.6,1833.1 1660.1,1826.5 1668.4,1819.8 1676.7,1813 1684.9,1806.1 1693.1,1799.2 1701.2,1792.1 1709.2,1785 1717.1,1777.8 
	1725,1770.5 1732.8,1763.1 1740.5,1755.6 1748.1,1748.1 1755.6,1740.5 1763.1,1732.8 1770.5,1725 1777.8,1717.1 1785,1709.2 
	1792.1,1701.2 1799.2,1693.1 1806.1,1684.9 1813,1676.7 1819.8,1668.4 1826.5,1660.1 1833.1,1651.6 1839.6,1643.1 1846.1,1634.5 
	1852.4,1625.9 1858.7,1617.2 1864.9,1608.4 1870.9,1599.6 1876.9,1590.7 1882.8,1581.7 1888.6,1572.7 1894.3,1563.6 1899.9,1554.5 
	1905.4,1545.3 1910.8,1536 1916.1,1526.7 1921.3,1517.3 1926.5,1507.9 1931.5,1498.4 1936.4,1488.9 1941.2,1479.3 1945.9,1469.7 
	1950.5,1460 1955.1,1450.3 1959.5,1440.5 1963.8,1430.7 1968,1420.8 1972.1,1410.9 1976.1,1401 1980,1391 1983.8,1380.9 
	1987.5,1370.9 1991,1360.8 1994.5,1350.6 1997.9,1340.4 2001.1,1330.2 2004.3,1320 2007.3,1309.7 2010.3,1299.4 2013.1,1289 
	2015.8,1278.7 2018.4,1268.3 2020.9,1257.8 2023.3,1247.4 2025.6,1236.9 1925.5,1215.6 "/>
<polygon class="st3" points="1945.5,1033.7 1945.4,1043.3 1945.1,1052.9 1944.8,1062.6 1944.3,1072.2 1943.8,1081.9 1943.1,1091.5 
	1942.4,1101.1 1941.5,1110.7 1940.6,1120.3 1939.5,1129.9 1938.3,1139.5 1937.1,1149.1 1935.7,1158.6 1934.3,1168.2 1932.7,1177.7 
	1931,1187.2 1929.3,1196.7 1927.4,1206.2 1925.5,1215.6 2025.6,1236.9 2027.8,1226.4 2029.9,1215.9 2031.8,1205.3 2033.7,1194.8 
	2035.4,1184.2 2037,1173.6 2038.5,1163 2039.9,1152.3 2041.2,1141.7 2042.4,1131 2043.5,1120.4 2044.4,1109.7 2045.2,1099 
	2046,1088.3 2046.6,1077.6 2047.1,1066.9 2047.5,1056.2 2047.8,1045.4 2047.9,1034.7 2048,1024 1945.6,1024 "/>
</svg>
